VotoSerifGX-CondensedDisplay.ufo
<glyph name="percent" format="2">
  <advance width="582"/>
  <unicode hex="0025"/>
  <outline>
    <contour>
      <point x="170" y="0" type="line"/>
      <point x="180" y="0" type="line"/>
      <point x="410" y="714" type="line"/>
      <point x="400" y="714" type="line"/>
    </contour>
    <contour>
      <point x="136" y="280" type="curve" smooth="yes"/>
      <point x="210" y="280"/>
      <point x="249" y="358"/>
      <point x="249" y="503" type="curve" smooth="yes"/>
      <point x="249" y="648"/>
      <point x="214" y="724"/>
      <point x="137" y="724" type="curve" smooth="yes"/>
      <point x="61" y="724"/>
      <point x="26" y="647"/>
      <point x="26" y="503" type="curve" smooth="yes"/>
      <point x="26" y="356"/>
      <point x="62" y="280"/>
    </contour>
    <contour>
      <point x="138" y="290" type="curve" smooth="yes"/>
      <point x="91" y="290"/>
      <point x="81" y="346"/>
      <point x="81" y="503" type="curve" smooth="yes"/>
      <point x="81" y="665"/>
      <point x="93" y="714"/>
      <point x="137" y="714" type="curve" smooth="yes"/>
      <point x="185" y="714"/>
      <point x="194" y="657"/>
      <point x="194" y="503" type="curve" smooth="yes"/>
      <point x="194" y="341"/>
      <point x="183" y="290"/>
    </contour>
    <contour>
      <point x="444" y="-10" type="curve" smooth="yes"/>
      <point x="518" y="-10"/>
      <point x="556" y="68"/>
      <point x="556" y="213" type="curve" smooth="yes"/>
      <point x="556" y="358"/>
      <point x="522" y="434"/>
      <point x="445" y="434" type="curve" smooth="yes"/>
      <point x="368" y="434"/>
      <point x="334" y="357"/>
      <point x="334" y="213" type="curve" smooth="yes"/>
      <point x="334" y="66"/>
      <point x="369" y="-10"/>
    </contour>
    <contour>
      <point x="445" y="0" type="curve" smooth="yes"/>
      <point x="398" y="0"/>
      <point x="388" y="56"/>
      <point x="388" y="213" type="curve" smooth="yes"/>
      <point x="388" y="375"/>
      <point x="401" y="424"/>
      <point x="445" y="424" type="curve" smooth="yes"/>
      <point x="493" y="424"/>
      <point x="501" y="367"/>
      <point x="501" y="213" type="curve" smooth="yes"/>
      <point x="501" y="51"/>
      <point x="490" y="0"/>
    </contour>
  </outline>
</glyph>
<glyph name="parenleft" format="2">
  <advance width="237"/>
  <unicode hex="0028"/>
  <outline>
    <contour>
      <point x="216" y="-125" type="curve"/>
      <point x="216" y="-115" type="line"/>
      <point x="174" y="-77"/>
      <point x="112" y="63"/>
      <point x="112" y="316" type="curve" smooth="yes"/>
      <point x="112" y="568"/>
      <point x="175" y="703"/>
      <point x="216" y="746" type="curve"/>
      <point x="216" y="756" type="line"/>
      <point x="108" y="698"/>
      <point x="36" y="543"/>
      <point x="36" y="316" type="curve" smooth="yes"/>
      <point x="36" y="85"/>
      <point x="108" y="-67"/>
    </contour>
  </outline>
</glyph>
<glyph name="V" format="2">
  <advance width="442"/>
  <unicode hex="0056"/>
  <anchor x="221" y="0" name="bottom"/>
  <anchor x="221" y="714" name="top"/>
  <anchor x="471" y="714" name="topright"/>
  <outline>
    <contour>
      <point x="193" y="0" type="line"/>
      <point x="251" y="0" type="line"/>
      <point x="381" y="662" type="line" smooth="yes"/>
      <point x="387" y="698"/>
      <point x="398" y="704"/>
      <point x="438" y="704" type="curve" smooth="yes"/>
      <point x="450" y="704" type="line"/>
      <point x="450" y="714" type="line"/>
      <point x="306" y="714" type="line"/>
      <point x="306" y="704" type="line"/>
      <point x="311" y="704" type="line" smooth="yes"/>
      <point x="360" y="704"/>
      <point x="367" y="699"/>
      <point x="367" y="681" type="curve" smooth="yes"/>
      <point x="367" y="655"/>
      <point x="368" y="636"/>
      <point x="350" y="562" type="curve" smooth="yes"/>
      <point x="290" y="249" type="line" smooth="yes"/>
      <point x="268" y="145"/>
      <point x="261" y="111"/>
      <point x="248" y="43" type="curve"/>
      <point x="237" y="99"/>
      <point x="221" y="185"/>
      <point x="210" y="243" type="curve" smooth="yes"/>
      <point x="138" y="595" type="line" smooth="yes"/>
      <point x="127" y="637"/>
      <point x="127" y="660"/>
      <point x="127" y="678" type="curve" smooth="yes"/>
      <point x="127" y="698"/>
      <point x="132" y="704"/>
      <point x="173" y="704" type="curve" smooth="yes"/>
      <point x="186" y="704" type="line"/>
      <point x="186" y="714" type="line"/>
      <point x="0" y="714" type="line"/>
      <point x="0" y="704" type="line"/>
      <point x="0" y="704" type="line" smooth="yes"/>
      <point x="34" y="704"/>
      <point x="41" y="697"/>
      <point x="50" y="656" type="curve" smooth="yes"/>
    </contour>
  </outline>
</glyph>
<glyph name="asciitilde" format="2">
  <advance width="336"/>
  <unicode hex="007E"/>
  <outline>
    <contour>
      <point x="36" y="277" type="curve"/>
      <point x="54" y="277" type="line"/>
      <point x="60" y="351"/>
      <point x="68" y="416"/>
      <point x="109" y="416" type="curve" smooth="yes"/>
      <point x="122" y="416"/>
      <point x="118" y="410"/>
      <point x="166" y="337" type="curve" smooth="yes"/>
      <point x="198" y="287"/>
      <point x="204" y="279"/>
      <point x="225" y="279" type="curve" smooth="yes"/>
      <point x="283" y="279"/>
      <point x="293" y="355"/>
      <point x="301" y="434" type="curve"/>
      <point x="282" y="434" type="line"/>
      <point x="274" y="340"/>
      <point x="265" y="299"/>
      <point x="226" y="299" type="curve" smooth="yes"/>
      <point x="211" y="299"/>
      <point x="210" y="302"/>
      <point x="171" y="366" type="curve" smooth="yes"/>
      <point x="129" y="431"/>
      <point x="127" y="436"/>
      <point x="112" y="436" type="curve" smooth="yes"/>
      <point x="54" y="436"/>
      <point x="41" y="352"/>
    </contour>
  </outline>
</glyph>
<glyph name="section" format="2">
  <advance width="347"/>
  <unicode hex="00A7"/>
  <outline>
    <contour>
      <point x="180" y="-115" type="curve" smooth="yes"/>
      <point x="273" y="-115"/>
      <point x="307" y="-51"/>
      <point x="307" y="49" type="curve" smooth="yes"/>
      <point x="307" y="92"/>
      <point x="300" y="127"/>
      <point x="278" y="160" type="curve"/>
      <point x="289" y="181"/>
      <point x="323" y="220"/>
      <point x="326" y="285" type="curve" smooth="yes"/>
      <point x="330" y="362"/>
      <point x="274" y="408"/>
      <point x="212" y="459" type="curve" smooth="yes"/>
      <point x="128" y="521"/>
      <point x="107" y="548"/>
      <point x="107" y="629" type="curve" smooth="yes"/>
      <point x="107" y="708"/>
      <point x="133" y="749"/>
      <point x="183" y="749" type="curve" smooth="yes"/>
      <point x="241" y="749"/>
      <point x="243" y="693"/>
      <point x="243" y="605" type="curve"/>
      <point x="265" y="605"/>
      <point x="293" y="620"/>
      <point x="293" y="662" type="curve" smooth="yes"/>
      <point x="293" y="722"/>
      <point x="255" y="760"/>
      <point x="190" y="760" type="curve" smooth="yes"/>
      <point x="103" y="760"/>
      <point x="59" y="701"/>
      <point x="59" y="612" type="curve" smooth="yes"/>
      <point x="59" y="555"/>
      <point x="76" y="515"/>
      <point x="93" y="491" type="curve"/>
      <point x="69" y="467"/>
      <point x="44" y="440"/>
      <point x="44" y="379" type="curve" smooth="yes"/>
      <point x="44" y="319"/>
      <point x="63" y="268"/>
      <point x="150" y="206" type="curve" smooth="yes"/>
      <point x="269" y="122"/>
      <point x="266" y="92"/>
      <point x="266" y="25" type="curve" smooth="yes"/>
      <point x="266" y="-63"/>
      <point x="238" y="-104"/>
      <point x="188" y="-104" type="curve" smooth="yes"/>
      <point x="133" y="-104"/>
      <point x="111" y="-40"/>
      <point x="111" y="61" type="curve"/>
      <point x="91" y="61"/>
      <point x="66" y="38"/>
      <point x="66" y="-8" type="curve" smooth="yes"/>
      <point x="66" y="-77"/>
      <point x="121" y="-115"/>
    </contour>
    <contour>
      <point x="268" y="172" type="curve"/>
      <point x="247" y="201"/>
      <point x="253" y="201"/>
      <point x="197" y="245" type="curve" smooth="yes"/>
      <point x="85" y="328"/>
      <point x="78" y="350"/>
      <point x="78" y="398" type="curve" smooth="yes"/>
      <point x="78" y="430"/>
      <point x="89" y="465"/>
      <point x="102" y="481" type="curve"/>
      <point x="128" y="447"/>
      <point x="164" y="426"/>
      <point x="195" y="402" type="curve" smooth="yes"/>
      <point x="276" y="343"/>
      <point x="287" y="300"/>
      <point x="287" y="261" type="curve" smooth="yes"/>
      <point x="287" y="224"/>
      <point x="275" y="181"/>
    </contour>
  </outline>
</glyph>
<glyph name="registered" format="2">
  <advance width="549"/>
  <unicode hex="00AE"/>
  <outline>
    <contour>
      <point x="276" y="-10" type="curve" smooth="yes"/>
      <point x="436" y="-10"/>
      <point x="512" y="142"/>
      <point x="512" y="359" type="curve" smooth="yes"/>
      <point x="512" y="573"/>
      <point x="437" y="725"/>
      <point x="278" y="725" type="curve" smooth="yes"/>
      <point x="116" y="725"/>
      <point x="36" y="574"/>
      <point x="36" y="358" type="curve" smooth="yes"/>
      <point x="36" y="147"/>
      <point x="112" y="-10"/>
    </contour>
    <contour>
      <point x="280" y="0" type="curve" smooth="yes"/>
      <point x="123" y="0"/>
      <point x="48" y="144"/>
      <point x="48" y="360" type="curve" smooth="yes"/>
      <point x="48" y="573"/>
      <point x="124" y="715"/>
      <point x="278" y="715" type="curve" smooth="yes"/>
      <point x="429" y="715"/>
      <point x="500" y="576"/>
      <point x="500" y="358" type="curve" smooth="yes"/>
      <point x="500" y="141"/>
      <point x="431" y="0"/>
    </contour>
    <contour>
      <point x="147" y="141" type="line"/>
      <point x="263" y="141" type="line"/>
      <point x="263" y="151" type="line"/>
      <point x="254" y="151" type="line" smooth="yes"/>
      <point x="225" y="151"/>
      <point x="223" y="155"/>
      <point x="223" y="189" type="curve" smooth="yes"/>
      <point x="223" y="346" type="line"/>
      <point x="269" y="346" type="line"/>
      <point x="347" y="141" type="line"/>
      <point x="408" y="141" type="line"/>
      <point x="408" y="151" type="line"/>
      <point x="382" y="151"/>
      <point x="381" y="156"/>
      <point x="370" y="184" type="curve" smooth="yes"/>
      <point x="306" y="347" type="line"/>
      <point x="334" y="358"/>
      <point x="370" y="385"/>
      <point x="370" y="454" type="curve" smooth="yes"/>
      <point x="370" y="533"/>
      <point x="334" y="571"/>
      <point x="258" y="571" type="curve" smooth="yes"/>
      <point x="147" y="571" type="line"/>
      <point x="147" y="561" type="line"/>
      <point x="154" y="561" type="line" smooth="yes"/>
      <point x="183" y="561"/>
      <point x="185" y="557"/>
      <point x="185" y="527" type="curve" smooth="yes"/>
      <point x="185" y="189" type="line" smooth="yes"/>
      <point x="185" y="155"/>
      <point x="183" y="151"/>
      <point x="154" y="151" type="curve" smooth="yes"/>
      <point x="147" y="151" type="line"/>
    </contour>
    <contour>
      <point x="223" y="356" type="line"/>
      <point x="223" y="561" type="line"/>
      <point x="258" y="561" type="line" smooth="yes"/>
      <point x="316" y="561"/>
      <point x="332" y="535"/>
      <point x="332" y="450" type="curve" smooth="yes"/>
      <point x="332" y="393"/>
      <point x="323" y="356"/>
      <point x="257" y="356" type="curve" smooth="yes"/>
    </contour>
  </outline>
</glyph>
<glyph name="thorn" format="2">
  <advance width="405"/>
  <unicode hex="00FE"/>
  <anchor x="203" y="-240" name="bottom"/>
  <anchor x="203" y="760" name="top"/>
  <outline>
    <contour>
      <point x="11" y="-245" type="line"/>
      <point x="196" y="-245" type="line"/>
      <point x="196" y="-235" type="line"/>
      <point x="199" y="-235" type="line" smooth="yes"/>
      <point x="146" y="-235"/>
      <point x="140" y="-222"/>
      <point x="140" y="-156" type="curve" smooth="yes"/>
      <point x="140" y="-39" type="line" smooth="yes"/>
      <point x="140" y="0"/>
      <point x="140" y="78"/>
      <point x="139" y="105" type="curve"/>
      <point x="139" y="105" type="line"/>
      <point x="154" y="25"/>
      <point x="181" y="-10"/>
      <point x="242" y="-10" type="curve" smooth="yes"/>
      <point x="322" y="-10"/>
      <point x="373" y="75"/>
      <point x="373" y="274" type="curve" smooth="yes"/>
      <point x="373" y="471"/>
      <point x="322" y="546"/>
      <point x="239" y="546" type="curve" smooth="yes"/>
      <point x="182" y="546"/>
      <point x="154" y="512"/>
      <point x="140" y="434" type="curve"/>
      <point x="138" y="434" type="line"/>
      <point x="140" y="518"/>
      <point x="140" y="540"/>
      <point x="140" y="584" type="curve" smooth="yes"/>
      <point x="140" y="760" type="line"/>
      <point x="17" y="760" type="line"/>
      <point x="17" y="750" type="line"/>
      <point x="4" y="750" type="line" smooth="yes"/>
      <point x="50" y="750"/>
      <point x="66" y="745"/>
      <point x="66" y="682" type="curve" smooth="yes"/>
      <point x="66" y="-156" type="line" smooth="yes"/>
      <point x="66" y="-222"/>
      <point x="61" y="-235"/>
      <point x="5" y="-235" type="curve" smooth="yes"/>
      <point x="11" y="-235" type="line"/>
    </contour>
    <contour>
      <point x="227" y="2" type="curve" smooth="yes"/>
      <point x="160" y="2"/>
      <point x="140" y="98"/>
      <point x="140" y="269" type="curve" smooth="yes"/>
      <point x="140" y="451"/>
      <point x="170" y="536"/>
      <point x="223" y="536" type="curve" smooth="yes"/>
      <point x="274" y="536"/>
      <point x="299" y="475"/>
      <point x="299" y="274" type="curve" smooth="yes"/>
      <point x="299" y="84"/>
      <point x="286" y="2"/>
    </contour>
  </outline>
</glyph>
<glyph name="eogonek" format="2">
  <advance width="356"/>
  <unicode hex="0119"/>
  <anchor x="178" y="-238" name="bottom"/>
  <anchor x="178" y="536" name="top"/>
  <outline>
    <contour>
      <point x="236" y="-235" type="curve" smooth="yes"/>
      <point x="254" y="-235"/>
      <point x="274" y="-231"/>
      <point x="287" y="-222" type="curve"/>
      <point x="287" y="-210" type="line"/>
      <point x="271" y="-219"/>
      <point x="254" y="-222"/>
      <point x="245" y="-222" type="curve" smooth="yes"/>
      <point x="212" y="-222"/>
      <point x="191" y="-195"/>
      <point x="191" y="-129" type="curve" smooth="yes"/>
      <point x="191" y="-47"/>
      <point x="220" y="-12"/>
      <point x="252" y="3" type="curve" smooth="yes"/>
      <point x="292" y="22"/>
      <point x="309" y="61"/>
      <point x="309" y="87" type="curve" smooth="yes"/>
      <point x="309" y="101"/>
      <point x="301" y="112"/>
      <point x="290" y="115" type="curve"/>
      <point x="282" y="36"/>
      <point x="249" y="2"/>
      <point x="204" y="2" type="curve" smooth="yes"/>
      <point x="139" y="2"/>
      <point x="107" y="74"/>
      <point x="106" y="281" type="curve"/>
      <point x="324" y="281" type="line"/>
      <point x="324" y="298" type="line" smooth="yes"/>
      <point x="324" y="452"/>
      <point x="277" y="545"/>
      <point x="183" y="545" type="curve" smooth="yes"/>
      <point x="89" y="545"/>
      <point x="34" y="450"/>
      <point x="34" y="263" type="curve" smooth="yes"/>
      <point x="34" y="90"/>
      <point x="88" y="-10"/>
      <point x="191" y="-10" type="curve" smooth="yes"/>
      <point x="207" y="-10"/>
      <point x="220" y="-8"/>
      <point x="227" y="-6" type="curve"/>
      <point x="188" y="-28"/>
      <point x="149" y="-66"/>
      <point x="149" y="-134" type="curve" smooth="yes"/>
      <point x="149" y="-199"/>
      <point x="189" y="-235"/>
    </contour>
    <contour>
      <point x="106" y="291" type="line"/>
      <point x="107" y="472"/>
      <point x="134" y="535"/>
      <point x="183" y="535" type="curve" smooth="yes"/>
      <point x="238" y="535"/>
      <point x="250" y="469"/>
      <point x="252" y="291" type="curve"/>
    </contour>
  </outline>
</glyph>
<glyph name="idotless" format="2">
  <advance width="215"/>
  <unicode hex="0131"/>
  <anchor x="108" y="0" name="bottom"/>
  <anchor x="108" y="536" name="top"/>
  <outline>
    <contour>
      <point x="13" y="0" type="line"/>
      <point x="205" y="0" type="line"/>
      <point x="205" y="10" type="line"/>
      <point x="200" y="10" type="line" smooth="yes"/>
      <point x="159" y="10"/>
      <point x="148" y="20"/>
      <point x="148" y="85" type="curve" smooth="yes"/>
      <point x="148" y="536" type="line"/>
      <point x="17" y="536" type="line"/>
      <point x="17" y="526" type="line"/>
      <point x="21" y="526" type="line" smooth="yes"/>
      <point x="66" y="526"/>
      <point x="75" y="514"/>
      <point x="75" y="450" type="curve" smooth="yes"/>
      <point x="75" y="85" type="line" smooth="yes"/>
      <point x="75" y="20"/>
      <point x="63" y="10"/>
      <point x="20" y="10" type="curve" smooth="yes"/>
      <point x="13" y="10" type="line"/>
    </contour>
  </outline>
</glyph>
<glyph name="longs" format="2">
  <advance width="254"/>
  <unicode hex="017F"/>
  <anchor x="127" y="0" name="bottom"/>
  <anchor x="164" y="771" name="top"/>
  <outline>
    <contour>
      <point x="8" y="0" type="line"/>
      <point x="220" y="0" type="line"/>
      <point x="220" y="10" type="line"/>
      <point x="186" y="10" type="line" smooth="yes"/>
      <point x="153" y="10"/>
      <point x="142" y="24"/>
      <point x="142" y="92" type="curve" smooth="yes"/>
      <point x="142" y="614" type="line" smooth="yes"/>
      <point x="142" y="707"/>
      <point x="150" y="761"/>
      <point x="199" y="761" type="curve" smooth="yes"/>
      <point x="229" y="761"/>
      <point x="234" y="734"/>
      <point x="234" y="647" type="curve"/>
      <point x="261" y="647"/>
      <point x="287" y="658"/>
      <point x="287" y="698" type="curve" smooth="yes"/>
      <point x="287" y="745"/>
      <point x="261" y="771"/>
      <point x="194" y="771" type="curve" smooth="yes"/>
      <point x="112" y="771"/>
      <point x="69" y="712"/>
      <point x="69" y="590" type="curve" smooth="yes"/>
      <point x="69" y="92" type="line" smooth="yes"/>
      <point x="69" y="23"/>
      <point x="58" y="10"/>
      <point x="24" y="10" type="curve" smooth="yes"/>
      <point x="8" y="10" type="line"/>
    </contour>
  </outline>
</glyph>
<glyph name="uni0191" format="2">
  <advance width="389"/>
  <unicode hex="0191"/>
  <anchor x="195" y="-240" name="bottom"/>
  <anchor x="195" y="714" name="top"/>
  <outline>
    <contour>
      <point x="-8" y="-240" type="line"/>
      <point x="2" y="-240" type="line" smooth="yes"/>
      <point x="117" y="-240"/>
      <point x="157" y="-172"/>
      <point x="157" y="-2" type="curve" smooth="yes"/>
      <point x="157" y="346" type="line"/>
      <point x="317" y="346" type="line"/>
      <point x="317" y="356" type="line"/>
      <point x="157" y="356" type="line"/>
      <point x="157" y="704" type="line"/>
      <point x="259" y="704" type="line" smooth="yes"/>
      <point x="330" y="704"/>
      <point x="350" y="682"/>
      <point x="353" y="601" type="curve" smooth="yes"/>
      <point x="354" y="543" type="line"/>
      <point x="364" y="543" type="line"/>
      <point x="359" y="714" type="line"/>
      <point x="23" y="714" type="line"/>
      <point x="23" y="704" type="line"/>
      <point x="37" y="704" type="line" smooth="yes"/>
      <point x="73" y="704"/>
      <point x="82" y="692"/>
      <point x="82" y="628" type="curve" smooth="yes"/>
      <point x="82" y="-27" type="line" smooth="yes"/>
      <point x="82" y="-188"/>
      <point x="51" y="-230"/>
      <point x="-6" y="-230" type="curve" smooth="yes"/>
      <point x="-8" y="-230" type="line"/>
    </contour>
  </outline>
</glyph>
<glyph name="uni019A" format="2">
  <advance width="211"/>
  <unicode hex="019A"/>
  <anchor x="106" y="0" name="bottom"/>
  <anchor x="106" y="760" name="top"/>
  <outline>
    <contour>
      <point x="9" y="0" type="line"/>
      <point x="201" y="0" type="line"/>
      <point x="201" y="10" type="line"/>
      <point x="208" y="10" type="line" smooth="yes"/>
      <point x="151" y="10"/>
      <point x="142" y="18"/>
      <point x="142" y="83" type="curve" smooth="yes"/>
      <point x="142" y="385" type="line"/>
      <point x="207" y="385" type="line"/>
      <point x="207" y="395" type="line"/>
      <point x="142" y="395" type="line"/>
      <point x="142" y="760" type="line"/>
      <point x="9" y="760" type="line"/>
      <point x="9" y="750" type="line"/>
      <point x="12" y="750" type="line" smooth="yes"/>
      <point x="50" y="750"/>
      <point x="68" y="745"/>
      <point x="68" y="679" type="curve" smooth="yes"/>
      <point x="68" y="395" type="line"/>
      <point x="4" y="395" type="line"/>
      <point x="4" y="385" type="line"/>
      <point x="68" y="385" type="line"/>
      <point x="68" y="83" type="line" smooth="yes"/>
      <point x="68" y="18"/>
      <point x="59" y="10"/>
      <point x="4" y="10" type="curve" smooth="yes"/>
      <point x="9" y="10" type="line"/>
    </contour>
  </outline>
</glyph>
<glyph name="uni019E" format="2">
  <advance width="422"/>
  <unicode hex="019E"/>
  <anchor x="221" y="-240" name="bottom"/>
  <anchor x="221" y="536" name="top"/>
  <outline>
    <contour>
      <point x="224" y="-240" type="line"/>
      <point x="409" y="-240" type="line"/>
      <point x="409" y="-230" type="line"/>
      <point x="414" y="-230" type="line" smooth="yes"/>
      <point x="362" y="-230"/>
      <point x="354" y="-218"/>
      <point x="354" y="-159" type="curve" smooth="yes"/>
      <point x="354" y="362" type="line" smooth="yes"/>
      <point x="354" y="490"/>
      <point x="321" y="545"/>
      <point x="245" y="545" type="curve" smooth="yes"/>
      <point x="188" y="545"/>
      <point x="161" y="503"/>
      <point x="147" y="449" type="curve"/>
      <point x="145" y="449" type="line"/>
      <point x="145" y="536" type="line"/>
      <point x="19" y="536" type="line"/>
      <point x="19" y="526" type="line"/>
      <point x="14" y="526" type="line" smooth="yes"/>
      <point x="68" y="526"/>
      <point x="73" y="515"/>
      <point x="73" y="451" type="curve" smooth="yes"/>
      <point x="73" y="84" type="line" smooth="yes"/>
      <point x="73" y="23"/>
      <point x="66" y="10"/>
      <point x="15" y="10" type="curve" smooth="yes"/>
      <point x="16" y="10" type="line"/>
      <point x="16" y="0" type="line"/>
      <point x="200" y="0" type="line"/>
      <point x="200" y="10" type="line"/>
      <point x="201" y="10" type="line" smooth="yes"/>
      <point x="153" y="10"/>
      <point x="146" y="22"/>
      <point x="146" y="83" type="curve" smooth="yes"/>
      <point x="146" y="339" type="line" smooth="yes"/>
      <point x="146" y="496"/>
      <point x="198" y="524"/>
      <point x="224" y="524" type="curve" smooth="yes"/>
      <point x="265" y="524"/>
      <point x="281" y="478"/>
      <point x="281" y="368" type="curve" smooth="yes"/>
      <point x="281" y="-157" type="line" smooth="yes"/>
      <point x="281" y="-217"/>
      <point x="274" y="-230"/>
      <point x="220" y="-230" type="curve" smooth="yes"/>
      <point x="224" y="-230" type="line"/>
    </contour>
  </outline>
</glyph>
<glyph name="uni01BE" format="2">
  <advance width="292"/>
  <unicode hex="01BE"/>
  <anchor x="136" y="0" name="bottom"/>
  <anchor x="136" y="658" name="top"/>
  <outline>
    <contour>
      <point x="136" y="-10" type="curve" smooth="yes"/>
      <point x="210" y="-10"/>
      <point x="262" y="28"/>
      <point x="262" y="134" type="curve" smooth="yes"/>
      <point x="262" y="191"/>
      <point x="248" y="230"/>
      <point x="199" y="273" type="curve" smooth="yes"/>
      <point x="161" y="308"/>
      <point x="155" y="337"/>
      <point x="155" y="409" type="curve" smooth="yes"/>
      <point x="155" y="526" type="line"/>
      <point x="240" y="526" type="line"/>
      <point x="240" y="536" type="line"/>
      <point x="155" y="536" type="line"/>
      <point x="155" y="658" type="line"/>
      <point x="145" y="658" type="line"/>
      <point x="137" y="621"/>
      <point x="132" y="589"/>
      <point x="107" y="563" type="curve" smooth="yes"/>
      <point x="93" y="547"/>
      <point x="58" y="538"/>
      <point x="31" y="536" type="curve"/>
      <point x="31" y="526" type="line"/>
      <point x="82" y="526" type="line"/>
      <point x="82" y="395" type="line" smooth="yes"/>
      <point x="82" y="309"/>
      <point x="90" y="268"/>
      <point x="146" y="224" type="curve" smooth="yes"/>
      <point x="184" y="191"/>
      <point x="203" y="161"/>
      <point x="203" y="109" type="curve" smooth="yes"/>
      <point x="203" y="32"/>
      <point x="180" y="0"/>
      <point x="136" y="0" type="curve" smooth="yes"/>
      <point x="77" y="0"/>
      <point x="63" y="48"/>
      <point x="63" y="154" type="curve"/>
      <point x="35" y="154"/>
      <point x="16" y="138"/>
      <point x="16" y="104" type="curve" smooth="yes"/>
      <point x="16" y="42"/>
      <point x="55" y="-10"/>
    </contour>
  </outline>
</glyph>
<glyph name="aringacute" format="2">
  <advance width="374"/>
  <unicode hex="01FB"/>
  <anchor x="188" y="0" name="bottom"/>
  <anchor x="188" y="960" name="top"/>
  <outline>
    <contour>
      <point x="128" y="-10" type="curve" smooth="yes"/>
      <point x="173" y="-10"/>
      <point x="212" y="15"/>
      <point x="231" y="95" type="curve"/>
      <point x="233" y="95" type="line"/>
      <point x="233" y="0" type="line"/>
      <point x="347" y="0" type="line"/>
      <point x="347" y="10" type="line"/>
      <point x="348" y="10" type="line" smooth="yes"/>
      <point x="317" y="10"/>
      <point x="304" y="19"/>
      <point x="304" y="85" type="curve" smooth="yes"/>
      <point x="304" y="363" type="line" smooth="yes"/>
      <point x="304" y="503"/>
      <point x="259" y="545"/>
      <point x="184" y="545" type="curve" smooth="yes"/>
      <point x="120" y="545"/>
      <point x="58" y="509"/>
      <point x="58" y="442" type="curve" smooth="yes"/>
      <point x="58" y="407"/>
      <point x="82" y="389"/>
      <point x="121" y="389" type="curve"/>
      <point x="121" y="502"/>
      <point x="143" y="535"/>
      <point x="177" y="535" type="curve" smooth="yes"/>
      <point x="208" y="535"/>
      <point x="231" y="510"/>
      <point x="231" y="392" type="curve" smooth="yes"/>
      <point x="231" y="302" type="line"/>
      <point x="178" y="299" type="line" smooth="yes"/>
      <point x="80" y="294"/>
      <point x="31" y="241"/>
      <point x="31" y="146" type="curve" smooth="yes"/>
      <point x="31" y="42"/>
      <point x="72" y="-10"/>
    </contour>
    <contour>
      <point x="155" y="11" type="curve" smooth="yes"/>
      <point x="121" y="11"/>
      <point x="106" y="44"/>
      <point x="106" y="148" type="curve" smooth="yes"/>
      <point x="106" y="244"/>
      <point x="134" y="285"/>
      <point x="194" y="290" type="curve" smooth="yes"/>
      <point x="231" y="292" type="line"/>
      <point x="231" y="188" type="line" smooth="yes"/>
      <point x="231" y="80"/>
      <point x="202" y="11"/>
    </contour>
    <contour>
      <point x="187" y="583" type="curve" smooth="yes"/>
      <point x="232" y="583"/>
      <point x="267" y="622"/>
      <point x="267" y="694" type="curve" smooth="yes"/>
      <point x="267" y="766"/>
      <point x="232" y="805"/>
      <point x="187" y="805" type="curve" smooth="yes"/>
      <point x="143" y="805"/>
      <point x="108" y="766"/>
      <point x="108" y="694" type="curve" smooth="yes"/>
      <point x="108" y="622"/>
      <point x="143" y="583"/>
    </contour>
    <contour>
      <point x="189" y="599" type="curve" smooth="yes"/>
      <point x="156" y="599"/>
      <point x="124" y="622"/>
      <point x="124" y="693" type="curve" smooth="yes"/>
      <point x="124" y="768"/>
      <point x="156" y="789"/>
      <point x="189" y="789" type="curve" smooth="yes"/>
      <point x="219" y="789"/>
      <point x="250" y="768"/>
      <point x="250" y="693" type="curve" smooth="yes"/>
      <point x="250" y="622"/>
      <point x="219" y="599"/>
    </contour>
    <contour>
      <point x="156" y="834" type="line"/>
      <point x="162" y="834" type="line"/>
      <point x="203" y="874"/>
      <point x="262" y="926"/>
      <point x="285" y="951" type="curve"/>
      <point x="285" y="960" type="line"/>
      <point x="225" y="960" type="line"/>
      <point x="207" y="929"/>
      <point x="182" y="887"/>
      <point x="156" y="844" type="curve"/>
    </contour>
  </outline>
</glyph>
<glyph name="uni0224" format="2">
  <advance width="401"/>
  <unicode hex="0224"/>
  <anchor x="201" y="-159" name="bottom"/>
  <anchor x="201" y="714" name="top"/>
  <outline>
    <contour>
      <point x="325" y="-156" type="curve"/>
      <point x="365" y="-150"/>
      <point x="388" y="-118"/>
      <point x="388" y="-76" type="curve" smooth="yes"/>
      <point x="388" y="-21"/>
      <point x="355" y="13"/>
      <point x="256" y="13" type="curve" smooth="yes"/>
      <point x="101" y="13" type="line"/>
      <point x="362" y="700" type="line"/>
      <point x="362" y="714" type="line"/>
      <point x="42" y="714" type="line"/>
      <point x="37" y="554" type="line"/>
      <point x="47" y="554" type="line"/>
      <point x="48" y="614" type="line" smooth="yes"/>
      <point x="49" y="678"/>
      <point x="72" y="701"/>
      <point x="141" y="701" type="curve" smooth="yes"/>
      <point x="281" y="701" type="line"/>
      <point x="22" y="17" type="line"/>
      <point x="22" y="0" type="line"/>
      <point x="256" y="0" type="line" smooth="yes"/>
      <point x="313" y="0"/>
      <point x="338" y="-24"/>
      <point x="338" y="-82" type="curve" smooth="yes"/>
      <point x="338" y="-113"/>
      <point x="331" y="-140"/>
    </contour>
  </outline>
</glyph>
<glyph name="jdotless" format="2">
  <advance width="209"/>
  <unicode hex="0237"/>
  <anchor x="105" y="-240" name="bottom"/>
  <anchor x="105" y="536" name="top"/>
  <outline>
    <contour>
      <point x="-6" y="-240" type="line"/>
      <point x="3" y="-240" type="line" smooth="yes"/>
      <point x="82" y="-240"/>
      <point x="145" y="-201"/>
      <point x="145" y="-18" type="curve" smooth="yes"/>
      <point x="145" y="536" type="line"/>
      <point x="15" y="536" type="line"/>
      <point x="15" y="526" type="line"/>
      <point x="17" y="526" type="line" smooth="yes"/>
      <point x="59" y="526"/>
      <point x="71" y="515"/>
      <point x="71" y="453" type="curve" smooth="yes"/>
      <point x="71" y="-46" type="line" smooth="yes"/>
      <point x="71" y="-190"/>
      <point x="44" y="-230"/>
      <point x="-3" y="-230" type="curve" smooth="yes"/>
      <point x="-6" y="-230" type="line"/>
    </contour>
  </outline>
</glyph>
<glyph name="uni023E" format="2">
  <advance width="408"/>
  <unicode hex="023E"/>
  <anchor x="202" y="0" name="bottom"/>
  <anchor x="202" y="714" name="top"/>
  <anchor x="417" y="714" name="topright"/>
  <anchor x="201" y="357" name="center"/>
  <outline>
    <contour>
      <point x="31" y="-59" type="line"/>
      <point x="42" y="-59" type="line"/>
      <point x="364" y="760" type="line"/>
      <point x="353" y="760" type="line"/>
    </contour>
    <component base="T" xOffset="-2"/>
  </outline>
</glyph>
<glyph name="uni023F" format="2">
  <advance width="298"/>
  <unicode hex="023F"/>
  <anchor x="150" y="-238" name="bottom"/>
  <anchor x="150" y="536" name="top"/>
  <anchor x="284" y="536" name="topright"/>
  <outline>
    <contour>
      <point x="230" y="-240" type="curve" smooth="yes"/>
      <point x="270" y="-240"/>
      <point x="299" y="-218"/>
      <point x="299" y="-173" type="curve" smooth="yes"/>
      <point x="299" y="-140"/>
      <point x="284" y="-122"/>
      <point x="262" y="-122" type="curve"/>
      <point x="262" y="-175"/>
      <point x="255" y="-195"/>
      <point x="229" y="-195" type="curve" smooth="yes"/>
      <point x="203" y="-195"/>
      <point x="190" y="-176"/>
      <point x="171" y="-114" type="curve" smooth="yes"/>
      <point x="150" y="-51"/>
      <point x="138" y="-33"/>
      <point x="90" y="-3" type="curve"/>
      <point x="73" y="6" type="line"/>
      <point x="119" y="-19"/>
      <point x="129" y="-51"/>
      <point x="145" y="-116" type="curve" smooth="yes"/>
      <point x="157" y="-166"/>
      <point x="157" y="-240"/>
    </contour>
    <component base="s"/>
  </outline>
</glyph>
<glyph name="uni0247" format="2">
  <advance width="356"/>
  <unicode hex="0247"/>
  <anchor x="178" y="-203" name="bottom"/>
  <anchor x="178" y="714" name="top"/>
  <anchor x="336" y="536" name="topright"/>
  <outline>
    <contour>
      <point x="99" y="-203" type="line"/>
      <point x="109" y="-203" type="line"/>
      <point x="254" y="714" type="line"/>
      <point x="244" y="714" type="line"/>
    </contour>
    <component base="e"/>
  </outline>
</glyph>
<glyph name="uni0253" format="2">
  <advance width="406"/>
  <unicode hex="0253"/>
  <anchor x="204" y="0" name="bottom"/>
  <anchor x="204" y="764" name="top"/>
  <outline>
    <contour>
      <point x="245" y="-10" type="curve" smooth="yes"/>
      <point x="320" y="-10"/>
      <point x="372" y="50"/>
      <point x="372" y="266" type="curve" smooth="yes"/>
      <point x="372" y="468"/>
      <point x="323" y="545"/>
      <point x="241" y="545" type="curve" smooth="yes"/>
      <point x="181" y="545"/>
      <point x="154" y="511"/>
      <point x="141" y="439" type="curve"/>
      <point x="139" y="439" type="line"/>
      <point x="141" y="501"/>
      <point x="142" y="535"/>
      <point x="142" y="570" type="curve" smooth="yes"/>
      <point x="142" y="613" type="line" smooth="yes"/>
      <point x="142" y="721"/>
      <point x="144" y="754"/>
      <point x="182" y="754" type="curve" smooth="yes"/>
      <point x="214" y="754"/>
      <point x="220" y="724"/>
      <point x="215" y="646" type="curve"/>
      <point x="254" y="646"/>
      <point x="267" y="667"/>
      <point x="267" y="696" type="curve" smooth="yes"/>
      <point x="267" y="729"/>
      <point x="246" y="764"/>
      <point x="180" y="764" type="curve" smooth="yes"/>
      <point x="100" y="764"/>
      <point x="68" y="709"/>
      <point x="68" y="580" type="curve" smooth="yes"/>
      <point x="68" y="82" type="line" smooth="yes"/>
      <point x="68" y="25"/>
      <point x="60" y="10"/>
      <point x="14" y="10" type="curve" smooth="yes"/>
      <point x="10" y="10" type="line"/>
      <point x="10" y="0" type="line"/>
      <point x="140" y="0" type="line"/>
      <point x="140" y="100" type="line"/>
      <point x="142" y="100" type="line"/>
      <point x="157" y="34"/>
      <point x="180" y="-10"/>
    </contour>
    <contour>
      <point x="230" y="2" type="curve" smooth="yes"/>
      <point x="178" y="2"/>
      <point x="140" y="72"/>
      <point x="140" y="265" type="curve" smooth="yes"/>
      <point x="140" y="461"/>
      <point x="169" y="535"/>
      <point x="228" y="535" type="curve" smooth="yes"/>
      <point x="280" y="535"/>
      <point x="298" y="469"/>
      <point x="298" y="264" type="curve" smooth="yes"/>
      <point x="298" y="48"/>
      <point x="275" y="2"/>
    </contour>
  </outline>
</glyph>
<glyph name="uni0258" format="2">
  <advance width="356"/>
  <unicode hex="0258"/>
  <anchor x="183" y="0" name="bottom"/>
  <anchor x="183" y="536" name="top"/>
  <outline>
    <contour>
      <point x="167" y="-10" type="curve" smooth="yes"/>
      <point x="269" y="-10"/>
      <point x="323" y="90"/>
      <point x="323" y="263" type="curve" smooth="yes"/>
      <point x="323" y="450"/>
      <point x="269" y="545"/>
      <point x="174" y="545" type="curve" smooth="yes"/>
      <point x="81" y="545"/>
      <point x="33" y="452"/>
      <point x="33" y="306" type="curve" smooth="yes"/>
      <point x="33" y="281" type="line"/>
      <point x="251" y="281" type="line"/>
      <point x="251" y="74"/>
      <point x="219" y="2"/>
      <point x="153" y="2" type="curve" smooth="yes"/>
      <point x="108" y="2"/>
      <point x="75" y="36"/>
      <point x="69" y="115" type="curve"/>
      <point x="55" y="113"/>
      <point x="48" y="101"/>
      <point x="48" y="87" type="curve" smooth="yes"/>
      <point x="48" y="50"/>
      <point x="80" y="-10"/>
    </contour>
    <contour>
      <point x="106" y="291" type="line"/>
      <point x="107" y="454"/>
      <point x="119" y="535"/>
      <point x="174" y="535" type="curve" smooth="yes"/>
      <point x="223" y="535"/>
      <point x="250" y="457"/>
      <point x="252" y="291" type="curve"/>
    </contour>
  </outline>
</glyph>
<glyph name="uni0260" format="2">
  <advance width="405"/>
  <unicode hex="0260"/>
  <anchor x="204" y="-239" name="bottom"/>
  <anchor x="204" y="764" name="top"/>
  <outline>
    <contour>
      <point x="188" y="-239" type="curve" smooth="yes"/>
      <point x="302" y="-239"/>
      <point x="335" y="-149"/>
      <point x="335" y="-16" type="curve" smooth="yes"/>
      <point x="335" y="623" type="line" smooth="yes"/>
      <point x="335" y="715"/>
      <point x="344" y="754"/>
      <point x="379" y="754" type="curve" smooth="yes"/>
      <point x="412" y="754"/>
      <point x="414" y="712"/>
      <point x="409" y="646" type="curve"/>
      <point x="449" y="646"/>
      <point x="461" y="669"/>
      <point x="461" y="696" type="curve" smooth="yes"/>
      <point x="461" y="724"/>
      <point x="447" y="764"/>
      <point x="378" y="764" type="curve" smooth="yes"/>
      <point x="300" y="764"/>
      <point x="262" y="712"/>
      <point x="262" y="584" type="curve" smooth="yes"/>
      <point x="262" y="541" type="line" smooth="yes"/>
      <point x="262" y="516"/>
      <point x="263" y="494"/>
      <point x="264" y="443" type="curve"/>
      <point x="262" y="443" type="line"/>
      <point x="249" y="518"/>
      <point x="223" y="545"/>
      <point x="166" y="545" type="curve" smooth="yes"/>
      <point x="93" y="545"/>
      <point x="34" y="478"/>
      <point x="34" y="266" type="curve" smooth="yes"/>
      <point x="34" y="58"/>
      <point x="86" y="-10"/>
      <point x="167" y="-10" type="curve" smooth="yes"/>
      <point x="217" y="-10"/>
      <point x="240" y="13"/>
      <point x="260" y="90" type="curve"/>
      <point x="262" y="90" type="line"/>
      <point x="262" y="42"/>
      <point x="262" y="6"/>
      <point x="262" y="-21" type="curve" smooth="yes"/>
      <point x="262" y="-82" type="line" smooth="yes"/>
      <point x="262" y="-199"/>
      <point x="228" y="-229"/>
      <point x="189" y="-229" type="curve" smooth="yes"/>
      <point x="130" y="-229"/>
      <point x="100" y="-194"/>
      <point x="100" y="-86" type="curve"/>
      <point x="67" y="-87"/>
      <point x="53" y="-111"/>
      <point x="53" y="-141" type="curve" smooth="yes"/>
      <point x="53" y="-198"/>
      <point x="91" y="-239"/>
    </contour>
    <contour>
      <point x="181" y="2" type="curve" smooth="yes"/>
      <point x="134" y="2"/>
      <point x="107" y="57"/>
      <point x="107" y="263" type="curve" smooth="yes"/>
      <point x="107" y="482"/>
      <point x="138" y="534"/>
      <point x="183" y="534" type="curve" smooth="yes"/>
      <point x="245" y="534"/>
      <point x="263" y="446"/>
      <point x="263" y="263" type="curve" smooth="yes"/>
      <point x="263" y="98"/>
      <point x="246" y="2"/>
    </contour>
  </outline>
</glyph>
<glyph name="uni0261" format="2">
  <advance width="404"/>
  <unicode hex="0261"/>
  <anchor x="202" y="-239" name="bottom"/>
  <anchor x="202" y="474" name="top"/>
  <outline>
    <contour>
      <point x="185" y="-239" type="curve" smooth="yes"/>
      <point x="293" y="-239"/>
      <point x="335" y="-163"/>
      <point x="335" y="10" type="curve" smooth="yes"/>
      <point x="335" y="457" type="line" smooth="yes"/>
      <point x="335" y="515"/>
      <point x="341" y="526"/>
      <point x="396" y="526" type="curve" smooth="yes"/>
      <point x="393" y="526" type="line"/>
      <point x="393" y="536" type="line"/>
      <point x="263" y="536" type="line"/>
      <point x="263" y="439" type="line"/>
      <point x="262" y="439" type="line"/>
      <point x="250" y="509"/>
      <point x="223" y="546"/>
      <point x="165" y="546" type="curve" smooth="yes"/>
      <point x="78" y="546"/>
      <point x="34" y="450"/>
      <point x="34" y="271" type="curve" smooth="yes"/>
      <point x="34" y="80"/>
      <point x="80" y="-2"/>
      <point x="166" y="-2" type="curve" smooth="yes"/>
      <point x="226" y="-2"/>
      <point x="247" y="39"/>
      <point x="262" y="106" type="curve"/>
      <point x="264" y="106" type="line"/>
      <point x="263" y="32"/>
      <point x="262" y="7"/>
      <point x="262" y="-21" type="curve" smooth="yes"/>
      <point x="262" y="-41" type="line" smooth="yes"/>
      <point x="262" y="-214"/>
      <point x="217" y="-229"/>
      <point x="187" y="-229" type="curve" smooth="yes"/>
      <point x="128" y="-229"/>
      <point x="100" y="-182"/>
      <point x="100" y="-86" type="curve"/>
      <point x="67" y="-87"/>
      <point x="53" y="-111"/>
      <point x="53" y="-140" type="curve" smooth="yes"/>
      <point x="53" y="-198"/>
      <point x="102" y="-239"/>
    </contour>
    <contour>
      <point x="178" y="10" type="curve" smooth="yes"/>
      <point x="126" y="10"/>
      <point x="107" y="67"/>
      <point x="107" y="269" type="curve" smooth="yes"/>
      <point x="107" y="455"/>
      <point x="118" y="536"/>
      <point x="182" y="536" type="curve" smooth="yes"/>
      <point x="240" y="536"/>
      <point x="263" y="439"/>
      <point x="263" y="269" type="curve" smooth="yes"/>
      <point x="263" y="126"/>
      <point x="255" y="10"/>
    </contour>
  </outline>
</glyph>
<glyph name="uni0265" format="2">
  <advance width="418"/>
  <unicode hex="0265"/>
  <anchor x="201" y="-236" name="bottom"/>
  <anchor x="201" y="536" name="top"/>
  <outline>
    <contour>
      <point x="264" y="-224" type="line"/>
      <point x="397" y="-224" type="line"/>
      <point x="397" y="-214" type="line"/>
      <point x="387" y="-214" type="line" smooth="yes"/>
      <point x="346" y="-214"/>
      <point x="338" y="-199"/>
      <point x="338" y="-143" type="curve" smooth="yes"/>
      <point x="338" y="452" type="line" smooth="yes"/>
      <point x="338" y="513"/>
      <point x="346" y="526"/>
      <point x="394" y="526" type="curve" smooth="yes"/>
      <point x="394" y="526" type="line"/>
      <point x="394" y="536" type="line"/>
      <point x="213" y="536" type="line"/>
      <point x="213" y="526" type="line"/>
      <point x="211" y="526" type="line" smooth="yes"/>
      <point x="257" y="526"/>
      <point x="265" y="514"/>
      <point x="265" y="453" type="curve" smooth="yes"/>
      <point x="265" y="193" type="line" smooth="yes"/>
      <point x="265" y="59"/>
      <point x="240" y="12"/>
      <point x="193" y="12" type="curve" smooth="yes"/>
      <point x="143" y="12"/>
      <point x="129" y="59"/>
      <point x="129" y="165" type="curve" smooth="yes"/>
      <point x="129" y="536" type="line"/>
      <point x="7" y="536" type="line"/>
      <point x="7" y="526" type="line"/>
      <point x="9" y="526" type="line" smooth="yes"/>
      <point x="48" y="526"/>
      <point x="56" y="510"/>
      <point x="56" y="454" type="curve" smooth="yes"/>
      <point x="56" y="175" type="line" smooth="yes"/>
      <point x="56" y="53"/>
      <point x="97" y="-9"/>
      <point x="165" y="-9" type="curve" smooth="yes"/>
      <point x="220" y="-9"/>
      <point x="254" y="28"/>
      <point x="264" y="79" type="curve"/>
      <point x="266" y="79" type="line"/>
      <point x="264" y="38"/>
      <point x="264" y="35"/>
      <point x="264" y="23" type="curve" smooth="yes"/>
    </contour>
  </outline>
</glyph>
<glyph name="uni0266" format="2">
  <advance width="418"/>
  <unicode hex="0266"/>
  <anchor x="209" y="0" name="bottom"/>
  <anchor x="209" y="764" name="top"/>
  <outline>
    <contour>
      <point x="12" y="0" type="line"/>
      <point x="193" y="0" type="line"/>
      <point x="193" y="10" type="line"/>
      <point x="195" y="10" type="line" smooth="yes"/>
      <point x="149" y="10"/>
      <point x="141" y="22"/>
      <point x="141" y="83" type="curve" smooth="yes"/>
      <point x="141" y="343" type="line" smooth="yes"/>
      <point x="141" y="477"/>
      <point x="167" y="524"/>
      <point x="213" y="524" type="curve" smooth="yes"/>
      <point x="263" y="524"/>
      <point x="277" y="477"/>
      <point x="277" y="371" type="curve" smooth="yes"/>
      <point x="277" y="0" type="line"/>
      <point x="400" y="0" type="line"/>
      <point x="400" y="10" type="line"/>
      <point x="398" y="10" type="line" smooth="yes"/>
      <point x="358" y="10"/>
      <point x="350" y="26"/>
      <point x="350" y="82" type="curve" smooth="yes"/>
      <point x="350" y="361" type="line" smooth="yes"/>
      <point x="350" y="483"/>
      <point x="309" y="545"/>
      <point x="241" y="545" type="curve" smooth="yes"/>
      <point x="179" y="545"/>
      <point x="154" y="505"/>
      <point x="142" y="458" type="curve"/>
      <point x="140" y="458" type="line"/>
      <point x="142" y="470"/>
      <point x="142" y="501"/>
      <point x="142" y="513" type="curve" smooth="yes"/>
      <point x="142" y="624" type="line" smooth="yes"/>
      <point x="142" y="717"/>
      <point x="147" y="754"/>
      <point x="182" y="754" type="curve" smooth="yes"/>
      <point x="218" y="754"/>
      <point x="214" y="705"/>
      <point x="209" y="646" type="curve"/>
      <point x="254" y="646"/>
      <point x="267" y="669"/>
      <point x="267" y="695" type="curve" smooth="yes"/>
      <point x="267" y="732"/>
      <point x="245" y="764"/>
      <point x="178" y="764" type="curve" smooth="yes"/>
      <point x="102" y="764"/>
      <point x="68" y="712"/>
      <point x="68" y="587" type="curve" smooth="yes"/>
      <point x="68" y="84" type="line" smooth="yes"/>
      <point x="68" y="23"/>
      <point x="61" y="10"/>
      <point x="12" y="10" type="curve" smooth="yes"/>
      <point x="12" y="10" type="line"/>
    </contour>
  </outline>
</glyph>
<glyph name="uni0272" format="2">
  <advance width="424"/>
  <unicode hex="0272"/>
  <anchor x="213" y="-239" name="bottom"/>
  <anchor x="213" y="536" name="top"/>
  <outline>
    <contour>
      <point x="27" y="-239" type="curve" smooth="yes"/>
      <point x="111" y="-239"/>
      <point x="147" y="-173"/>
      <point x="147" y="-12" type="curve" smooth="yes"/>
      <point x="147" y="339" type="line" smooth="yes"/>
      <point x="147" y="496"/>
      <point x="199" y="524"/>
      <point x="224" y="524" type="curve" smooth="yes"/>
      <point x="265" y="524"/>
      <point x="282" y="478"/>
      <point x="282" y="365" type="curve" smooth="yes"/>
      <point x="282" y="0" type="line"/>
      <point x="404" y="0" type="line"/>
      <point x="404" y="10" type="line"/>
      <point x="405" y="10" type="line" smooth="yes"/>
      <point x="364" y="10"/>
      <point x="354" y="23"/>
      <point x="354" y="84" type="curve" smooth="yes"/>
      <point x="354" y="362" type="line" smooth="yes"/>
      <point x="354" y="490"/>
      <point x="321" y="545"/>
      <point x="246" y="545" type="curve" smooth="yes"/>
      <point x="188" y="545"/>
      <point x="161" y="503"/>
      <point x="147" y="448" type="curve"/>
      <point x="145" y="448" type="line"/>
      <point x="145" y="536" type="line"/>
      <point x="19" y="536" type="line"/>
      <point x="19" y="526" type="line"/>
      <point x="15" y="526" type="line" smooth="yes"/>
      <point x="67" y="526"/>
      <point x="73" y="515"/>
      <point x="73" y="454" type="curve" smooth="yes"/>
      <point x="73" y="-60" type="line" smooth="yes"/>
      <point x="73" y="-179"/>
      <point x="75" y="-229"/>
      <point x="30" y="-229" type="curve" smooth="yes"/>
      <point x="-9" y="-229"/>
      <point x="-6" y="-188"/>
      <point x="-2" y="-116" type="curve"/>
      <point x="-44" y="-115"/>
      <point x="-59" y="-142"/>
      <point x="-59" y="-167" type="curve" smooth="yes"/>
      <point x="-59" y="-206"/>
      <point x="-27" y="-239"/>
    </contour>
  </outline>
</glyph>
<glyph name="uni027A" format="2">
  <advance width="317"/>
  <unicode hex="027A"/>
  <anchor x="158" y="0" name="bottom"/>
  <anchor x="158" y="760" name="top"/>
  <outline>
    <contour>
      <point x="74" y="-9" type="curve" smooth="yes"/>
      <point x="132" y="-9"/>
      <point x="151" y="33"/>
      <point x="168" y="103" type="curve"/>
      <point x="170" y="103" type="line"/>
      <point x="170" y="0" type="line"/>
      <point x="298" y="0" type="line"/>
      <point x="298" y="10" type="line"/>
      <point x="310" y="10" type="line" smooth="yes"/>
      <point x="252" y="10"/>
      <point x="244" y="21"/>
      <point x="244" y="79" type="curve" smooth="yes"/>
      <point x="244" y="760" type="line"/>
      <point x="105" y="760" type="line"/>
      <point x="105" y="750" type="line"/>
      <point x="96" y="750" type="line" smooth="yes"/>
      <point x="159" y="750"/>
      <point x="170" y="738"/>
      <point x="170" y="679" type="curve" smooth="yes"/>
      <point x="170" y="242" type="line" smooth="yes"/>
      <point x="170" y="81"/>
      <point x="139" y="15"/>
      <point x="98" y="15" type="curve" smooth="yes"/>
      <point x="70" y="15"/>
      <point x="65" y="42"/>
      <point x="65" y="122" type="curve"/>
      <point x="27" y="122"/>
      <point x="8" y="99"/>
      <point x="8" y="59" type="curve" smooth="yes"/>
      <point x="8" y="17"/>
      <point x="29" y="-9"/>
    </contour>
  </outline>
</glyph>
<glyph name="uni027B" format="2">
  <advance width="318"/>
  <unicode hex="027B"/>
  <anchor x="159" y="-240" name="bottom"/>
  <anchor x="159" y="536" name="top"/>
  <outline>
    <contour>
      <point x="270" y="-240" type="curve" smooth="yes"/>
      <point x="304" y="-240"/>
      <point x="321" y="-234"/>
      <point x="338" y="-225" type="curve"/>
      <point x="338" y="-214" type="line"/>
      <point x="325" y="-221"/>
      <point x="308" y="-227"/>
      <point x="297" y="-227" type="curve" smooth="yes"/>
      <point x="262" y="-227"/>
      <point x="244" y="-194"/>
      <point x="244" y="-92" type="curve" smooth="yes"/>
      <point x="244" y="454" type="line" smooth="yes"/>
      <point x="244" y="511"/>
      <point x="250" y="523"/>
      <point x="306" y="523" type="curve" smooth="yes"/>
      <point x="298" y="523" type="line"/>
      <point x="298" y="533" type="line"/>
      <point x="102" y="533" type="line"/>
      <point x="102" y="523" type="line"/>
      <point x="96" y="523" type="line" smooth="yes"/>
      <point x="161" y="523"/>
      <point x="170" y="511"/>
      <point x="170" y="452" type="curve" smooth="yes"/>
      <point x="170" y="240" type="line" smooth="yes"/>
      <point x="170" y="82"/>
      <point x="141" y="12"/>
      <point x="99" y="12" type="curve" smooth="yes"/>
      <point x="73" y="12"/>
      <point x="67" y="36"/>
      <point x="67" y="119" type="curve"/>
      <point x="27" y="119"/>
      <point x="8" y="96"/>
      <point x="8" y="55" type="curve" smooth="yes"/>
      <point x="8" y="14"/>
      <point x="29" y="-12"/>
      <point x="74" y="-12" type="curve" smooth="yes"/>
      <point x="132" y="-12"/>
      <point x="152" y="29"/>
      <point x="169" y="103" type="curve"/>
      <point x="171" y="103" type="line"/>
      <point x="170" y="66"/>
      <point x="170" y="28"/>
      <point x="170" y="-10" type="curve" smooth="yes"/>
      <point x="170" y="-89" type="line" smooth="yes"/>
      <point x="170" y="-196"/>
      <point x="202" y="-240"/>
    </contour>
  </outline>
</glyph>
<glyph name="uni027E" format="2">
  <advance width="313"/>
  <unicode hex="027E"/>
  <anchor x="157" y="0" name="bottom"/>
  <anchor x="157" y="536" name="top"/>
  <outline>
    <contour>
      <point x="16" y="0" type="line"/>
      <point x="200" y="0" type="line"/>
      <point x="200" y="10" type="line"/>
      <point x="199" y="10" type="line" smooth="yes"/>
      <point x="146" y="10"/>
      <point x="140" y="22"/>
      <point x="140" y="84" type="curve" smooth="yes"/>
      <point x="140" y="389" type="line" smooth="yes"/>
      <point x="140" y="488"/>
      <point x="156" y="535"/>
      <point x="202" y="535" type="curve" smooth="yes"/>
      <point x="246" y="535"/>
      <point x="240" y="491"/>
      <point x="240" y="413" type="curve"/>
      <point x="279" y="413"/>
      <point x="299" y="431"/>
      <point x="299" y="467" type="curve" smooth="yes"/>
      <point x="299" y="510"/>
      <point x="275" y="545"/>
      <point x="203" y="545" type="curve" smooth="yes"/>
      <point x="114" y="545"/>
      <point x="66" y="486"/>
      <point x="66" y="359" type="curve" smooth="yes"/>
      <point x="66" y="86" type="line" smooth="yes"/>
      <point x="66" y="21"/>
      <point x="60" y="10"/>
      <point x="9" y="10" type="curve" smooth="yes"/>
      <point x="16" y="10" type="line"/>
    </contour>
  </outline>
</glyph>
<glyph name="uni0288" format="2">
  <advance width="243"/>
  <unicode hex="0288"/>
  <anchor x="122" y="-240" name="bottom"/>
  <anchor x="122" y="658" name="top"/>
  <outline>
    <contour>
      <point x="163" y="-240" type="curve" smooth="yes"/>
      <point x="191" y="-240"/>
      <point x="215" y="-232"/>
      <point x="229" y="-227" type="curve"/>
      <point x="229" y="-217" type="line"/>
      <point x="210" y="-222"/>
      <point x="199" y="-223"/>
      <point x="188" y="-223" type="curve" smooth="yes"/>
      <point x="154" y="-223"/>
      <point x="136" y="-200"/>
      <point x="136" y="-117" type="curve" smooth="yes"/>
      <point x="136" y="526" type="line"/>
      <point x="221" y="526" type="line"/>
      <point x="221" y="536" type="line"/>
      <point x="136" y="536" type="line"/>
      <point x="136" y="658" type="line"/>
      <point x="126" y="658" type="line"/>
      <point x="124" y="621"/>
      <point x="116" y="586"/>
      <point x="92" y="563" type="curve" smooth="yes"/>
      <point x="76" y="548"/>
      <point x="53" y="538"/>
      <point x="13" y="536" type="curve"/>
      <point x="13" y="526" type="line"/>
      <point x="62" y="526" type="line"/>
      <point x="62" y="-86" type="line" smooth="yes"/>
      <point x="62" y="-204"/>
      <point x="96" y="-240"/>
    </contour>
  </outline>
</glyph>
<glyph name="uni02AB" format="2">
  <advance width="454"/>
  <unicode hex="02AB"/>
  <anchor x="227" y="0" name="bottom"/>
  <anchor x="227" y="760" name="top"/>
  <outline>
    <contour>
      <point x="9" y="0" type="line"/>
      <point x="411" y="0" type="line"/>
      <point x="416" y="152" type="line"/>
      <point x="406" y="152" type="line"/>
      <point x="404" y="102" type="line" smooth="yes"/>
      <point x="401" y="37"/>
      <point x="380" y="13"/>
      <point x="310" y="13" type="curve" smooth="yes"/>
      <point x="213" y="13" type="line"/>
      <point x="410" y="515" type="line"/>
      <point x="410" y="536" type="line"/>
      <point x="142" y="536" type="line"/>
      <point x="142" y="760" type="line"/>
      <point x="9" y="760" type="line"/>
      <point x="9" y="750" type="line"/>
      <point x="10" y="750" type="line" smooth="yes"/>
      <point x="51" y="750"/>
      <point x="68" y="745"/>
      <point x="68" y="679" type="curve" smooth="yes"/>
      <point x="68" y="83" type="line" smooth="yes"/>
      <point x="68" y="18"/>
      <point x="58" y="10"/>
      <point x="4" y="10" type="curve" smooth="yes"/>
      <point x="9" y="10" type="line"/>
    </contour>
    <contour>
      <point x="142" y="23" type="line"/>
      <point x="142" y="523" type="line"/>
      <point x="340" y="523" type="line"/>
    </contour>
  </outline>
</glyph>
<glyph name="uni02C2" format="2">
  <advance width="186"/>
  <unicode hex="02C2"/>
  <outline>
    <contour>
      <point x="162" y="522" type="curve"/>
      <point x="166" y="522" type="line"/>
      <point x="166" y="536" type="line"/>
      <point x="127" y="588"/>
      <point x="111" y="618"/>
      <point x="63" y="656" type="curve"/>
      <point x="111" y="695"/>
      <point x="127" y="725"/>
      <point x="166" y="775" type="curve"/>
      <point x="166" y="789" type="line"/>
      <point x="162" y="789" type="line"/>
      <point x="120" y="738"/>
      <point x="59" y="695"/>
      <point x="19" y="672" type="curve"/>
      <point x="19" y="638" type="line"/>
      <point x="69" y="609"/>
      <point x="119" y="572"/>
    </contour>
  </outline>
</glyph>
<glyph name="tilde" format="2">
  <advance width="322"/>
  <unicode hex="02DC"/>
  <outline>
    <contour>
      <point x="207" y="601" type="curve" smooth="yes"/>
      <point x="254" y="601"/>
      <point x="272" y="657"/>
      <point x="282" y="712" type="curve"/>
      <point x="272" y="712" type="line"/>
      <point x="261" y="669"/>
      <point x="255" y="650"/>
      <point x="232" y="650" type="curve" smooth="yes"/>
      <point x="174" y="650"/>
      <point x="162" y="725"/>
      <point x="111" y="725" type="curve" smooth="yes"/>
      <point x="65" y="725"/>
      <point x="50" y="670"/>
      <point x="40" y="616" type="curve"/>
      <point x="50" y="616" type="line"/>
      <point x="59" y="661"/>
      <point x="67" y="676"/>
      <point x="85" y="676" type="curve" smooth="yes"/>
      <point x="140" y="676"/>
      <point x="152" y="601"/>
    </contour>
  </outline>
</glyph>
<glyph name="hungarumlaut" format="2">
  <advance width="300"/>
  <unicode hex="02DD"/>
  <outline>
    <contour>
      <point x="40" y="606" type="line"/>
      <point x="47" y="606" type="line"/>
      <point x="79" y="649"/>
      <point x="127" y="722"/>
      <point x="146" y="756" type="curve"/>
      <point x="146" y="766" type="line"/>
      <point x="99" y="766" type="line"/>
      <point x="85" y="722"/>
      <point x="66" y="671"/>
      <point x="40" y="614" type="curve"/>
    </contour>
    <contour>
      <point x="153" y="606" type="line"/>
      <point x="160" y="606" type="line"/>
      <point x="194" y="649"/>
      <point x="241" y="722"/>
      <point x="260" y="756" type="curve"/>
      <point x="260" y="766" type="line"/>
      <point x="213" y="766" type="line"/>
      <point x="198" y="722"/>
      <point x="179" y="671"/>
      <point x="153" y="614" type="curve"/>
    </contour>
  </outline>
</glyph>
<glyph name="hookpalatalizedbelowcomb" format="2">
  <unicode hex="0321"/>
  <anchor x="-26" y="0" name="_bottom"/>
  <anchor x="-26" y="-195" name="bottom"/>
  <outline>
    <contour>
      <point x="-6" y="-200" type="curve" smooth="yes"/>
      <point x="40" y="-200"/>
      <point x="57" y="-166"/>
      <point x="57" y="-78" type="curve" smooth="yes"/>
      <point x="57" y="46" type="line"/>
      <point x="47" y="46" type="line"/>
      <point x="47" y="-80" type="line" smooth="yes"/>
      <point x="47" y="-133"/>
      <point x="35" y="-150"/>
      <point x="-4" y="-150" type="curve" smooth="yes"/>
      <point x="-34" y="-150"/>
      <point x="-49" y="-134"/>
      <point x="-48" y="-112" type="curve"/>
      <point x="-57" y="-116"/>
      <point x="-62" y="-130"/>
      <point x="-62" y="-146" type="curve" smooth="yes"/>
      <point x="-62" y="-181"/>
      <point x="-43" y="-200"/>
    </contour>
  </outline>
</glyph>
<glyph name="ogonekcomb" format="2">
  <unicode hex="0328"/>
  <anchor x="-4" y="0" name="_bottom"/>
  <outline>
    <contour>
      <point x="12" y="-235" type="curve" smooth="yes"/>
      <point x="29" y="-235"/>
      <point x="49" y="-231"/>
      <point x="63" y="-222" type="curve"/>
      <point x="63" y="-210" type="line"/>
      <point x="47" y="-219"/>
      <point x="29" y="-222"/>
      <point x="21" y="-222" type="curve" smooth="yes"/>
      <point x="-13" y="-222"/>
      <point x="-34" y="-195"/>
      <point x="-34" y="-129" type="curve" smooth="yes"/>
      <point x="-34" y="-41"/>
      <point x="-2" y="-13"/>
      <point x="32" y="0" type="curve"/>
      <point x="11" y="0" type="line"/>
      <point x="-42" y="-23"/>
      <point x="-76" y="-61"/>
      <point x="-76" y="-132" type="curve" smooth="yes"/>
      <point x="-76" y="-200"/>
      <point x="-38" y="-235"/>
    </contour>
  </outline>
</glyph>
<glyph name="arrowheadleftbelowcomb" format="2">
  <unicode hex="0354"/>
  <anchor x="0" y="0" name="_bottom"/>
  <anchor x="0" y="-240" name="bottom"/>
  <outline>
    <contour>
      <point x="71" y="-240" type="curve"/>
      <point x="76" y="-240" type="line"/>
      <point x="76" y="-218" type="line"/>
      <point x="57" y="-201"/>
      <point x="16" y="-166"/>
      <point x="-50" y="-136" type="curve"/>
      <point x="16" y="-107"/>
      <point x="57" y="-72"/>
      <point x="76" y="-55" type="curve"/>
      <point x="76" y="-33" type="line"/>
      <point x="71" y="-33" type="line"/>
      <point x="25" y="-73"/>
      <point x="-14" y="-102"/>
      <point x="-76" y="-127" type="curve"/>
      <point x="-76" y="-146" type="line"/>
      <point x="-14" y="-171"/>
      <point x="25" y="-200"/>
    </contour>
  </outline>
</glyph>
<glyph name="anoteleia" format="2">
  <advance width="196"/>
  <unicode hex="0387"/>
  <outline>
    <contour>
      <point x="98" y="414" type="curve" smooth="yes"/>
      <point x="120" y="414"/>
      <point x="133" y="431"/>
      <point x="133" y="469" type="curve" smooth="yes"/>
      <point x="133" y="509"/>
      <point x="120" y="524"/>
      <point x="98" y="524" type="curve" smooth="yes"/>
      <point x="74" y="524"/>
      <point x="61" y="509"/>
      <point x="61" y="469" type="curve" smooth="yes"/>
      <point x="61" y="431"/>
      <point x="74" y="414"/>
    </contour>
  </outline>
</glyph>
<glyph name="Gamma" format="2">
  <advance width="359"/>
  <unicode hex="0393"/>
  <anchor x="180" y="0" name="bottom"/>
  <anchor x="180" y="714" name="top"/>
  <outline>
    <contour>
      <point x="23" y="0" type="line"/>
      <point x="231" y="0" type="line"/>
      <point x="231" y="10" type="line"/>
      <point x="206" y="10" type="line" smooth="yes"/>
      <point x="164" y="10"/>
      <point x="157" y="23"/>
      <point x="157" y="86" type="curve" smooth="yes"/>
      <point x="157" y="704" type="line"/>
      <point x="256" y="704" type="line" smooth="yes"/>
      <point x="330" y="704"/>
      <point x="344" y="676"/>
      <point x="347" y="595" type="curve" smooth="yes"/>
      <point x="348" y="546" type="line"/>
      <point x="358" y="546" type="line"/>
      <point x="353" y="714" type="line"/>
      <point x="23" y="714" type="line"/>
      <point x="23" y="704" type="line"/>
      <point x="36" y="704" type="line" smooth="yes"/>
      <point x="73" y="704"/>
      <point x="82" y="692"/>
      <point x="82" y="629" type="curve" smooth="yes"/>
      <point x="82" y="85" type="line" smooth="yes"/>
      <point x="82" y="21"/>
      <point x="74" y="10"/>
      <point x="33" y="10" type="curve" smooth="yes"/>
      <point x="23" y="10" type="line"/>
    </contour>
  </outline>
</glyph>
<glyph name="Pi" format="2">
  <advance width="506"/>
  <unicode hex="03A0"/>
  <anchor x="254" y="0" name="bottom"/>
  <anchor x="254" y="714" name="top"/>
  <outline>
    <contour>
      <point x="23" y="0" type="line"/>
      <point x="219" y="0" type="line"/>
      <point x="219" y="10" type="line"/>
      <point x="208" y="10" type="line" smooth="yes"/>
      <point x="164" y="10"/>
      <point x="158" y="25"/>
      <point x="158" y="89" type="curve" smooth="yes"/>
      <point x="158" y="704" type="line"/>
      <point x="347" y="704" type="line"/>
      <point x="347" y="89" type="line" smooth="yes"/>
      <point x="347" y="25"/>
      <point x="341" y="10"/>
      <point x="298" y="10" type="curve" smooth="yes"/>
      <point x="286" y="10" type="line"/>
      <point x="286" y="0" type="line"/>
      <point x="485" y="0" type="line"/>
      <point x="485" y="10" type="line"/>
      <point x="472" y="10" type="line" smooth="yes"/>
      <point x="427" y="10"/>
      <point x="422" y="24"/>
      <point x="422" y="87" type="curve" smooth="yes"/>
      <point x="422" y="626" type="line" smooth="yes"/>
      <point x="422" y="689"/>
      <point x="428" y="704"/>
      <point x="471" y="704" type="curve" smooth="yes"/>
      <point x="485" y="704" type="line"/>
      <point x="485" y="714" type="line"/>
      <point x="23" y="714" type="line"/>
      <point x="23" y="704" type="line"/>
      <point x="33" y="704" type="line" smooth="yes"/>
      <point x="77" y="704"/>
      <point x="83" y="690"/>
      <point x="83" y="627" type="curve" smooth="yes"/>
      <point x="83" y="89" type="line" smooth="yes"/>
      <point x="83" y="25"/>
      <point x="78" y="10"/>
      <point x="31" y="10" type="curve" smooth="yes"/>
      <point x="23" y="10" type="line"/>
    </contour>
  </outline>
</glyph>
<glyph name="sigma" format="2">
  <advance width="402"/>
  <unicode hex="03C3"/>
  <anchor x="202" y="0" name="bottom"/>
  <anchor x="202" y="536" name="top"/>
  <outline>
    <contour>
      <point x="193" y="-10" type="curve" smooth="yes"/>
      <point x="301" y="-10"/>
      <point x="353" y="83"/>
      <point x="353" y="250" type="curve" smooth="yes"/>
      <point x="353" y="338"/>
      <point x="311" y="428"/>
      <point x="269" y="475" type="curve"/>
      <point x="393" y="475" type="line"/>
      <point x="393" y="536" type="line"/>
      <point x="251" y="536" type="line" smooth="yes"/>
      <point x="121" y="536"/>
      <point x="34" y="447"/>
      <point x="34" y="254" type="curve" smooth="yes"/>
      <point x="34" y="78"/>
      <point x="93" y="-10"/>
    </contour>
    <contour>
      <point x="198" y="0" type="curve" smooth="yes"/>
      <point x="134" y="0"/>
      <point x="108" y="63"/>
      <point x="108" y="238" type="curve" smooth="yes"/>
      <point x="108" y="400"/>
      <point x="155" y="475"/>
      <point x="239" y="475" type="curve" smooth="yes"/>
      <point x="246" y="475" type="line"/>
      <point x="280" y="407"/>
      <point x="281" y="315"/>
      <point x="281" y="239" type="curve" smooth="yes"/>
      <point x="281" y="74"/>
      <point x="259" y="0"/>
    </contour>
  </outline>
</glyph>
<glyph name="phi1" format="2">
  <advance width="462"/>
  <unicode hex="03D5"/>
  <anchor x="231" y="-240" name="bottom"/>
  <anchor x="231" y="760" name="top"/>
  <anchor x="442" y="536" name="topright"/>
  <outline>
    <contour>
      <point x="217" y="-240" type="line"/>
      <point x="246" y="-240" type="line"/>
      <point x="246" y="-9" type="line"/>
      <point x="362" y="-1"/>
      <point x="427" y="86"/>
      <point x="427" y="269" type="curve" smooth="yes"/>
      <point x="427" y="442"/>
      <point x="367" y="535"/>
      <point x="246" y="545" type="curve"/>
      <point x="246" y="760" type="line"/>
      <point x="217" y="760" type="line"/>
      <point x="217" y="545" type="line"/>
      <point x="88" y="535"/>
      <point x="33" y="440"/>
      <point x="33" y="269" type="curve" smooth="yes"/>
      <point x="33" y="94"/>
      <point x="97" y="1"/>
      <point x="217" y="-9" type="curve"/>
    </contour>
    <contour>
      <point x="217" y="1" type="line"/>
      <point x="152" y="11"/>
      <point x="108" y="81"/>
      <point x="108" y="269" type="curve" smooth="yes"/>
      <point x="108" y="440"/>
      <point x="143" y="524"/>
      <point x="217" y="535" type="curve"/>
    </contour>
    <contour>
      <point x="246" y="1" type="curve"/>
      <point x="246" y="534" type="line"/>
      <point x="318" y="524"/>
      <point x="352" y="437"/>
      <point x="352" y="269" type="curve" smooth="yes"/>
      <point x="352" y="77"/>
      <point x="311" y="11"/>
    </contour>
  </outline>
</glyph>
<glyph name="uni03DA" format="2">
  <advance width="409"/>
  <unicode hex="03DA"/>
  <anchor x="205" y="0" name="bottom"/>
  <anchor x="205" y="714" name="top"/>
  <outline>
    <contour>
      <point x="140" y="0" type="line"/>
      <point x="342" y="0" type="line"/>
      <point x="342" y="10" type="line"/>
      <point x="338" y="10" type="line" smooth="yes"/>
      <point x="292" y="10"/>
      <point x="282" y="21"/>
      <point x="282" y="90" type="curve" smooth="yes"/>
      <point x="282" y="147" type="line"/>
      <point x="262" y="147" type="line" smooth="yes"/>
      <point x="163" y="147"/>
      <point x="119" y="266"/>
      <point x="119" y="428" type="curve" smooth="yes"/>
      <point x="119" y="591"/>
      <point x="155" y="714"/>
      <point x="255" y="714" type="curve" smooth="yes"/>
      <point x="309" y="714"/>
      <point x="335" y="656"/>
      <point x="335" y="549" type="curve"/>
      <point x="372" y="549"/>
      <point x="394" y="567"/>
      <point x="394" y="610" type="curve" smooth="yes"/>
      <point x="394" y="676"/>
      <point x="336" y="724"/>
      <point x="260" y="724" type="curve" smooth="yes"/>
      <point x="115" y="724"/>
      <point x="41" y="583"/>
      <point x="41" y="424" type="curve" smooth="yes"/>
      <point x="41" y="268"/>
      <point x="109" y="149"/>
      <point x="207" y="137" type="curve"/>
      <point x="207" y="98" type="line" smooth="yes"/>
      <point x="207" y="21"/>
      <point x="199" y="10"/>
      <point x="152" y="10" type="curve" smooth="yes"/>
      <point x="140" y="10" type="line"/>
    </contour>
  </outline>
</glyph>
<glyph name="uni03E1" format="2">
  <advance width="279"/>
  <unicode hex="03E1"/>
  <anchor x="139" y="-240" name="bottom"/>
  <anchor x="139" y="544" name="top"/>
  <outline>
    <contour>
      <point x="134" y="-240" type="line"/>
      <point x="223" y="-151"/>
      <point x="245" y="-29"/>
      <point x="245" y="101" type="curve" smooth="yes"/>
      <point x="245" y="349"/>
      <point x="150" y="547"/>
      <point x="11" y="544" type="curve"/>
      <point x="11" y="534" type="line"/>
      <point x="82" y="537"/>
      <point x="129" y="430"/>
      <point x="154" y="302" type="curve"/>
      <point x="33" y="246" type="line"/>
      <point x="37" y="238" type="line"/>
      <point x="156" y="293" type="line"/>
      <point x="162" y="253"/>
      <point x="166" y="205"/>
      <point x="169" y="159" type="curve"/>
      <point x="65" y="105" type="line"/>
      <point x="69" y="96" type="line"/>
      <point x="170" y="148" type="line"/>
      <point x="172" y="120"/>
      <point x="171" y="103"/>
      <point x="171" y="72" type="curve" smooth="yes"/>
      <point x="171" y="-43"/>
      <point x="158" y="-168"/>
      <point x="127" y="-234" type="curve"/>
    </contour>
  </outline>
</glyph>
<glyph name="afii10043" format="2">
  <advance width="716"/>
  <unicode hex="0429"/>
  <anchor x="358" y="0" name="bottom"/>
  <anchor x="358" y="714" name="top"/>
  <outline>
    <contour>
      <point x="684" y="-210" type="curve"/>
      <point x="694" y="-210" type="line"/>
      <point x="694" y="8" type="line"/>
      <point x="688" y="8" type="line" smooth="yes"/>
      <point x="649" y="8"/>
      <point x="629" y="22"/>
      <point x="629" y="112" type="curve" smooth="yes"/>
      <point x="629" y="625" type="line" smooth="yes"/>
      <point x="629" y="693"/>
      <point x="637" y="704"/>
      <point x="679" y="704" type="curve" smooth="yes"/>
      <point x="688" y="704" type="line"/>
      <point x="688" y="714" type="line"/>
      <point x="495" y="714" type="line"/>
      <point x="495" y="704" type="line"/>
      <point x="507" y="704" type="line" smooth="yes"/>
      <point x="548" y="704"/>
      <point x="557" y="693"/>
      <point x="557" y="625" type="curve" smooth="yes"/>
      <point x="557" y="13" type="line"/>
      <point x="393" y="13" type="line"/>
      <point x="393" y="627" type="line" smooth="yes"/>
      <point x="393" y="694"/>
      <point x="404" y="704"/>
      <point x="446" y="704" type="curve" smooth="yes"/>
      <point x="453" y="704" type="line"/>
      <point x="453" y="714" type="line"/>
      <point x="253" y="714" type="line"/>
      <point x="253" y="704" type="line"/>
      <point x="271" y="704" type="line" smooth="yes"/>
      <point x="313" y="704"/>
      <point x="321" y="693"/>
      <point x="321" y="625" type="curve" smooth="yes"/>
      <point x="321" y="13" type="line"/>
      <point x="156" y="13" type="line"/>
      <point x="156" y="625" type="line" smooth="yes"/>
      <point x="156" y="693"/>
      <point x="166" y="704"/>
      <point x="204" y="704" type="curve" smooth="yes"/>
      <point x="219" y="704" type="line"/>
      <point x="219" y="714" type="line"/>
      <point x="23" y="714" type="line"/>
      <point x="23" y="704" type="line"/>
      <point x="36" y="704" type="line" smooth="yes"/>
      <point x="77" y="704"/>
      <point x="85" y="693"/>
      <point x="85" y="625" type="curve" smooth="yes"/>
      <point x="85" y="88" type="line" smooth="yes"/>
      <point x="85" y="21"/>
      <point x="76" y="10"/>
      <point x="37" y="10" type="curve" smooth="yes"/>
      <point x="23" y="10" type="line"/>
      <point x="23" y="0" type="line"/>
      <point x="531" y="0" type="line" smooth="yes"/>
      <point x="663" y="0"/>
      <point x="684" y="-10"/>
    </contour>
  </outline>
</glyph>
<glyph name="afii10046" format="2">
  <advance width="401"/>
  <unicode hex="042C"/>
  <anchor x="200" y="0" name="bottom"/>
  <anchor x="200" y="714" name="top"/>
  <outline>
    <contour>
      <point x="23" y="0" type="line"/>
      <point x="211" y="0" type="line" smooth="yes"/>
      <point x="340" y="0"/>
      <point x="380" y="82"/>
      <point x="380" y="199" type="curve" smooth="yes"/>
      <point x="380" y="328"/>
      <point x="331" y="392"/>
      <point x="198" y="392" type="curve" smooth="yes"/>
      <point x="158" y="392" type="line"/>
      <point x="158" y="628" type="line" smooth="yes"/>
      <point x="158" y="692"/>
      <point x="166" y="704"/>
      <point x="203" y="704" type="curve" smooth="yes"/>
      <point x="245" y="704" type="line"/>
      <point x="245" y="714" type="line"/>
      <point x="23" y="714" type="line"/>
      <point x="23" y="704" type="line"/>
      <point x="36" y="704" type="line" smooth="yes"/>
      <point x="75" y="704"/>
      <point x="83" y="694"/>
      <point x="83" y="626" type="curve" smooth="yes"/>
      <point x="83" y="90" type="line" smooth="yes"/>
      <point x="83" y="22"/>
      <point x="75" y="10"/>
      <point x="36" y="10" type="curve" smooth="yes"/>
      <point x="23" y="10" type="line"/>
    </contour>
    <contour>
      <point x="158" y="10" type="line"/>
      <point x="158" y="382" type="line"/>
      <point x="185" y="382" type="line" smooth="yes"/>
      <point x="271" y="382"/>
      <point x="301" y="332"/>
      <point x="301" y="198" type="curve" smooth="yes"/>
      <point x="301" y="76"/>
      <point x="284" y="10"/>
      <point x="204" y="10" type="curve" smooth="yes"/>
    </contour>
  </outline>
</glyph>
<glyph name="afii10069" format="2">
  <advance width="398"/>
  <unicode hex="0434"/>
  <anchor x="199" y="0" name="bottom"/>
  <anchor x="199" y="536" name="top"/>
  <outline>
    <contour>
      <point x="6" y="-210" type="line"/>
      <point x="16" y="-210" type="line"/>
      <point x="17" y="-180" type="line" smooth="yes"/>
      <point x="22" y="-32"/>
      <point x="49" y="0"/>
      <point x="159" y="0" type="curve" smooth="yes"/>
      <point x="241" y="0" type="line" smooth="yes"/>
      <point x="364" y="0"/>
      <point x="383" y="-38"/>
      <point x="387" y="-189" type="curve" smooth="yes"/>
      <point x="387" y="-210" type="line"/>
      <point x="397" y="-210" type="line"/>
      <point x="397" y="8" type="line"/>
      <point x="387" y="8" type="line" smooth="yes"/>
      <point x="330" y="8"/>
      <point x="326" y="15"/>
      <point x="326" y="87" type="curve" smooth="yes"/>
      <point x="326" y="450" type="line" smooth="yes"/>
      <point x="326" y="518"/>
      <point x="333" y="526"/>
      <point x="386" y="526" type="curve" smooth="yes"/>
      <point x="396" y="526" type="line"/>
      <point x="396" y="536" type="line"/>
      <point x="68" y="536" type="line"/>
      <point x="68" y="527" type="line"/>
      <point x="95" y="527" type="line" smooth="yes"/>
      <point x="140" y="527"/>
      <point x="150" y="512"/>
      <point x="150" y="452" type="curve" smooth="yes"/>
      <point x="150" y="407"/>
      <point x="143" y="324"/>
      <point x="128" y="242" type="curve" smooth="yes"/>
      <point x="112" y="162"/>
      <point x="90" y="78"/>
      <point x="64" y="13" type="curve"/>
      <point x="6" y="13" type="line"/>
    </contour>
    <contour>
      <point x="76" y="13" type="line"/>
      <point x="127" y="155"/>
      <point x="161" y="329"/>
      <point x="164" y="523" type="curve"/>
      <point x="249" y="523" type="line"/>
      <point x="249" y="13" type="line"/>
    </contour>
  </outline>
</glyph>
<glyph name="afii10074" format="2">
  <advance width="448"/>
  <unicode hex="0438"/>
  <anchor x="224" y="0" name="bottom"/>
  <anchor x="224" y="536" name="top"/>
  <outline>
    <contour>
      <point x="12" y="0" type="line"/>
      <point x="177" y="0" type="line"/>
      <point x="177" y="10" type="line"/>
      <point x="179" y="10" type="line" smooth="yes"/>
      <point x="153" y="10"/>
      <point x="147" y="18"/>
      <point x="147" y="78" type="curve" smooth="yes"/>
      <point x="147" y="113" type="line"/>
      <point x="302" y="401" type="line"/>
      <point x="302" y="80" type="line" smooth="yes"/>
      <point x="302" y="20"/>
      <point x="296" y="10"/>
      <point x="273" y="10" type="curve" smooth="yes"/>
      <point x="270" y="10" type="line"/>
      <point x="270" y="0" type="line"/>
      <point x="436" y="0" type="line"/>
      <point x="436" y="10" type="line"/>
      <point x="435" y="10" type="line" smooth="yes"/>
      <point x="387" y="10"/>
      <point x="375" y="20"/>
      <point x="375" y="84" type="curve" smooth="yes"/>
      <point x="375" y="453" type="line" smooth="yes"/>
      <point x="375" y="519"/>
      <point x="387" y="526"/>
      <point x="435" y="526" type="curve" smooth="yes"/>
      <point x="436" y="526" type="line"/>
      <point x="436" y="536" type="line"/>
      <point x="270" y="536" type="line"/>
      <point x="270" y="526" type="line"/>
      <point x="273" y="526" type="line" smooth="yes"/>
      <point x="295" y="526"/>
      <point x="302" y="517"/>
      <point x="302" y="460" type="curve" smooth="yes"/>
      <point x="302" y="419" type="line"/>
      <point x="147" y="131" type="line"/>
      <point x="147" y="459" type="line" smooth="yes"/>
      <point x="147" y="518"/>
      <point x="151" y="526"/>
      <point x="182" y="526" type="curve" smooth="yes"/>
      <point x="179" y="526" type="line"/>
      <point x="179" y="536" type="line"/>
      <point x="12" y="536" type="line"/>
      <point x="12" y="526" type="line"/>
      <point x="16" y="526" type="line" smooth="yes"/>
      <point x="62" y="526"/>
      <point x="73" y="518"/>
      <point x="73" y="453" type="curve" smooth="yes"/>
      <point x="73" y="83" type="line" smooth="yes"/>
      <point x="73" y="18"/>
      <point x="61" y="10"/>
      <point x="18" y="10" type="curve" smooth="yes"/>
      <point x="12" y="10" type="line"/>
    </contour>
  </outline>
</glyph>
<glyph name="afii10077" format="2">
  <advance width="414"/>
  <unicode hex="043B"/>
  <anchor x="208" y="0" name="bottom"/>
  <anchor x="208" y="536" name="top"/>
  <outline>
    <contour>
      <point x="57" y="-7" type="curve" smooth="yes"/>
      <point x="110" y="-7"/>
      <point x="138" y="30"/>
      <point x="156" y="160" type="curve" smooth="yes"/>
      <point x="169" y="257"/>
      <point x="191" y="403"/>
      <point x="192" y="523" type="curve"/>
      <point x="269" y="523" type="line"/>
      <point x="269" y="83" type="line" smooth="yes"/>
      <point x="269" y="23"/>
      <point x="266" y="10"/>
      <point x="209" y="10" type="curve" smooth="yes"/>
      <point x="214" y="10" type="line"/>
      <point x="214" y="0" type="line"/>
      <point x="400" y="0" type="line"/>
      <point x="400" y="10" type="line"/>
      <point x="401" y="10" type="line" smooth="yes"/>
      <point x="343" y="10"/>
      <point x="342" y="23"/>
      <point x="342" y="83" type="curve" smooth="yes"/>
      <point x="342" y="464" type="line" smooth="yes"/>
      <point x="342" y="515"/>
      <point x="348" y="526"/>
      <point x="405" y="526" type="curve" smooth="yes"/>
      <point x="400" y="526" type="line"/>
      <point x="400" y="536" type="line"/>
      <point x="88" y="536" type="line"/>
      <point x="88" y="526" type="line"/>
      <point x="117" y="526" type="line" smooth="yes"/>
      <point x="153" y="526"/>
      <point x="179" y="522"/>
      <point x="179" y="459" type="curve" smooth="yes"/>
      <point x="179" y="413"/>
      <point x="159" y="257"/>
      <point x="148" y="201" type="curve" smooth="yes"/>
      <point x="120" y="46"/>
      <point x="95" y="42"/>
      <point x="62" y="42" type="curve" smooth="yes"/>
      <point x="37" y="42"/>
      <point x="28" y="64"/>
      <point x="26" y="83" type="curve"/>
      <point x="10" y="84"/>
      <point x="2" y="65"/>
      <point x="2" y="49" type="curve" smooth="yes"/>
      <point x="2" y="11"/>
      <point x="24" y="-7"/>
    </contour>
  </outline>
</glyph>
<glyph name="afii10097" format="2">
  <advance width="378"/>
  <unicode hex="044F"/>
  <anchor x="188" y="0" name="bottom"/>
  <anchor x="188" y="536" name="top"/>
  <outline>
    <contour>
      <point x="3" y="0" type="line"/>
      <point x="78" y="0"/>
      <point x="107" y="26"/>
      <point x="125" y="80" type="curve" smooth="yes"/>
      <point x="184" y="253" type="line"/>
      <point x="234" y="253" type="line"/>
      <point x="234" y="83" type="line" smooth="yes"/>
      <point x="234" y="20"/>
      <point x="226" y="10"/>
      <point x="179" y="10" type="curve" smooth="yes"/>
      <point x="179" y="10" type="line"/>
      <point x="179" y="0" type="line"/>
      <point x="362" y="0" type="line"/>
      <point x="362" y="10" type="line"/>
      <point x="364" y="10" type="line" smooth="yes"/>
      <point x="312" y="10"/>
      <point x="308" y="20"/>
      <point x="308" y="83" type="curve" smooth="yes"/>
      <point x="308" y="453" type="line" smooth="yes"/>
      <point x="308" y="515"/>
      <point x="316" y="526"/>
      <point x="361" y="526" type="curve" smooth="yes"/>
      <point x="357" y="526" type="line"/>
      <point x="357" y="536" type="line"/>
      <point x="171" y="536" type="line" smooth="yes"/>
      <point x="71" y="536"/>
      <point x="35" y="473"/>
      <point x="35" y="391" type="curve" smooth="yes"/>
      <point x="35" y="320"/>
      <point x="68" y="269"/>
      <point x="118" y="254" type="curve"/>
      <point x="71" y="108" type="line" smooth="yes"/>
      <point x="46" y="44"/>
      <point x="28" y="10"/>
      <point x="1" y="10" type="curve" smooth="yes"/>
      <point x="3" y="10" type="line"/>
    </contour>
    <contour>
      <point x="185" y="263" type="line" smooth="yes"/>
      <point x="127" y="263"/>
      <point x="109" y="324"/>
      <point x="109" y="400" type="curve" smooth="yes"/>
      <point x="109" y="470"/>
      <point x="127" y="526"/>
      <point x="171" y="526" type="curve" smooth="yes"/>
      <point x="234" y="526" type="line"/>
      <point x="234" y="263" type="line"/>
    </contour>
  </outline>
</glyph>
<glyph name="afii10106" format="2">
  <advance width="561"/>
  <unicode hex="0459"/>
  <anchor x="281" y="0" name="bottom"/>
  <anchor x="281" y="536" name="top"/>
  <outline>
    <contour>
      <point x="58" y="-7" type="curve" smooth="yes"/>
      <point x="112" y="-7"/>
      <point x="139" y="30"/>
      <point x="157" y="160" type="curve" smooth="yes"/>
      <point x="169" y="257"/>
      <point x="191" y="403"/>
      <point x="193" y="523" type="curve"/>
      <point x="265" y="523" type="line"/>
      <point x="265" y="83" type="line" smooth="yes"/>
      <point x="265" y="21"/>
      <point x="263" y="10"/>
      <point x="201" y="10" type="curve" smooth="yes"/>
      <point x="211" y="10" type="line"/>
      <point x="211" y="0" type="line"/>
      <point x="384" y="0" type="line" smooth="yes"/>
      <point x="480" y="0"/>
      <point x="535" y="46"/>
      <point x="535" y="157" type="curve" smooth="yes"/>
      <point x="535" y="273"/>
      <point x="465" y="297"/>
      <point x="380" y="297" type="curve" smooth="yes"/>
      <point x="338" y="297" type="line"/>
      <point x="338" y="453" type="line" smooth="yes"/>
      <point x="338" y="514"/>
      <point x="345" y="526"/>
      <point x="398" y="526" type="curve" smooth="yes"/>
      <point x="397" y="526" type="line"/>
      <point x="397" y="536" type="line"/>
      <point x="89" y="536" type="line"/>
      <point x="89" y="526" type="line"/>
      <point x="117" y="526" type="line" smooth="yes"/>
      <point x="154" y="526"/>
      <point x="180" y="522"/>
      <point x="180" y="453" type="curve" smooth="yes"/>
      <point x="180" y="413"/>
      <point x="159" y="257"/>
      <point x="149" y="201" type="curve" smooth="yes"/>
      <point x="121" y="46"/>
      <point x="96" y="45"/>
      <point x="64" y="45" type="curve" smooth="yes"/>
      <point x="39" y="45"/>
      <point x="29" y="64"/>
      <point x="26" y="81" type="curve"/>
      <point x="11" y="82"/>
      <point x="3" y="65"/>
      <point x="3" y="49" type="curve" smooth="yes"/>
      <point x="3" y="11"/>
      <point x="25" y="-7"/>
    </contour>
    <contour>
      <point x="338" y="10" type="line"/>
      <point x="338" y="287" type="line"/>
      <point x="376" y="287" type="line" smooth="yes"/>
      <point x="423" y="287"/>
      <point x="461" y="256"/>
      <point x="461" y="159" type="curve" smooth="yes"/>
      <point x="461" y="49"/>
      <point x="431" y="10"/>
      <point x="387" y="10" type="curve" smooth="yes"/>
    </contour>
  </outline>
</glyph>
<glyph name="uni046C" format="2">
  <advance width="789"/>
  <unicode hex="046C"/>
  <anchor x="395" y="0" name="bottom"/>
  <anchor x="395" y="714" name="top"/>
  <outline>
    <contour>
      <point x="23" y="0" type="line"/>
      <point x="221" y="0" type="line"/>
      <point x="221" y="10" type="line"/>
      <point x="202" y="10" type="line" smooth="yes"/>
      <point x="164" y="10"/>
      <point x="158" y="24"/>
      <point x="158" y="86" type="curve" smooth="yes"/>
      <point x="158" y="366" type="line"/>
      <point x="400" y="366" type="line"/>
      <point x="365" y="351"/>
      <point x="349" y="325"/>
      <point x="340" y="289" type="curve" smooth="yes"/>
      <point x="295" y="111" type="line" smooth="yes"/>
      <point x="272" y="30"/>
      <point x="270" y="10"/>
      <point x="237" y="10" type="curve" smooth="yes"/>
      <point x="235" y="10" type="line"/>
      <point x="235" y="0" type="line"/>
      <point x="253" y="0" type="line" smooth="yes"/>
      <point x="325" y="0"/>
      <point x="340" y="27"/>
      <point x="364" y="110" type="curve" smooth="yes"/>
      <point x="401" y="251" type="line" smooth="yes"/>
      <point x="427" y="330"/>
      <point x="434" y="364"/>
      <point x="478" y="364" type="curve"/>
      <point x="478" y="88" type="line" smooth="yes"/>
      <point x="478" y="24"/>
      <point x="473" y="10"/>
      <point x="421" y="10" type="curve" smooth="yes"/>
      <point x="420" y="10" type="line"/>
      <point x="420" y="0" type="line"/>
      <point x="608" y="0" type="line"/>
      <point x="608" y="10" type="line"/>
      <point x="602" y="10" type="line" smooth="yes"/>
      <point x="552" y="10"/>
      <point x="545" y="24"/>
      <point x="545" y="87" type="curve" smooth="yes"/>
      <point x="545" y="365" type="line"/>
      <point x="587" y="365"/>
      <point x="598" y="335"/>
      <point x="626" y="247" type="curve" smooth="yes"/>
      <point x="667" y="99" type="line" smooth="yes"/>
      <point x="687" y="21"/>
      <point x="711" y="0"/>
      <point x="770" y="0" type="curve" smooth="yes"/>
      <point x="790" y="0" type="line"/>
      <point x="790" y="10" type="line"/>
      <point x="793" y="10" type="line" smooth="yes"/>
      <point x="767" y="10"/>
      <point x="755" y="21"/>
      <point x="731" y="110" type="curve" smooth="yes"/>
      <point x="685" y="290" type="line" smooth="yes"/>
      <point x="672" y="346"/>
      <point x="644" y="376"/>
      <point x="552" y="376" type="curve"/>
      <point x="702" y="706" type="line"/>
      <point x="702" y="714" type="line"/>
      <point x="310" y="714" type="line"/>
      <point x="310" y="706" type="line"/>
      <point x="471" y="376" type="line"/>
      <point x="158" y="376" type="line"/>
      <point x="158" y="629" type="line" smooth="yes"/>
      <point x="158" y="692"/>
      <point x="165" y="704"/>
      <point x="201" y="704" type="curve" smooth="yes"/>
      <point x="221" y="704" type="line"/>
      <point x="221" y="714" type="line"/>
      <point x="23" y="714" type="line"/>
      <point x="23" y="704" type="line"/>
      <point x="36" y="704" type="line" smooth="yes"/>
      <point x="73" y="704"/>
      <point x="83" y="692"/>
      <point x="83" y="628" type="curve" smooth="yes"/>
      <point x="83" y="86" type="line" smooth="yes"/>
      <point x="83" y="24"/>
      <point x="75" y="10"/>
      <point x="38" y="10" type="curve" smooth="yes"/>
      <point x="23" y="10" type="line"/>
    </contour>
    <contour>
      <point x="539" y="374" type="line"/>
      <point x="394" y="704" type="line"/>
      <point x="692" y="704" type="line"/>
    </contour>
  </outline>
</glyph>
<glyph name="uni0472" format="2">
  <advance width="492"/>
  <unicode hex="0472"/>
  <anchor x="246" y="0" name="bottom"/>
  <anchor x="246" y="714" name="top"/>
  <outline>
    <contour>
      <point x="245" y="-10" type="curve" smooth="yes"/>
      <point x="370" y="-10"/>
      <point x="455" y="126"/>
      <point x="455" y="358" type="curve" smooth="yes"/>
      <point x="455" y="606"/>
      <point x="379" y="725"/>
      <point x="246" y="725" type="curve" smooth="yes"/>
      <point x="104" y="725"/>
      <point x="37" y="591"/>
      <point x="37" y="359" type="curve" smooth="yes"/>
      <point x="37" y="142"/>
      <point x="104" y="-10"/>
    </contour>
    <contour>
      <point x="245" y="0" type="curve" smooth="yes"/>
      <point x="160" y="0"/>
      <point x="118" y="119"/>
      <point x="115" y="335" type="curve"/>
      <point x="127" y="360"/>
      <point x="149" y="381"/>
      <point x="172" y="381" type="curve" smooth="yes"/>
      <point x="224" y="381"/>
      <point x="244" y="308"/>
      <point x="305" y="308" type="curve" smooth="yes"/>
      <point x="340" y="308"/>
      <point x="359" y="332"/>
      <point x="377" y="372" type="curve"/>
      <point x="377" y="113"/>
      <point x="330" y="0"/>
    </contour>
    <contour>
      <point x="323" y="354" type="curve" smooth="yes"/>
      <point x="265" y="354"/>
      <point x="246" y="427"/>
      <point x="192" y="427" type="curve" smooth="yes"/>
      <point x="152" y="427"/>
      <point x="126" y="395"/>
      <point x="115" y="359" type="curve"/>
      <point x="116" y="607"/>
      <point x="152" y="715"/>
      <point x="246" y="715" type="curve" smooth="yes"/>
      <point x="338" y="715"/>
      <point x="373" y="614"/>
      <point x="376" y="393" type="curve"/>
      <point x="362" y="370"/>
      <point x="345" y="354"/>
    </contour>
  </outline>
</glyph>
<glyph name="uni047C" format="2">
  <advance width="661"/>
  <unicode hex="047C"/>
  <outline>
    <contour>
      <point x="235" y="910" type="curve"/>
      <point x="245" y="910" type="line"/>
      <point x="246" y="919" type="line" smooth="yes"/>
      <point x="250" y="950"/>
      <point x="261" y="974"/>
      <point x="293" y="974" type="curve" smooth="yes"/>
      <point x="363" y="974"/>
      <point x="389" y="918"/>
      <point x="470" y="918" type="curve" smooth="yes"/>
      <point x="488" y="918" type="line"/>
      <point x="488" y="959" type="line"/>
      <point x="487" y="959" type="line"/>
      <point x="395" y="959"/>
      <point x="376" y="1015"/>
      <point x="309" y="1015" type="curve" smooth="yes"/>
      <point x="263" y="1015"/>
      <point x="239" y="982"/>
    </contour>
    <contour>
      <point x="307" y="754" type="line"/>
      <point x="372" y="778"/>
      <point x="396" y="831"/>
      <point x="396" y="874" type="curve" smooth="yes"/>
      <point x="396" y="917"/>
      <point x="376" y="931"/>
      <point x="352" y="931" type="curve" smooth="yes"/>
      <point x="334" y="931"/>
      <point x="315" y="922"/>
      <point x="315" y="898" type="curve" smooth="yes"/>
      <point x="315" y="858"/>
      <point x="362" y="877"/>
      <point x="362" y="838" type="curve" smooth="yes"/>
      <point x="362" y="797"/>
      <point x="336" y="778"/>
      <point x="307" y="765" type="curve"/>
    </contour>
    <component base="uniA64C"/>
  </outline>
</glyph>
<glyph name="afii10098" format="2">
  <advance width="292"/>
  <unicode hex="0491"/>
  <anchor x="147" y="0" name="bottom"/>
  <anchor x="147" y="643" name="top"/>
  <outline>
    <contour>
      <point x="12" y="0" type="line"/>
      <point x="211" y="0" type="line"/>
      <point x="211" y="10" type="line"/>
      <point x="208" y="10" type="line" smooth="yes"/>
      <point x="160" y="10"/>
      <point x="147" y="14"/>
      <point x="147" y="83" type="curve" smooth="yes"/>
      <point x="147" y="523" type="line"/>
      <point x="283" y="523" type="line"/>
      <point x="280" y="650" type="line"/>
      <point x="270" y="650" type="line"/>
      <point x="273" y="667" type="line" smooth="yes"/>
      <point x="271" y="553"/>
      <point x="254" y="536"/>
      <point x="174" y="536" type="curve" smooth="yes"/>
      <point x="12" y="536" type="line"/>
      <point x="12" y="526" type="line"/>
      <point x="14" y="526" type="line" smooth="yes"/>
      <point x="61" y="526"/>
      <point x="73" y="519"/>
      <point x="73" y="454" type="curve" smooth="yes"/>
      <point x="73" y="79" type="line" smooth="yes"/>
      <point x="73" y="15"/>
      <point x="58" y="10"/>
      <point x="17" y="10" type="curve" smooth="yes"/>
      <point x="12" y="10" type="line"/>
    </contour>
  </outline>
</glyph>
<glyph name="uni049B" format="2">
  <advance width="432"/>
  <unicode hex="049B"/>
  <anchor x="201" y="0" name="bottom"/>
  <anchor x="201" y="536" name="top"/>
  <outline>
    <contour>
      <point x="405" y="-213" type="curve"/>
      <point x="415" y="-213" type="line"/>
      <point x="415" y="10" type="line"/>
      <point x="420" y="10" type="line" smooth="yes"/>
      <point x="374" y="10"/>
      <point x="355" y="58"/>
      <point x="330" y="115" type="curve" smooth="yes"/>
      <point x="287" y="211" type="line" smooth="yes"/>
      <point x="269" y="255"/>
      <point x="252" y="285"/>
      <point x="182" y="288" type="curve"/>
      <point x="208" y="312"/>
      <point x="224" y="343"/>
      <point x="249" y="393" type="curve" smooth="yes"/>
      <point x="281" y="457"/>
      <point x="293" y="485"/>
      <point x="324" y="485" type="curve" smooth="yes"/>
      <point x="340" y="485"/>
      <point x="356" y="473"/>
      <point x="359" y="444" type="curve"/>
      <point x="373" y="446"/>
      <point x="391" y="455"/>
      <point x="391" y="491" type="curve" smooth="yes"/>
      <point x="391" y="519"/>
      <point x="381" y="542"/>
      <point x="345" y="542" type="curve" smooth="yes"/>
      <point x="302" y="542"/>
      <point x="289" y="501"/>
      <point x="253" y="431" type="curve" smooth="yes"/>
      <point x="226" y="375"/>
      <point x="204" y="332"/>
      <point x="186" y="310" type="curve" smooth="yes"/>
      <point x="184" y="304"/>
      <point x="171" y="286"/>
      <point x="147" y="287" type="curve"/>
      <point x="147" y="454" type="line" smooth="yes"/>
      <point x="147" y="516"/>
      <point x="155" y="526"/>
      <point x="206" y="526" type="curve" smooth="yes"/>
      <point x="201" y="526" type="line"/>
      <point x="201" y="536" type="line"/>
      <point x="13" y="536" type="line"/>
      <point x="13" y="526" type="line"/>
      <point x="1" y="526" type="line" smooth="yes"/>
      <point x="67" y="526"/>
      <point x="73" y="515"/>
      <point x="73" y="453" type="curve" smooth="yes"/>
      <point x="73" y="81" type="line" smooth="yes"/>
      <point x="73" y="21"/>
      <point x="65" y="10"/>
      <point x="15" y="10" type="curve" smooth="yes"/>
      <point x="21" y="10" type="line"/>
      <point x="21" y="0" type="line"/>
      <point x="194" y="0" type="line"/>
      <point x="194" y="10" type="line"/>
      <point x="200" y="10" type="line" smooth="yes"/>
      <point x="155" y="10"/>
      <point x="147" y="20"/>
      <point x="147" y="83" type="curve" smooth="yes"/>
      <point x="147" y="277" type="line"/>
      <point x="190" y="277"/>
      <point x="190" y="265"/>
      <point x="218" y="196" type="curve" smooth="yes"/>
      <point x="258" y="103" type="line" smooth="yes"/>
      <point x="285" y="40"/>
      <point x="295" y="23"/>
      <point x="355" y="-1" type="curve" smooth="yes"/>
      <point x="399" y="-20"/>
      <point x="402" y="-47"/>
    </contour>
  </outline>
</glyph>
<glyph name="uni04A4" format="2">
  <advance width="581"/>
  <unicode hex="04A4"/>
  <anchor x="291" y="0" name="bottom"/>
  <anchor x="291" y="714" name="top"/>
  <outline>
    <contour>
      <point x="23" y="0" type="line"/>
      <point x="219" y="0" type="line"/>
      <point x="219" y="10" type="line"/>
      <point x="201" y="10" type="line" smooth="yes"/>
      <point x="164" y="10"/>
      <point x="158" y="19"/>
      <point x="158" y="86" type="curve" smooth="yes"/>
      <point x="158" y="369" type="line"/>
      <point x="362" y="369" type="line"/>
      <point x="362" y="88" type="line" smooth="yes"/>
      <point x="362" y="20"/>
      <point x="356" y="10"/>
      <point x="318" y="10" type="curve" smooth="yes"/>
      <point x="301" y="10" type="line"/>
      <point x="301" y="0" type="line"/>
      <point x="499" y="0" type="line"/>
      <point x="499" y="10" type="line"/>
      <point x="495" y="10" type="line" smooth="yes"/>
      <point x="445" y="10"/>
      <point x="437" y="21"/>
      <point x="437" y="92" type="curve" smooth="yes"/>
      <point x="437" y="704" type="line"/>
      <point x="453" y="704" type="line" smooth="yes"/>
      <point x="538" y="704"/>
      <point x="557" y="682"/>
      <point x="561" y="596" type="curve" smooth="yes"/>
      <point x="561" y="548" type="line"/>
      <point x="571" y="548" type="line"/>
      <point x="566" y="714" type="line"/>
      <point x="301" y="714" type="line"/>
      <point x="301" y="704" type="line"/>
      <point x="318" y="704" type="line" smooth="yes"/>
      <point x="356" y="704"/>
      <point x="362" y="693"/>
      <point x="362" y="628" type="curve" smooth="yes"/>
      <point x="362" y="379" type="line"/>
      <point x="158" y="379" type="line"/>
      <point x="158" y="629" type="line" smooth="yes"/>
      <point x="158" y="693"/>
      <point x="164" y="704"/>
      <point x="201" y="704" type="curve" smooth="yes"/>
      <point x="219" y="704" type="line"/>
      <point x="219" y="714" type="line"/>
      <point x="23" y="714" type="line"/>
      <point x="23" y="704" type="line"/>
      <point x="36" y="704" type="line" smooth="yes"/>
      <point x="78" y="704"/>
      <point x="83" y="693"/>
      <point x="83" y="628" type="curve" smooth="yes"/>
      <point x="83" y="86" type="line" smooth="yes"/>
      <point x="83" y="19"/>
      <point x="78" y="10"/>
      <point x="39" y="10" type="curve" smooth="yes"/>
      <point x="23" y="10" type="line"/>
    </contour>
  </outline>
</glyph>
<glyph name="uni04AF" format="2">
  <advance width="380"/>
  <unicode hex="04AF"/>
  <anchor x="182" y="-238" name="bottom"/>
  <anchor x="182" y="536" name="top"/>
  <outline>
    <contour>
      <point x="80" y="-238" type="line"/>
      <point x="274" y="-238" type="line"/>
      <point x="274" y="-228" type="line"/>
      <point x="275" y="-228" type="line" smooth="yes"/>
      <point x="234" y="-228"/>
      <point x="214" y="-223"/>
      <point x="214" y="-159" type="curve" smooth="yes"/>
      <point x="214" y="36" type="line"/>
      <point x="327" y="473" type="line" smooth="yes"/>
      <point x="339" y="523"/>
      <point x="346" y="526"/>
      <point x="389" y="526" type="curve" smooth="yes"/>
      <point x="379" y="526" type="line"/>
      <point x="379" y="536" type="line"/>
      <point x="244" y="536" type="line"/>
      <point x="244" y="526" type="line"/>
      <point x="262" y="526" type="line" smooth="yes"/>
      <point x="307" y="526"/>
      <point x="321" y="517"/>
      <point x="320" y="495" type="curve" smooth="yes"/>
      <point x="320" y="485"/>
      <point x="310" y="453"/>
      <point x="296" y="397" type="curve" smooth="yes"/>
      <point x="243" y="196" type="line" smooth="yes"/>
      <point x="228" y="138"/>
      <point x="205" y="54"/>
      <point x="205" y="41" type="curve"/>
      <point x="191" y="95"/>
      <point x="170" y="181"/>
      <point x="162" y="225" type="curve" smooth="yes"/>
      <point x="116" y="430" type="line" smooth="yes"/>
      <point x="108" y="461"/>
      <point x="104" y="491"/>
      <point x="104" y="502" type="curve" smooth="yes"/>
      <point x="104" y="520"/>
      <point x="114" y="526"/>
      <point x="145" y="526" type="curve" smooth="yes"/>
      <point x="166" y="526" type="line"/>
      <point x="166" y="536" type="line"/>
      <point x="2" y="536" type="line"/>
      <point x="2" y="526" type="line"/>
      <point x="22" y="526"/>
      <point x="28" y="517"/>
      <point x="40" y="471" type="curve" smooth="yes"/>
      <point x="143" y="28" type="line"/>
      <point x="142" y="-159" type="line" smooth="yes"/>
      <point x="142" y="-223"/>
      <point x="122" y="-228"/>
      <point x="80" y="-228" type="curve" smooth="yes"/>
      <point x="80" y="-228" type="line"/>
    </contour>
  </outline>
</glyph>
<glyph name="uni04B0" format="2">
  <advance width="421"/>
  <unicode hex="04B0"/>
  <anchor x="210" y="0" name="bottom"/>
  <anchor x="210" y="714" name="top"/>
  <anchor x="399" y="714" name="topright"/>
  <outline>
    <contour>
      <point x="80" y="219" type="line"/>
      <point x="342" y="219" type="line"/>
      <point x="342" y="229" type="line"/>
      <point x="80" y="229" type="line"/>
    </contour>
    <component base="Y"/>
  </outline>
</glyph>
<glyph name="uni04F6" format="2">
  <advance width="370"/>
  <unicode hex="04F6"/>
  <anchor x="185" y="-210" name="bottom"/>
  <anchor x="185" y="714" name="top"/>
  <outline>
    <contour>
      <point x="223" y="-210" type="curve"/>
      <point x="233" y="-210" type="line"/>
      <point x="233" y="8" type="line"/>
      <point x="217" y="8" type="line" smooth="yes"/>
      <point x="176" y="8"/>
      <point x="157" y="21"/>
      <point x="157" y="112" type="curve" smooth="yes"/>
      <point x="157" y="706" type="line"/>
      <point x="253" y="706" type="line" smooth="yes"/>
      <point x="326" y="706"/>
      <point x="345" y="684"/>
      <point x="347" y="604" type="curve" smooth="yes"/>
      <point x="348" y="546" type="line"/>
      <point x="358" y="546" type="line"/>
      <point x="353" y="714" type="line"/>
      <point x="23" y="714" type="line"/>
      <point x="23" y="704" type="line"/>
      <point x="35" y="704" type="line" smooth="yes"/>
      <point x="74" y="704"/>
      <point x="82" y="692"/>
      <point x="82" y="629" type="curve" smooth="yes"/>
      <point x="82" y="85" type="line" smooth="yes"/>
      <point x="82" y="21"/>
      <point x="74" y="10"/>
      <point x="33" y="10" type="curve" smooth="yes"/>
      <point x="23" y="10" type="line"/>
      <point x="23" y="0" type="line"/>
      <point x="59" y="0" type="line" smooth="yes"/>
      <point x="202" y="0"/>
      <point x="223" y="-18"/>
    </contour>
  </outline>
</glyph>
<glyph name="uni0508" format="2">
  <advance width="649"/>
  <unicode hex="0508"/>
  <anchor x="325" y="0" name="bottom"/>
  <anchor x="325" y="714" name="top"/>
  <outline>
    <contour>
      <point x="436" y="-10" type="curve" smooth="yes"/>
      <point x="542" y="-10"/>
      <point x="576" y="60"/>
      <point x="576" y="177" type="curve" smooth="yes"/>
      <point x="576" y="296" type="line" smooth="yes"/>
      <point x="576" y="370"/>
      <point x="580" y="383"/>
      <point x="627" y="383" type="curve" smooth="yes"/>
      <point x="638" y="383" type="line"/>
      <point x="638" y="393" type="line"/>
      <point x="435" y="393" type="line"/>
      <point x="435" y="383" type="line"/>
      <point x="447" y="383" type="line" smooth="yes"/>
      <point x="495" y="383"/>
      <point x="501" y="368"/>
      <point x="501" y="296" type="curve" smooth="yes"/>
      <point x="501" y="163" type="line" smooth="yes"/>
      <point x="501" y="48"/>
      <point x="489" y="0"/>
      <point x="436" y="0" type="curve" smooth="yes"/>
      <point x="393" y="0"/>
      <point x="376" y="48"/>
      <point x="376" y="146" type="curve" smooth="yes"/>
      <point x="376" y="628" type="line" smooth="yes"/>
      <point x="376" y="695"/>
      <point x="393" y="704"/>
      <point x="434" y="704" type="curve" smooth="yes"/>
      <point x="437" y="704" type="line"/>
      <point x="437" y="714" type="line"/>
      <point x="93" y="714" type="line"/>
      <point x="93" y="704" type="line"/>
      <point x="124" y="704" type="line" smooth="yes"/>
      <point x="178" y="704"/>
      <point x="184" y="683"/>
      <point x="184" y="638" type="curve" smooth="yes"/>
      <point x="184" y="576"/>
      <point x="176" y="378"/>
      <point x="159" y="261" type="curve" smooth="yes"/>
      <point x="124" y="61"/>
      <point x="78" y="47"/>
      <point x="56" y="47" type="curve" smooth="yes"/>
      <point x="33" y="47"/>
      <point x="22" y="66"/>
      <point x="24" y="89" type="curve"/>
      <point x="10" y="83"/>
      <point x="0" y="71"/>
      <point x="0" y="48" type="curve" smooth="yes"/>
      <point x="0" y="17"/>
      <point x="19" y="-7"/>
      <point x="48" y="-7" type="curve" smooth="yes"/>
      <point x="89" y="-7"/>
      <point x="127" y="24"/>
      <point x="157" y="169" type="curve" smooth="yes"/>
      <point x="171" y="251"/>
      <point x="195" y="458"/>
      <point x="195" y="701" type="curve"/>
      <point x="302" y="701" type="line"/>
      <point x="302" y="173" type="line" smooth="yes"/>
      <point x="302" y="64"/>
      <point x="329" y="-10"/>
    </contour>
  </outline>
</glyph>
<glyph name="uni0509" format="2">
  <advance width="605"/>
  <unicode hex="0509"/>
  <anchor x="302" y="0" name="bottom"/>
  <anchor x="302" y="536" name="top"/>
  <outline>
    <contour>
      <point x="404" y="-10" type="curve" smooth="yes"/>
      <point x="503" y="-10"/>
      <point x="537" y="64"/>
      <point x="537" y="192" type="curve" smooth="yes"/>
      <point x="537" y="256" type="line" smooth="yes"/>
      <point x="537" y="325"/>
      <point x="553" y="331"/>
      <point x="597" y="331" type="curve" smooth="yes"/>
      <point x="596" y="331" type="line"/>
      <point x="596" y="341" type="line"/>
      <point x="406" y="341" type="line"/>
      <point x="406" y="331" type="line"/>
      <point x="396" y="331" type="line" smooth="yes"/>
      <point x="447" y="331"/>
      <point x="464" y="327"/>
      <point x="464" y="256" type="curve" smooth="yes"/>
      <point x="464" y="169" type="line" smooth="yes"/>
      <point x="464" y="66"/>
      <point x="453" y="0"/>
      <point x="404" y="0" type="curve" smooth="yes"/>
      <point x="354" y="0"/>
      <point x="343" y="59"/>
      <point x="343" y="163" type="curve" smooth="yes"/>
      <point x="343" y="460" type="line" smooth="yes"/>
      <point x="343" y="509"/>
      <point x="349" y="526"/>
      <point x="405" y="526" type="curve" smooth="yes"/>
      <point x="401" y="526" type="line"/>
      <point x="401" y="536" type="line"/>
      <point x="89" y="536" type="line"/>
      <point x="89" y="526" type="line"/>
      <point x="116" y="526" type="line" smooth="yes"/>
      <point x="154" y="526"/>
      <point x="179" y="523"/>
      <point x="179" y="448" type="curve" smooth="yes"/>
      <point x="179" y="413"/>
      <point x="159" y="257"/>
      <point x="150" y="201" type="curve" smooth="yes"/>
      <point x="124" y="46"/>
      <point x="93" y="44"/>
      <point x="66" y="44" type="curve" smooth="yes"/>
      <point x="40" y="44"/>
      <point x="30" y="61"/>
      <point x="28" y="78" type="curve"/>
      <point x="11" y="79"/>
      <point x="3" y="62"/>
      <point x="3" y="46" type="curve" smooth="yes"/>
      <point x="3" y="8"/>
      <point x="25" y="-7"/>
      <point x="56" y="-7" type="curve" smooth="yes"/>
      <point x="108" y="-7"/>
      <point x="139" y="32"/>
      <point x="158" y="162" type="curve" smooth="yes"/>
      <point x="171" y="263"/>
      <point x="191" y="394"/>
      <point x="193" y="523" type="curve"/>
      <point x="270" y="523" type="line"/>
      <point x="270" y="165" type="line" smooth="yes"/>
      <point x="270" y="73"/>
      <point x="297" y="-10"/>
    </contour>
  </outline>
</glyph>
<glyph name="uni050C" format="2">
  <advance width="491"/>
  <unicode hex="050C"/>
  <anchor x="246" y="0" name="bottom"/>
  <anchor x="246" y="714" name="top"/>
  <outline>
    <contour>
      <point x="268" y="-10" type="curve" smooth="yes"/>
      <point x="373" y="-8"/>
      <point x="436" y="72"/>
      <point x="435" y="249" type="curve" smooth="yes"/>
      <point x="434" y="309"/>
      <point x="436" y="318"/>
      <point x="486" y="318" type="curve" smooth="yes"/>
      <point x="481" y="318" type="line"/>
      <point x="481" y="328" type="line"/>
      <point x="300" y="328" type="line"/>
      <point x="300" y="318" type="line"/>
      <point x="304" y="318" type="line" smooth="yes"/>
      <point x="358" y="318"/>
      <point x="357" y="311"/>
      <point x="358" y="259" type="curve" smooth="yes"/>
      <point x="360" y="59"/>
      <point x="336" y="0"/>
      <point x="264" y="0" type="curve" smooth="yes"/>
      <point x="163" y="0"/>
      <point x="113" y="95"/>
      <point x="113" y="349" type="curve" smooth="yes"/>
      <point x="113" y="601"/>
      <point x="159" y="714"/>
      <point x="257" y="714" type="curve" smooth="yes"/>
      <point x="339" y="714"/>
      <point x="359" y="654"/>
      <point x="359" y="548" type="curve"/>
      <point x="400" y="548"/>
      <point x="419" y="574"/>
      <point x="419" y="607" type="curve" smooth="yes"/>
      <point x="419" y="668"/>
      <point x="368" y="724"/>
      <point x="263" y="724" type="curve" smooth="yes"/>
      <point x="112" y="724"/>
      <point x="36" y="585"/>
      <point x="36" y="355" type="curve" smooth="yes"/>
      <point x="36" y="121"/>
      <point x="113" y="-13"/>
    </contour>
  </outline>
</glyph>
<glyph name="uni0524" format="2">
  <advance width="506"/>
  <unicode hex="0524"/>
  <anchor x="243" y="0" name="bottom"/>
  <anchor x="253" y="714" name="top"/>
  <outline>
    <contour>
      <point x="477" y="-210" type="curve"/>
      <point x="487" y="-210" type="line"/>
      <point x="487" y="8" type="line"/>
      <point x="488" y="8" type="line" smooth="yes"/>
      <point x="441" y="8"/>
      <point x="422" y="21"/>
      <point x="422" y="112" type="curve" smooth="yes"/>
      <point x="422" y="626" type="line" smooth="yes"/>
      <point x="422" y="689"/>
      <point x="428" y="704"/>
      <point x="471" y="704" type="curve" smooth="yes"/>
      <point x="485" y="704" type="line"/>
      <point x="485" y="714" type="line"/>
      <point x="23" y="714" type="line"/>
      <point x="23" y="704" type="line"/>
      <point x="32" y="704" type="line" smooth="yes"/>
      <point x="78" y="704"/>
      <point x="83" y="690"/>
      <point x="83" y="627" type="curve" smooth="yes"/>
      <point x="83" y="89" type="line" smooth="yes"/>
      <point x="83" y="25"/>
      <point x="77" y="10"/>
      <point x="33" y="10" type="curve" smooth="yes"/>
      <point x="23" y="10" type="line"/>
      <point x="23" y="0" type="line"/>
      <point x="219" y="0" type="line"/>
      <point x="219" y="10" type="line"/>
      <point x="207" y="10" type="line" smooth="yes"/>
      <point x="164" y="10"/>
      <point x="158" y="25"/>
      <point x="158" y="89" type="curve" smooth="yes"/>
      <point x="158" y="704" type="line"/>
      <point x="347" y="704" type="line"/>
      <point x="347" y="89" type="line" smooth="yes"/>
      <point x="347" y="25"/>
      <point x="342" y="10"/>
      <point x="298" y="10" type="curve" smooth="yes"/>
      <point x="285" y="10" type="line"/>
      <point x="285" y="0" type="line"/>
      <point x="316" y="0" type="line" smooth="yes"/>
      <point x="456" y="0"/>
      <point x="477" y="-18"/>
    </contour>
  </outline>
</glyph>
<glyph name="uni1AB9" format="2">
  <unicode hex="1AB9"/>
  <anchor x="-284" y="70" name="_bottom"/>
  <anchor x="-284" y="-240" name="bottom"/>
  <outline>
    <contour>
      <point x="-303" y="-232" type="line"/>
      <point x="-243" y="32" type="line"/>
      <point x="-262" y="38" type="line"/>
      <point x="-324" y="-227" type="line"/>
    </contour>
  </outline>
</glyph>
<glyph name="uni1D18" format="2">
  <advance width="322"/>
  <unicode hex="1D18"/>
  <anchor x="161" y="0" name="bottom"/>
  <anchor x="161" y="536" name="top"/>
  <outline>
    <contour>
      <point x="26" y="0" type="line"/>
      <point x="196" y="0" type="line"/>
      <point x="196" y="10" type="line"/>
      <point x="182" y="10" type="line" smooth="yes"/>
      <point x="146" y="10"/>
      <point x="139" y="18"/>
      <point x="139" y="75" type="curve" smooth="yes"/>
      <point x="139" y="210" type="line"/>
      <point x="154" y="210" type="line" smooth="yes"/>
      <point x="243" y="210"/>
      <point x="296" y="267"/>
      <point x="296" y="382" type="curve" smooth="yes"/>
      <point x="296" y="487"/>
      <point x="251" y="536"/>
      <point x="159" y="536" type="curve" smooth="yes"/>
      <point x="26" y="536" type="line"/>
      <point x="26" y="526" type="line"/>
      <point x="25" y="526" type="line" smooth="yes"/>
      <point x="62" y="526"/>
      <point x="69" y="519"/>
      <point x="69" y="460" type="curve" smooth="yes"/>
      <point x="69" y="76" type="line" smooth="yes"/>
      <point x="69" y="19"/>
      <point x="63" y="10"/>
      <point x="26" y="10" type="curve" smooth="yes"/>
      <point x="26" y="10" type="line"/>
    </contour>
    <contour>
      <point x="139" y="220" type="line"/>
      <point x="139" y="526" type="line"/>
      <point x="155" y="526" type="line" smooth="yes"/>
      <point x="202" y="526"/>
      <point x="223" y="490"/>
      <point x="223" y="382" type="curve" smooth="yes"/>
      <point x="223" y="260"/>
      <point x="198" y="220"/>
      <point x="156" y="220" type="curve" smooth="yes"/>
    </contour>
  </outline>
</glyph>
<glyph name="uni1D22" format="2">
  <advance width="369"/>
  <unicode hex="1D22"/>
  <anchor x="184" y="0" name="bottom"/>
  <anchor x="184" y="536" name="top"/>
  <outline>
    <contour>
      <point x="21" y="0" type="line"/>
      <point x="336" y="0" type="line"/>
      <point x="342" y="163" type="line"/>
      <point x="332" y="163" type="line"/>
      <point x="329" y="102" type="line" smooth="yes"/>
      <point x="326" y="37"/>
      <point x="305" y="13"/>
      <point x="235" y="13" type="curve" smooth="yes"/>
      <point x="92" y="13" type="line"/>
      <point x="327" y="515" type="line"/>
      <point x="327" y="536" type="line"/>
      <point x="49" y="536" type="line"/>
      <point x="41" y="405" type="line"/>
      <point x="51" y="405" type="line"/>
      <point x="53" y="433" type="line" smooth="yes"/>
      <point x="59" y="500"/>
      <point x="83" y="523"/>
      <point x="150" y="523" type="curve" smooth="yes"/>
      <point x="256" y="523" type="line"/>
      <point x="21" y="21" type="line"/>
    </contour>
  </outline>
</glyph>
<glyph name="uni1D3B" format="2">
  <advance width="324"/>
  <unicode hex="1D3B"/>
  <anchor x="155" y="287" name="bottom"/>
  <anchor x="155" y="715" name="top"/>
  <anchor x="310" y="715" name="topright"/>
  <outline>
    <contour>
      <point x="57" y="287" type="line"/>
      <point x="95" y="287" type="line"/>
      <point x="260" y="694" type="line"/>
      <point x="260" y="340" type="line" smooth="yes"/>
      <point x="260" y="302"/>
      <point x="256" y="293"/>
      <point x="231" y="293" type="curve" smooth="yes"/>
      <point x="206" y="293" type="line"/>
      <point x="206" y="287" type="line"/>
      <point x="310" y="287" type="line"/>
      <point x="310" y="293" type="line"/>
      <point x="300" y="293" type="line" smooth="yes"/>
      <point x="271" y="293"/>
      <point x="268" y="302"/>
      <point x="268" y="340" type="curve" smooth="yes"/>
      <point x="268" y="663" type="line" smooth="yes"/>
      <point x="268" y="701"/>
      <point x="269" y="709"/>
      <point x="298" y="709" type="curve" smooth="yes"/>
      <point x="310" y="709" type="line"/>
      <point x="310" y="715" type="line"/>
      <point x="222" y="715" type="line"/>
      <point x="63" y="329" type="line"/>
      <point x="63" y="663" type="line" smooth="yes"/>
      <point x="63" y="702"/>
      <point x="66" y="709"/>
      <point x="95" y="709" type="curve" smooth="yes"/>
      <point x="117" y="709" type="line"/>
      <point x="117" y="715" type="line"/>
      <point x="10" y="715" type="line"/>
      <point x="10" y="709" type="line"/>
      <point x="26" y="709" type="line" smooth="yes"/>
      <point x="54" y="709"/>
      <point x="57" y="702"/>
      <point x="57" y="663" type="curve" smooth="yes"/>
    </contour>
  </outline>
</glyph>
<glyph name="uni1D6E" format="2">
  <advance width="248"/>
  <unicode hex="1D6E"/>
  <anchor x="172" y="771" name="top"/>
  <anchor x="288" y="771" name="topright"/>
  <anchor x="124" y="0" name="bottom"/>
  <outline>
    <contour>
      <point x="-20" y="245" type="curve"/>
      <point x="-10" y="245" type="line"/>
      <point x="-11" y="269"/>
      <point x="-1" y="305"/>
      <point x="30" y="305" type="curve" smooth="yes"/>
      <point x="79" y="305"/>
      <point x="105" y="226"/>
      <point x="171" y="226" type="curve" smooth="yes"/>
      <point x="226" y="226"/>
      <point x="235" y="281"/>
      <point x="238" y="334" type="curve"/>
      <point x="228" y="334" type="line"/>
      <point x="228" y="313"/>
      <point x="218" y="273"/>
      <point x="183" y="273" type="curve" smooth="yes"/>
      <point x="130" y="273"/>
      <point x="94" y="352"/>
      <point x="41" y="352" type="curve" smooth="yes"/>
      <point x="-11" y="352"/>
      <point x="-18" y="299"/>
    </contour>
    <component base="f"/>
  </outline>
</glyph>
<glyph name="uni1D71" format="2">
  <advance width="406"/>
  <unicode hex="1D71"/>
  <outline>
    <contour>
      <point x="11" y="-235" type="line"/>
      <point x="201" y="-235" type="line"/>
      <point x="201" y="-225" type="line"/>
      <point x="200" y="-225" type="line" smooth="yes"/>
      <point x="145" y="-225"/>
      <point x="140" y="-212"/>
      <point x="140" y="-146" type="curve" smooth="yes"/>
      <point x="140" y="-49" type="line" smooth="yes"/>
      <point x="140" y="11"/>
      <point x="141" y="47"/>
      <point x="139" y="110" type="curve"/>
      <point x="141" y="110" type="line"/>
      <point x="156" y="36"/>
      <point x="181" y="0"/>
      <point x="242" y="0" type="curve" smooth="yes"/>
      <point x="322" y="0"/>
      <point x="373" y="85"/>
      <point x="373" y="280" type="curve" smooth="yes"/>
      <point x="373" y="471"/>
      <point x="322" y="546"/>
      <point x="239" y="546" type="curve" smooth="yes"/>
      <point x="182" y="546"/>
      <point x="154" y="510"/>
      <point x="141" y="436" type="curve"/>
      <point x="139" y="436" type="line"/>
      <point x="139" y="536" type="line"/>
      <point x="11" y="536" type="line"/>
      <point x="11" y="526" type="line"/>
      <point x="9" y="526" type="line" smooth="yes"/>
      <point x="48" y="526"/>
      <point x="66" y="521"/>
      <point x="66" y="457" type="curve" smooth="yes"/>
      <point x="66" y="-146" type="line" smooth="yes"/>
      <point x="66" y="-212"/>
      <point x="60" y="-225"/>
      <point x="5" y="-225" type="curve" smooth="yes"/>
      <point x="11" y="-225" type="line"/>
    </contour>
    <contour>
      <point x="151" y="-139" type="curve" smooth="yes"/>
      <point x="212" y="-139"/>
      <point x="227" y="-84"/>
      <point x="229" y="-44" type="curve"/>
      <point x="219" y="-44" type="line"/>
      <point x="220" y="-57"/>
      <point x="216" y="-98"/>
      <point x="177" y="-98" type="curve" smooth="yes"/>
      <point x="111" y="-98"/>
      <point x="104" y="-43"/>
      <point x="59" y="-43" type="curve" smooth="yes"/>
      <point x="-1" y="-43"/>
      <point x="-14" y="-92"/>
      <point x="-17" y="-135" type="curve"/>
      <point x="-8" y="-135" type="line"/>
      <point x="-7" y="-121"/>
      <point x="-3" y="-83"/>
      <point x="35" y="-83" type="curve" smooth="yes"/>
      <point x="100" y="-83"/>
      <point x="102" y="-139"/>
    </contour>
    <contour>
      <point x="227" y="12" type="curve" smooth="yes"/>
      <point x="160" y="12"/>
      <point x="140" y="108"/>
      <point x="140" y="275" type="curve" smooth="yes"/>
      <point x="140" y="451"/>
      <point x="170" y="536"/>
      <point x="223" y="536" type="curve" smooth="yes"/>
      <point x="274" y="536"/>
      <point x="299" y="475"/>
      <point x="299" y="282" type="curve" smooth="yes"/>
      <point x="299" y="93"/>
      <point x="286" y="12"/>
    </contour>
  </outline>
</glyph>
<glyph name="uni1D72" format="2">
  <advance width="318"/>
  <unicode hex="1D72"/>
  <anchor x="162" y="536" name="top"/>
  <anchor x="334" y="536" name="topright"/>
  <anchor x="102" y="0" name="bottom"/>
  <outline>
    <contour>
      <point x="-5" y="226" type="curve"/>
      <point x="5" y="226" type="line"/>
      <point x="6" y="245"/>
      <point x="13" y="290"/>
      <point x="54" y="290" type="curve" smooth="yes"/>
      <point x="104" y="290"/>
      <point x="114" y="222"/>
      <point x="170" y="222" type="curve" smooth="yes"/>
      <point x="221" y="222"/>
      <point x="243" y="276"/>
      <point x="244" y="329" type="curve"/>
      <point x="234" y="329" type="line"/>
      <point x="233" y="307"/>
      <point x="227" y="262"/>
      <point x="187" y="262" type="curve" smooth="yes"/>
      <point x="137" y="262"/>
      <point x="116" y="331"/>
      <point x="66" y="331" type="curve" smooth="yes"/>
      <point x="16" y="331"/>
      <point x="-3" y="279"/>
    </contour>
    <component base="r" xOffset="-11"/>
  </outline>
</glyph>
<glyph name="uni1D73" format="2">
  <advance width="313"/>
  <unicode hex="1D73"/>
  <anchor x="157" y="536" name="top"/>
  <anchor x="157" y="0" name="bottom"/>
  <outline>
    <contour>
      <point x="-19" y="210" type="curve"/>
      <point x="-9" y="210" type="line"/>
      <point x="-8" y="226"/>
      <point x="-5" y="275"/>
      <point x="42" y="275" type="curve" smooth="yes"/>
      <point x="90" y="275"/>
      <point x="101" y="205"/>
      <point x="157" y="205" type="curve" smooth="yes"/>
      <point x="212" y="205"/>
      <point x="229" y="266"/>
      <point x="231" y="316" type="curve"/>
      <point x="222" y="316" type="line"/>
      <point x="222" y="296"/>
      <point x="214" y="250"/>
      <point x="172" y="250" type="curve" smooth="yes"/>
      <point x="122" y="250"/>
      <point x="110" y="318"/>
      <point x="54" y="318" type="curve" smooth="yes"/>
      <point x="-1" y="318"/>
      <point x="-16" y="265"/>
    </contour>
    <component base="uni027E"/>
  </outline>
</glyph>
<glyph name="isbelowcomb" format="2">
  <unicode hex="1DD0"/>
  <anchor x="0" y="0" name="_bottom"/>
  <anchor x="0" y="-271" name="bottom"/>
  <outline>
    <contour>
      <point x="51" y="-267" type="curve" smooth="yes"/>
      <point x="83" y="-267"/>
      <point x="111" y="-234"/>
      <point x="111" y="-177" type="curve" smooth="yes"/>
      <point x="111" y="-142"/>
      <point x="101" y="-113"/>
      <point x="85" y="-90" type="curve"/>
      <point x="72" y="-90" type="line"/>
      <point x="89" y="-114"/>
      <point x="98" y="-143"/>
      <point x="98" y="-172" type="curve" smooth="yes"/>
      <point x="98" y="-205"/>
      <point x="86" y="-231"/>
      <point x="59" y="-231" type="curve" smooth="yes"/>
      <point x="35" y="-231"/>
      <point x="21" y="-213"/>
      <point x="0" y="-191" type="curve" smooth="yes"/>
      <point x="-19" y="-172"/>
      <point x="-31" y="-161"/>
      <point x="-48" y="-161" type="curve" smooth="yes"/>
      <point x="-69" y="-161"/>
      <point x="-80" y="-177"/>
      <point x="-90" y="-201" type="curve"/>
      <point x="-52" y="0" type="line"/>
      <point x="-63" y="0" type="line"/>
      <point x="-112" y="-257" type="line"/>
      <point x="-105" y="-257" type="line"/>
      <point x="-95" y="-217"/>
      <point x="-80" y="-199"/>
      <point x="-60" y="-199" type="curve" smooth="yes"/>
      <point x="-43" y="-199"/>
      <point x="-29" y="-213"/>
      <point x="-10" y="-231" type="curve" smooth="yes"/>
      <point x="9" y="-250"/>
      <point x="26" y="-267"/>
    </contour>
  </outline>
</glyph>
<glyph name="LL.middleWelsh" format="2">
  <advance width="612"/>
  <unicode hex="1EFA"/>
  <anchor x="306" y="0" name="bottom"/>
  <anchor x="306" y="714" name="top"/>
  <outline>
    <contour>
      <point x="23" y="0" type="line"/>
      <point x="584" y="0" type="line"/>
      <point x="588" y="211" type="line"/>
      <point x="578" y="211" type="line"/>
      <point x="574" y="107" type="line" smooth="yes"/>
      <point x="572" y="36"/>
      <point x="547" y="10"/>
      <point x="473" y="10" type="curve" smooth="yes"/>
      <point x="360" y="10" type="line"/>
      <point x="360" y="624" type="line" smooth="yes"/>
      <point x="360" y="697"/>
      <point x="377" y="704"/>
      <point x="416" y="704" type="curve" smooth="yes"/>
      <point x="427" y="704" type="line"/>
      <point x="427" y="714" type="line"/>
      <point x="23" y="714" type="line"/>
      <point x="23" y="704" type="line"/>
      <point x="43" y="704" type="line" smooth="yes"/>
      <point x="79" y="704"/>
      <point x="85" y="691"/>
      <point x="85" y="627" type="curve" smooth="yes"/>
      <point x="85" y="86" type="line" smooth="yes"/>
      <point x="85" y="22"/>
      <point x="79" y="10"/>
      <point x="43" y="10" type="curve" smooth="yes"/>
      <point x="23" y="10" type="line"/>
    </contour>
    <contour>
      <point x="202" y="10" type="line" smooth="yes"/>
      <point x="165" y="10"/>
      <point x="159" y="22"/>
      <point x="159" y="86" type="curve" smooth="yes"/>
      <point x="159" y="627" type="line" smooth="yes"/>
      <point x="159" y="691"/>
      <point x="165" y="704"/>
      <point x="202" y="704" type="curve" smooth="yes"/>
      <point x="230" y="704" type="line" smooth="yes"/>
      <point x="273" y="704"/>
      <point x="285" y="697"/>
      <point x="285" y="622" type="curve" smooth="yes"/>
      <point x="285" y="93" type="line" smooth="yes"/>
      <point x="285" y="17"/>
      <point x="273" y="10"/>
      <point x="228" y="10" type="curve" smooth="yes"/>
    </contour>
  </outline>
</glyph>
<glyph name="uni1FDD" format="2">
  <advance width="258"/>
  <unicode hex="1FDD"/>
  <anchor x="138" y="536" name="_top"/>
  <anchor x="138" y="718" name="top"/>
  <outline>
    <contour>
      <point x="126" y="550" type="curve"/>
      <point x="126" y="560" type="line"/>
      <point x="97" y="571"/>
      <point x="73" y="594"/>
      <point x="73" y="628" type="curve" smooth="yes"/>
      <point x="73" y="661"/>
      <point x="118" y="653"/>
      <point x="118" y="688" type="curve" smooth="yes"/>
      <point x="118" y="707"/>
      <point x="104" y="718"/>
      <point x="89" y="718" type="curve" smooth="yes"/>
      <point x="57" y="718"/>
      <point x="39" y="689"/>
      <point x="39" y="655" type="curve" smooth="yes"/>
      <point x="39" y="616"/>
      <point x="61" y="571"/>
    </contour>
    <contour>
      <point x="235" y="553" type="curve"/>
      <point x="241" y="553" type="line"/>
      <point x="241" y="560" type="line"/>
      <point x="231" y="594"/>
      <point x="206" y="670"/>
      <point x="196" y="715" type="curve"/>
      <point x="151" y="715" type="line"/>
      <point x="151" y="707" type="line"/>
      <point x="169" y="669"/>
      <point x="218" y="582"/>
    </contour>
  </outline>
</glyph>
<glyph name="uni1FEE" format="2">
  <advance width="373"/>
  <unicode hex="1FEE"/>
  <anchor x="185" y="536" name="_top"/>
  <outline>
    <contour>
      <point x="165" y="644" type="line"/>
      <point x="172" y="644" type="line"/>
      <point x="190" y="677"/>
      <point x="227" y="754"/>
      <point x="234" y="784" type="curve"/>
      <point x="234" y="790" type="line"/>
      <point x="185" y="790" type="line"/>
      <point x="180" y="751"/>
      <point x="170" y="688"/>
      <point x="165" y="658" type="curve"/>
    </contour>
    <contour>
      <point x="97" y="638" type="curve" smooth="yes"/>
      <point x="112" y="638"/>
      <point x="124" y="647"/>
      <point x="124" y="684" type="curve" smooth="yes"/>
      <point x="124" y="722"/>
      <point x="112" y="730"/>
      <point x="97" y="730" type="curve" smooth="yes"/>
      <point x="81" y="730"/>
      <point x="70" y="722"/>
      <point x="70" y="684" type="curve" smooth="yes"/>
      <point x="70" y="647"/>
      <point x="81" y="638"/>
    </contour>
    <contour>
      <point x="271" y="638" type="curve" smooth="yes"/>
      <point x="287" y="638"/>
      <point x="298" y="647"/>
      <point x="298" y="684" type="curve" smooth="yes"/>
      <point x="298" y="722"/>
      <point x="287" y="730"/>
      <point x="271" y="730" type="curve" smooth="yes"/>
      <point x="254" y="730"/>
      <point x="244" y="722"/>
      <point x="244" y="684" type="curve" smooth="yes"/>
      <point x="244" y="647"/>
      <point x="254" y="638"/>
    </contour>
  </outline>
</glyph>
<glyph name="uni200E" format="2">
  <unicode hex="200E"/>
  <outline>
    <contour>
      <point x="-10" y="-133" type="line"/>
      <point x="10" y="-133" type="line"/>
      <point x="10" y="573" type="line"/>
      <point x="174" y="573" type="line"/>
      <point x="90" y="490" type="line"/>
      <point x="104" y="476" type="line"/>
      <point x="212" y="583" type="line"/>
      <point x="104" y="690" type="line"/>
      <point x="90" y="676" type="line"/>
      <point x="174" y="593" type="line"/>
      <point x="-10" y="593" type="line"/>
    </contour>
  </outline>
</glyph>
<glyph name="underscoredbl" format="2">
  <advance width="301"/>
  <unicode hex="2017"/>
  <outline>
    <contour>
      <point x="-3" y="-48" type="line"/>
      <point x="301" y="-48" type="line"/>
      <point x="301" y="-28" type="line"/>
      <point x="-3" y="-28" type="line"/>
    </contour>
    <contour>
      <point x="-3" y="-175" type="line"/>
      <point x="301" y="-175" type="line"/>
      <point x="301" y="-155" type="line"/>
      <point x="-3" y="-155" type="line"/>
    </contour>
  </outline>
</glyph>
<glyph name="twodotenleader" format="2">
  <advance width="356"/>
  <unicode hex="2025"/>
  <outline>
    <contour>
      <point x="242" y="301" type="curve" smooth="yes"/>
      <point x="268" y="301"/>
      <point x="283" y="318"/>
      <point x="283" y="356" type="curve" smooth="yes"/>
      <point x="283" y="397"/>
      <point x="268" y="413"/>
      <point x="242" y="413" type="curve" smooth="yes"/>
      <point x="212" y="413"/>
      <point x="198" y="397"/>
      <point x="198" y="356" type="curve" smooth="yes"/>
      <point x="198" y="318"/>
      <point x="212" y="301"/>
    </contour>
    <contour>
      <point x="112" y="302" type="curve" smooth="yes"/>
      <point x="138" y="302"/>
      <point x="153" y="319"/>
      <point x="153" y="357" type="curve" smooth="yes"/>
      <point x="153" y="397"/>
      <point x="138" y="413"/>
      <point x="112" y="413" type="curve" smooth="yes"/>
      <point x="83" y="413"/>
      <point x="68" y="397"/>
      <point x="68" y="357" type="curve" smooth="yes"/>
      <point x="68" y="319"/>
      <point x="83" y="302"/>
    </contour>
  </outline>
</glyph>
<glyph name="pertenthousand" format="2">
  <advance width="1123"/>
  <unicode hex="2031"/>
  <outline>
    <contour>
      <point x="172" y="0" type="line"/>
      <point x="181" y="0" type="line"/>
      <point x="418" y="714" type="line"/>
      <point x="408" y="714" type="line"/>
    </contour>
    <contour>
      <point x="142" y="280" type="curve" smooth="yes"/>
      <point x="222" y="280"/>
      <point x="261" y="359"/>
      <point x="261" y="503" type="curve" smooth="yes"/>
      <point x="261" y="649"/>
      <point x="223" y="724"/>
      <point x="143" y="724" type="curve" smooth="yes"/>
      <point x="62" y="724"/>
      <point x="26" y="647"/>
      <point x="26" y="503" type="curve" smooth="yes"/>
      <point x="26" y="354"/>
      <point x="63" y="280"/>
    </contour>
    <contour>
      <point x="143" y="290" type="curve" smooth="yes"/>
      <point x="93" y="290"/>
      <point x="81" y="348"/>
      <point x="81" y="503" type="curve" smooth="yes"/>
      <point x="81" y="657"/>
      <point x="93" y="714"/>
      <point x="143" y="714" type="curve" smooth="yes"/>
      <point x="195" y="714"/>
      <point x="206" y="657"/>
      <point x="206" y="503" type="curve" smooth="yes"/>
      <point x="206" y="348"/>
      <point x="195" y="290"/>
    </contour>
    <contour>
      <point x="450" y="-10" type="curve" smooth="yes"/>
      <point x="530" y="-10"/>
      <point x="568" y="69"/>
      <point x="568" y="213" type="curve" smooth="yes"/>
      <point x="568" y="359"/>
      <point x="531" y="434"/>
      <point x="451" y="434" type="curve" smooth="yes"/>
      <point x="369" y="434"/>
      <point x="334" y="357"/>
      <point x="334" y="213" type="curve" smooth="yes"/>
      <point x="334" y="64"/>
      <point x="370" y="-10"/>
    </contour>
    <contour>
      <point x="451" y="0" type="curve" smooth="yes"/>
      <point x="400" y="0"/>
      <point x="388" y="58"/>
      <point x="388" y="213" type="curve" smooth="yes"/>
      <point x="388" y="367"/>
      <point x="401" y="424"/>
      <point x="451" y="424" type="curve" smooth="yes"/>
      <point x="503" y="424"/>
      <point x="513" y="367"/>
      <point x="513" y="213" type="curve" smooth="yes"/>
      <point x="513" y="58"/>
      <point x="502" y="0"/>
    </contour>
    <contour>
      <point x="715" y="-10" type="curve" smooth="yes"/>
      <point x="795" y="-10"/>
      <point x="833" y="69"/>
      <point x="833" y="213" type="curve" smooth="yes"/>
      <point x="833" y="359"/>
      <point x="796" y="434"/>
      <point x="716" y="434" type="curve" smooth="yes"/>
      <point x="634" y="434"/>
      <point x="600" y="357"/>
      <point x="600" y="213" type="curve" smooth="yes"/>
      <point x="600" y="64"/>
      <point x="636" y="-10"/>
    </contour>
    <contour>
      <point x="715" y="0" type="curve" smooth="yes"/>
      <point x="665" y="0"/>
      <point x="654" y="58"/>
      <point x="654" y="213" type="curve" smooth="yes"/>
      <point x="654" y="367"/>
      <point x="666" y="424"/>
      <point x="716" y="424" type="curve" smooth="yes"/>
      <point x="768" y="424"/>
      <point x="778" y="367"/>
      <point x="778" y="213" type="curve" smooth="yes"/>
      <point x="778" y="58"/>
      <point x="768" y="0"/>
    </contour>
    <contour>
      <point x="978" y="-10" type="curve" smooth="yes"/>
      <point x="1058" y="-10"/>
      <point x="1096" y="69"/>
      <point x="1096" y="213" type="curve" smooth="yes"/>
      <point x="1096" y="359"/>
      <point x="1059" y="434"/>
      <point x="979" y="434" type="curve" smooth="yes"/>
      <point x="898" y="434"/>
      <point x="863" y="357"/>
      <point x="863" y="213" type="curve" smooth="yes"/>
      <point x="863" y="64"/>
      <point x="899" y="-10"/>
    </contour>
    <contour>
      <point x="978" y="0" type="curve" smooth="yes"/>
      <point x="928" y="0"/>
      <point x="917" y="58"/>
      <point x="917" y="213" type="curve" smooth="yes"/>
      <point x="917" y="367"/>
      <point x="929" y="424"/>
      <point x="979" y="424" type="curve" smooth="yes"/>
      <point x="1031" y="424"/>
      <point x="1041" y="367"/>
      <point x="1041" y="213" type="curve" smooth="yes"/>
      <point x="1041" y="58"/>
      <point x="1031" y="0"/>
    </contour>
  </outline>
</glyph>
<glyph name="uni2034" format="2">
  <advance width="315"/>
  <unicode hex="2034"/>
  <outline>
    <contour>
      <point x="28" y="479" type="line"/>
      <point x="40" y="479" type="line"/>
      <point x="116" y="714" type="line"/>
      <point x="67" y="714" type="line"/>
    </contour>
    <contour>
      <point x="117" y="479" type="line"/>
      <point x="129" y="479" type="line"/>
      <point x="205" y="714" type="line"/>
      <point x="156" y="714" type="line"/>
    </contour>
    <contour>
      <point x="206" y="479" type="line"/>
      <point x="218" y="479" type="line"/>
      <point x="295" y="714" type="line"/>
      <point x="245" y="714" type="line"/>
    </contour>
  </outline>
</glyph>
<glyph name="twodotpunctuation" format="2">
  <advance width="206"/>
  <unicode hex="205A"/>
  <outline>
    <contour>
      <point x="104" y="601" type="curve" smooth="yes"/>
      <point x="129" y="601"/>
      <point x="143" y="619"/>
      <point x="143" y="656" type="curve" smooth="yes"/>
      <point x="143" y="697"/>
      <point x="129" y="713"/>
      <point x="104" y="713" type="curve" smooth="yes"/>
      <point x="73" y="713"/>
      <point x="59" y="697"/>
      <point x="59" y="656" type="curve" smooth="yes"/>
      <point x="59" y="619"/>
      <point x="73" y="601"/>
    </contour>
    <contour>
      <point x="104" y="-2" type="curve" smooth="yes"/>
      <point x="129" y="-2"/>
      <point x="143" y="15"/>
      <point x="143" y="53" type="curve" smooth="yes"/>
      <point x="143" y="93"/>
      <point x="129" y="110"/>
      <point x="104" y="110" type="curve" smooth="yes"/>
      <point x="73" y="110"/>
      <point x="59" y="93"/>
      <point x="59" y="53" type="curve" smooth="yes"/>
      <point x="59" y="15"/>
      <point x="73" y="-2"/>
    </contour>
  </outline>
</glyph>
<glyph name="dottedcross" format="2">
  <advance width="450"/>
  <unicode hex="205C"/>
  <outline>
    <contour>
      <point x="99" y="0" type="curve" smooth="yes"/>
      <point x="118" y="0"/>
      <point x="135" y="13"/>
      <point x="135" y="50" type="curve" smooth="yes"/>
      <point x="135" y="90"/>
      <point x="118" y="104"/>
      <point x="99" y="104" type="curve" smooth="yes"/>
      <point x="76" y="104"/>
      <point x="60" y="90"/>
      <point x="60" y="50" type="curve" smooth="yes"/>
      <point x="60" y="13"/>
      <point x="76" y="0"/>
    </contour>
    <contour>
      <point x="99" y="432" type="curve" smooth="yes"/>
      <point x="118" y="432"/>
      <point x="135" y="446"/>
      <point x="135" y="483" type="curve" smooth="yes"/>
      <point x="135" y="523"/>
      <point x="118" y="536"/>
      <point x="99" y="536" type="curve" smooth="yes"/>
      <point x="77" y="536"/>
      <point x="60" y="523"/>
      <point x="60" y="483" type="curve" smooth="yes"/>
      <point x="60" y="446"/>
      <point x="77" y="432"/>
    </contour>
    <contour>
      <point x="353" y="0" type="curve" smooth="yes"/>
      <point x="372" y="0"/>
      <point x="389" y="14"/>
      <point x="389" y="51" type="curve" smooth="yes"/>
      <point x="389" y="90"/>
      <point x="372" y="104"/>
      <point x="353" y="104" type="curve" smooth="yes"/>
      <point x="330" y="104"/>
      <point x="314" y="90"/>
      <point x="314" y="51" type="curve" smooth="yes"/>
      <point x="314" y="14"/>
      <point x="330" y="0"/>
    </contour>
    <contour>
      <point x="354" y="432" type="curve" smooth="yes"/>
      <point x="372" y="432"/>
      <point x="389" y="446"/>
      <point x="389" y="483" type="curve" smooth="yes"/>
      <point x="389" y="523"/>
      <point x="372" y="536"/>
      <point x="354" y="536" type="curve" smooth="yes"/>
      <point x="331" y="536"/>
      <point x="314" y="523"/>
      <point x="314" y="483" type="curve" smooth="yes"/>
      <point x="314" y="446"/>
      <point x="331" y="432"/>
    </contour>
    <contour>
      <point x="211" y="0" type="line"/>
      <point x="231" y="0" type="line"/>
      <point x="231" y="259" type="line"/>
      <point x="379" y="259" type="line"/>
      <point x="379" y="279" type="line"/>
      <point x="231" y="279" type="line"/>
      <point x="231" y="536" type="line"/>
      <point x="211" y="536" type="line"/>
      <point x="211" y="279" type="line"/>
      <point x="60" y="279" type="line"/>
      <point x="60" y="259" type="line"/>
      <point x="211" y="259" type="line"/>
    </contour>
  </outline>
</glyph>
<glyph name="ninesuperior" format="2">
  <advance width="255"/>
  <unicode hex="2079"/>
  <outline>
    <contour>
      <point x="115" y="378" type="curve" smooth="yes"/>
      <point x="191" y="378"/>
      <point x="232" y="439"/>
      <point x="232" y="616" type="curve" smooth="yes"/>
      <point x="232" y="766"/>
      <point x="196" y="821"/>
      <point x="129" y="821" type="curve" smooth="yes"/>
      <point x="60" y="821"/>
      <point x="25" y="767"/>
      <point x="25" y="679" type="curve" smooth="yes"/>
      <point x="25" y="602"/>
      <point x="59" y="559"/>
      <point x="118" y="559" type="curve" smooth="yes"/>
      <point x="147" y="559"/>
      <point x="161" y="571"/>
      <point x="176" y="588" type="curve"/>
      <point x="175" y="438"/>
      <point x="163" y="388"/>
      <point x="120" y="388" type="curve" smooth="yes"/>
      <point x="80" y="388"/>
      <point x="67" y="419"/>
      <point x="67" y="487" type="curve"/>
      <point x="51" y="487"/>
      <point x="30" y="474"/>
      <point x="30" y="450" type="curve" smooth="yes"/>
      <point x="30" y="415"/>
      <point x="58" y="378"/>
    </contour>
    <contour>
      <point x="125" y="568" type="curve" smooth="yes"/>
      <point x="97" y="568"/>
      <point x="82" y="599"/>
      <point x="82" y="682" type="curve" smooth="yes"/>
      <point x="82" y="773"/>
      <point x="98" y="811"/>
      <point x="129" y="811" type="curve" smooth="yes"/>
      <point x="159" y="811"/>
      <point x="177" y="756"/>
      <point x="177" y="602" type="curve"/>
      <point x="161" y="582"/>
      <point x="150" y="568"/>
    </contour>
  </outline>
</glyph>
<glyph name="peseta" format="2">
  <advance width="549"/>
  <unicode hex="20A7"/>
  <outline>
    <contour>
      <point x="24" y="0" type="line"/>
      <point x="222" y="0" type="line"/>
      <point x="222" y="10" type="line"/>
      <point x="197" y="10" type="line" smooth="yes"/>
      <point x="154" y="10"/>
      <point x="150" y="24"/>
      <point x="150" y="87" type="curve" smooth="yes"/>
      <point x="150" y="279" type="line"/>
      <point x="162" y="279" type="line" smooth="yes"/>
      <point x="300" y="279"/>
      <point x="340" y="396"/>
      <point x="340" y="506" type="curve" smooth="yes"/>
      <point x="340" y="648"/>
      <point x="288" y="714"/>
      <point x="169" y="714" type="curve" smooth="yes"/>
      <point x="24" y="714" type="line"/>
      <point x="24" y="704" type="line"/>
      <point x="37" y="704" type="line" smooth="yes"/>
      <point x="82" y="704"/>
      <point x="85" y="690"/>
      <point x="85" y="627" type="curve" smooth="yes"/>
      <point x="85" y="90" type="line" smooth="yes"/>
      <point x="85" y="25"/>
      <point x="81" y="10"/>
      <point x="36" y="10" type="curve" smooth="yes"/>
      <point x="24" y="10" type="line"/>
    </contour>
    <contour>
      <point x="150" y="289" type="line"/>
      <point x="150" y="704" type="line"/>
      <point x="166" y="704" type="line" smooth="yes"/>
      <point x="249" y="704"/>
      <point x="271" y="651"/>
      <point x="271" y="506" type="curve" smooth="yes"/>
      <point x="271" y="384"/>
      <point x="254" y="289"/>
      <point x="164" y="289" type="curve" smooth="yes"/>
    </contour>
    <contour>
      <point x="471" y="-10" type="curve" smooth="yes"/>
      <point x="494" y="-10"/>
      <point x="515" y="-5"/>
      <point x="525" y="0" type="curve"/>
      <point x="525" y="8" type="line"/>
      <point x="512" y="5"/>
      <point x="501" y="4"/>
      <point x="492" y="4" type="curve" smooth="yes"/>
      <point x="462" y="4"/>
      <point x="443" y="26"/>
      <point x="443" y="103" type="curve" smooth="yes"/>
      <point x="443" y="348" type="line"/>
      <point x="518" y="348" type="line"/>
      <point x="518" y="359" type="line"/>
      <point x="443" y="359" type="line"/>
      <point x="443" y="487" type="line"/>
      <point x="434" y="487" type="line"/>
      <point x="422" y="358"/>
      <point x="395" y="362"/>
      <point x="338" y="361" type="curve"/>
      <point x="338" y="348" type="line"/>
      <point x="382" y="348" type="line"/>
      <point x="382" y="129" type="line" smooth="yes"/>
      <point x="382" y="22"/>
      <point x="421" y="-10"/>
    </contour>
  </outline>
</glyph>
<glyph name="ruble" format="2">
  <advance width="382"/>
  <unicode hex="20BD"/>
  <outline>
    <contour>
      <point x="36" y="0" type="line"/>
      <point x="239" y="0" type="line"/>
      <point x="239" y="10" type="line"/>
      <point x="213" y="10" type="line" smooth="yes"/>
      <point x="170" y="10"/>
      <point x="162" y="23"/>
      <point x="162" y="88" type="curve" smooth="yes"/>
      <point x="162" y="202" type="line"/>
      <point x="246" y="202" type="line"/>
      <point x="246" y="212" type="line"/>
      <point x="162" y="212" type="line"/>
      <point x="162" y="325" type="line"/>
      <point x="186" y="325" type="line" smooth="yes"/>
      <point x="307" y="325"/>
      <point x="360" y="414"/>
      <point x="360" y="520" type="curve" smooth="yes"/>
      <point x="360" y="649"/>
      <point x="306" y="714"/>
      <point x="185" y="714" type="curve" smooth="yes"/>
      <point x="36" y="714" type="line"/>
      <point x="36" y="704" type="line"/>
      <point x="39" y="704" type="line" smooth="yes"/>
      <point x="80" y="704"/>
      <point x="88" y="691"/>
      <point x="88" y="626" type="curve" smooth="yes"/>
      <point x="88" y="212" type="line"/>
      <point x="32" y="212" type="line"/>
      <point x="32" y="202" type="line"/>
      <point x="88" y="202" type="line"/>
      <point x="88" y="89" type="line" smooth="yes"/>
      <point x="88" y="23"/>
      <point x="80" y="10"/>
      <point x="39" y="10" type="curve" smooth="yes"/>
      <point x="36" y="10" type="line"/>
    </contour>
    <contour>
      <point x="162" y="335" type="line"/>
      <point x="162" y="704" type="line"/>
      <point x="188" y="704" type="line" smooth="yes"/>
      <point x="260" y="704"/>
      <point x="283" y="654"/>
      <point x="283" y="518" type="curve" smooth="yes"/>
      <point x="283" y="402"/>
      <point x="256" y="335"/>
      <point x="189" y="335" type="curve" smooth="yes"/>
    </contour>
  </outline>
</glyph>
<glyph name="afii61248" format="2">
  <advance width="504"/>
  <unicode hex="2105"/>
  <outline>
    <contour>
      <point x="124" y="0" type="line"/>
      <point x="135" y="0" type="line"/>
      <point x="373" y="714" type="line"/>
      <point x="362" y="714" type="line"/>
    </contour>
    <contour>
      <point x="368" y="-10" type="curve" smooth="yes"/>
      <point x="443" y="-10"/>
      <point x="481" y="41"/>
      <point x="481" y="161" type="curve" smooth="yes"/>
      <point x="481" y="280"/>
      <point x="436" y="329"/>
      <point x="367" y="329" type="curve" smooth="yes"/>
      <point x="292" y="329"/>
      <point x="256" y="280"/>
      <point x="256" y="161" type="curve" smooth="yes"/>
      <point x="256" y="41"/>
      <point x="297" y="-10"/>
    </contour>
    <contour>
      <point x="368" y="0" type="curve" smooth="yes"/>
      <point x="329" y="0"/>
      <point x="314" y="40"/>
      <point x="314" y="161" type="curve" smooth="yes"/>
      <point x="314" y="282"/>
      <point x="327" y="319"/>
      <point x="365" y="319" type="curve" smooth="yes"/>
      <point x="405" y="319"/>
      <point x="424" y="282"/>
      <point x="424" y="161" type="curve" smooth="yes"/>
      <point x="424" y="55"/>
      <point x="408" y="0"/>
    </contour>
    <contour>
      <point x="144" y="381" type="curve" smooth="yes"/>
      <point x="196" y="381"/>
      <point x="218" y="412"/>
      <point x="218" y="441" type="curve" smooth="yes"/>
      <point x="218" y="453"/>
      <point x="212" y="456"/>
      <point x="202" y="460" type="curve"/>
      <point x="197" y="405"/>
      <point x="171" y="391"/>
      <point x="150" y="391" type="curve" smooth="yes"/>
      <point x="99" y="391"/>
      <point x="81" y="443"/>
      <point x="81" y="547" type="curve" smooth="yes"/>
      <point x="81" y="664"/>
      <point x="108" y="710"/>
      <point x="150" y="710" type="curve" smooth="yes"/>
      <point x="179" y="710"/>
      <point x="176" y="678"/>
      <point x="176" y="596" type="curve"/>
      <point x="201" y="596"/>
      <point x="221" y="616"/>
      <point x="221" y="653" type="curve" smooth="yes"/>
      <point x="221" y="689"/>
      <point x="202" y="720"/>
      <point x="143" y="720" type="curve" smooth="yes"/>
      <point x="78" y="720"/>
      <point x="23" y="678"/>
      <point x="23" y="553" type="curve" smooth="yes"/>
      <point x="23" y="433"/>
      <point x="74" y="381"/>
    </contour>
  </outline>
</glyph>
<glyph name="planckconstant" format="2">
  <advance width="407"/>
  <unicode hex="210E"/>
  <outline>
    <contour>
      <point x="290" y="-10" type="curve" smooth="yes"/>
      <point x="345" y="-10"/>
      <point x="360" y="19"/>
      <point x="365" y="34" type="curve"/>
      <point x="358" y="41" type="line"/>
      <point x="354" y="24"/>
      <point x="339" y="8"/>
      <point x="329" y="8" type="curve" smooth="yes"/>
      <point x="311" y="8"/>
      <point x="302" y="27"/>
      <point x="302" y="56" type="curve" smooth="yes"/>
      <point x="302" y="85"/>
      <point x="314" y="151"/>
      <point x="327" y="212" type="curve" smooth="yes"/>
      <point x="348" y="309" type="line" smooth="yes"/>
      <point x="357" y="347"/>
      <point x="372" y="405"/>
      <point x="372" y="447" type="curve" smooth="yes"/>
      <point x="372" y="502"/>
      <point x="350" y="545"/>
      <point x="286" y="545" type="curve" smooth="yes"/>
      <point x="225" y="545"/>
      <point x="200" y="503"/>
      <point x="165" y="403" type="curve"/>
      <point x="162" y="403" type="line"/>
      <point x="175" y="462"/>
      <point x="190" y="519"/>
      <point x="209" y="608" type="curve" smooth="yes"/>
      <point x="242" y="760" type="line"/>
      <point x="118" y="760" type="line"/>
      <point x="115" y="750" type="line"/>
      <point x="108" y="750" type="line" smooth="yes"/>
      <point x="141" y="750"/>
      <point x="153" y="740"/>
      <point x="153" y="728" type="curve" smooth="yes"/>
      <point x="153" y="719"/>
      <point x="149" y="699"/>
      <point x="136" y="637" type="curve" smooth="yes"/>
      <point x="2" y="0" type="line"/>
      <point x="76" y="0" type="line"/>
      <point x="143" y="289" type="line" smooth="yes"/>
      <point x="154" y="337"/>
      <point x="173" y="406"/>
      <point x="185" y="439" type="curve" smooth="yes"/>
      <point x="206" y="488"/>
      <point x="226" y="519"/>
      <point x="257" y="519" type="curve" smooth="yes"/>
      <point x="292" y="519"/>
      <point x="297" y="492"/>
      <point x="297" y="465" type="curve" smooth="yes"/>
      <point x="297" y="428"/>
      <point x="284" y="367"/>
      <point x="275" y="323" type="curve" smooth="yes"/>
      <point x="255" y="235" type="line" smooth="yes"/>
      <point x="239" y="163"/>
      <point x="230" y="102"/>
      <point x="230" y="72" type="curve" smooth="yes"/>
      <point x="230" y="16"/>
      <point x="252" y="-10"/>
    </contour>
  </outline>
</glyph>
<glyph name="prescription" format="2">
  <advance width="480"/>
  <unicode hex="211E"/>
  <outline>
    <contour>
      <point x="23" y="0" type="line"/>
      <point x="158" y="0" type="line"/>
      <point x="158" y="322" type="line"/>
      <point x="213" y="322" type="line"/>
      <point x="311" y="153" type="line"/>
      <point x="253" y="59" type="line" smooth="yes"/>
      <point x="225" y="21"/>
      <point x="216" y="10"/>
      <point x="198" y="10" type="curve" smooth="yes"/>
      <point x="199" y="10" type="line"/>
      <point x="199" y="0" type="line"/>
      <point x="272" y="0" type="line"/>
      <point x="272" y="10" type="line"/>
      <point x="268" y="10"/>
      <point x="256" y="17"/>
      <point x="256" y="32" type="curve" smooth="yes"/>
      <point x="256" y="44"/>
      <point x="250" y="36"/>
      <point x="317" y="144" type="curve"/>
      <point x="342" y="98" type="line" smooth="yes"/>
      <point x="380" y="30"/>
      <point x="410" y="0"/>
      <point x="465" y="0" type="curve" smooth="yes"/>
      <point x="485" y="0" type="line"/>
      <point x="485" y="10" type="line"/>
      <point x="487" y="10" type="line" smooth="yes"/>
      <point x="471" y="10"/>
      <point x="462" y="17"/>
      <point x="403" y="120" type="curve" smooth="yes"/>
      <point x="366" y="188" type="line"/>
      <point x="413" y="255" type="line" smooth="yes"/>
      <point x="443" y="293"/>
      <point x="457" y="307"/>
      <point x="457" y="307" type="curve" smooth="yes"/>
      <point x="471" y="307" type="line"/>
      <point x="471" y="317" type="line"/>
      <point x="376" y="317" type="line"/>
      <point x="376" y="307" type="line"/>
      <point x="397" y="307"/>
      <point x="413" y="305"/>
      <point x="413" y="288" type="curve" smooth="yes"/>
      <point x="413" y="271"/>
      <point x="420" y="286"/>
      <point x="360" y="197" type="curve"/>
      <point x="290" y="325" type="line"/>
      <point x="318" y="351"/>
      <point x="381" y="390"/>
      <point x="381" y="527" type="curve" smooth="yes"/>
      <point x="381" y="645"/>
      <point x="329" y="714"/>
      <point x="220" y="714" type="curve" smooth="yes"/>
      <point x="23" y="714" type="line"/>
      <point x="23" y="704" type="line"/>
      <point x="30" y="704" type="line" smooth="yes"/>
      <point x="80" y="704"/>
      <point x="83" y="689"/>
      <point x="83" y="625" type="curve" smooth="yes"/>
      <point x="83" y="88" type="line" smooth="yes"/>
      <point x="83" y="24"/>
      <point x="79" y="10"/>
      <point x="30" y="10" type="curve" smooth="yes"/>
      <point x="23" y="10" type="line"/>
    </contour>
    <contour>
      <point x="158" y="332" type="line"/>
      <point x="158" y="704" type="line"/>
      <point x="197" y="704" type="line" smooth="yes"/>
      <point x="270" y="704"/>
      <point x="299" y="652"/>
      <point x="299" y="527" type="curve" smooth="yes"/>
      <point x="299" y="384"/>
      <point x="279" y="332"/>
      <point x="185" y="332" type="curve" smooth="yes"/>
    </contour>
  </outline>
</glyph>
<glyph name="daletsymbol" format="2">
  <advance width="384"/>
  <unicode hex="2138"/>
  <outline>
    <contour>
      <point x="222" y="0" type="line"/>
      <point x="296" y="0" type="line"/>
      <point x="296" y="522" type="line"/>
      <point x="351" y="522" type="line"/>
      <point x="351" y="581" type="line"/>
      <point x="2" y="581" type="line"/>
      <point x="2" y="522" type="line"/>
      <point x="222" y="522" type="line"/>
    </contour>
  </outline>
</glyph>
<glyph name="facsimile" format="2">
  <advance width="689"/>
  <unicode hex="213B"/>
  <outline>
    <contour>
      <point x="184" y="370" type="line"/>
      <point x="278" y="370" type="line"/>
      <point x="278" y="380" type="line"/>
      <point x="259" y="380" type="line" smooth="yes"/>
      <point x="244" y="380"/>
      <point x="238" y="389"/>
      <point x="238" y="404" type="curve" smooth="yes"/>
      <point x="238" y="414"/>
      <point x="241" y="426"/>
      <point x="244" y="437" type="curve" smooth="yes"/>
      <point x="254" y="491" type="line"/>
      <point x="324" y="491" type="line"/>
      <point x="336" y="430" type="line" smooth="yes"/>
      <point x="339" y="416"/>
      <point x="341" y="404"/>
      <point x="341" y="399" type="curve" smooth="yes"/>
      <point x="341" y="389"/>
      <point x="338" y="380"/>
      <point x="324" y="380" type="curve" smooth="yes"/>
      <point x="319" y="380" type="line"/>
      <point x="319" y="370" type="line"/>
      <point x="430" y="370" type="line"/>
      <point x="430" y="380" type="line"/>
      <point x="424" y="380" type="line" smooth="yes"/>
      <point x="411" y="380"/>
      <point x="408" y="386"/>
      <point x="404" y="407" type="curve" smooth="yes"/>
      <point x="336" y="714" type="line"/>
      <point x="294" y="714" type="line"/>
      <point x="228" y="422" type="line" smooth="yes"/>
      <point x="219" y="388"/>
      <point x="216" y="380"/>
      <point x="201" y="380" type="curve" smooth="yes"/>
      <point x="184" y="380" type="line"/>
    </contour>
    <contour>
      <point x="21" y="370" type="line"/>
      <point x="146" y="370" type="line"/>
      <point x="146" y="380" type="line"/>
      <point x="133" y="380" type="line" smooth="yes"/>
      <point x="117" y="380"/>
      <point x="113" y="386"/>
      <point x="113" y="418" type="curve" smooth="yes"/>
      <point x="113" y="539" type="line"/>
      <point x="179" y="539" type="line"/>
      <point x="179" y="549" type="line"/>
      <point x="113" y="549" type="line"/>
      <point x="113" y="704" type="line"/>
      <point x="145" y="704" type="line" smooth="yes"/>
      <point x="179" y="704"/>
      <point x="189" y="678"/>
      <point x="191" y="648" type="curve" smooth="yes"/>
      <point x="191" y="619" type="line"/>
      <point x="201" y="619" type="line"/>
      <point x="200" y="714" type="line"/>
      <point x="21" y="714" type="line"/>
      <point x="21" y="704" type="line"/>
      <point x="33" y="704" type="line" smooth="yes"/>
      <point x="46" y="704"/>
      <point x="48" y="697"/>
      <point x="48" y="669" type="curve" smooth="yes"/>
      <point x="48" y="416" type="line" smooth="yes"/>
      <point x="48" y="390"/>
      <point x="48" y="380"/>
      <point x="31" y="380" type="curve" smooth="yes"/>
      <point x="21" y="380" type="line"/>
    </contour>
    <contour>
      <point x="256" y="501" type="line"/>
      <point x="276" y="595" type="line" smooth="yes"/>
      <point x="287" y="638"/>
      <point x="286" y="640"/>
      <point x="292" y="672" type="curve"/>
      <point x="298" y="639"/>
      <point x="299" y="623"/>
      <point x="306" y="589" type="curve" smooth="yes"/>
      <point x="322" y="501" type="line"/>
    </contour>
    <contour>
      <point x="440" y="370" type="line"/>
      <point x="520" y="370" type="line"/>
      <point x="520" y="380" type="line"/>
      <point x="498" y="380"/>
      <point x="492" y="384"/>
      <point x="492" y="397" type="curve" smooth="yes"/>
      <point x="492" y="410"/>
      <point x="499" y="426"/>
      <point x="504" y="442" type="curve" smooth="yes"/>
      <point x="527" y="523" type="line"/>
      <point x="553" y="438" type="line" smooth="yes"/>
      <point x="562" y="415"/>
      <point x="564" y="410"/>
      <point x="564" y="400" type="curve" smooth="yes"/>
      <point x="564" y="387"/>
      <point x="557" y="380"/>
      <point x="549" y="380" type="curve"/>
      <point x="549" y="370" type="line"/>
      <point x="660" y="370" type="line"/>
      <point x="660" y="380" type="line"/>
      <point x="661" y="380" type="line" smooth="yes"/>
      <point x="654" y="380"/>
      <point x="646" y="384"/>
      <point x="634" y="409" type="curve" smooth="yes"/>
      <point x="574" y="569" type="line"/>
      <point x="602" y="665" type="line" smooth="yes"/>
      <point x="613" y="695"/>
      <point x="623" y="704"/>
      <point x="640" y="704" type="curve" smooth="yes"/>
      <point x="645" y="704" type="line"/>
      <point x="645" y="714" type="line"/>
      <point x="569" y="714" type="line"/>
      <point x="569" y="704" type="line"/>
      <point x="586" y="704"/>
      <point x="595" y="703"/>
      <point x="595" y="688" type="curve" smooth="yes"/>
      <point x="595" y="676"/>
      <point x="590" y="666"/>
      <point x="585" y="653" type="curve" smooth="yes"/>
      <point x="568" y="584" type="line"/>
      <point x="545" y="657" type="line" smooth="yes"/>
      <point x="541" y="667"/>
      <point x="537" y="679"/>
      <point x="537" y="688" type="curve" smooth="yes"/>
      <point x="537" y="699"/>
      <point x="540" y="704"/>
      <point x="549" y="704" type="curve"/>
      <point x="549" y="714" type="line"/>
      <point x="435" y="714" type="line"/>
      <point x="435" y="704" type="line"/>
      <point x="441" y="704" type="line" smooth="yes"/>
      <point x="451" y="704"/>
      <point x="462" y="696"/>
      <point x="472" y="673" type="curve" smooth="yes"/>
      <point x="522" y="536" type="line"/>
      <point x="484" y="421" type="line" smooth="yes"/>
      <point x="468" y="383"/>
      <point x="462" y="380"/>
      <point x="440" y="380" type="curve"/>
    </contour>
  </outline>
</glyph>
<glyph name="uni2C65" format="2">
  <advance width="374"/>
  <unicode hex="2C65"/>
  <anchor x="188" y="-205" name="bottom"/>
  <anchor x="188" y="714" name="top"/>
  <anchor x="354" y="536" name="topright"/>
  <outline>
    <contour>
      <point x="99" y="-205" type="line"/>
      <point x="108" y="-205" type="line"/>
      <point x="257" y="714" type="line"/>
      <point x="248" y="714" type="line"/>
    </contour>
    <component base="a"/>
  </outline>
</glyph>
<glyph name="uni2C6D" format="2">
  <advance width="539"/>
  <unicode hex="2C6D"/>
  <anchor x="269" y="0" name="bottom"/>
  <anchor x="269" y="714" name="top"/>
  <outline>
    <contour>
      <point x="234" y="-10" type="curve" smooth="yes"/>
      <point x="317" y="-10"/>
      <point x="366" y="48"/>
      <point x="380" y="188" type="curve"/>
      <point x="382" y="188" type="line"/>
      <point x="382" y="0" type="line"/>
      <point x="511" y="0" type="line"/>
      <point x="511" y="10" type="line"/>
      <point x="513" y="10" type="line" smooth="yes"/>
      <point x="455" y="10"/>
      <point x="449" y="22"/>
      <point x="449" y="91" type="curve" smooth="yes"/>
      <point x="449" y="623" type="line" smooth="yes"/>
      <point x="449" y="695"/>
      <point x="457" y="704"/>
      <point x="511" y="704" type="curve" smooth="yes"/>
      <point x="510" y="704" type="line"/>
      <point x="510" y="714" type="line"/>
      <point x="379" y="714" type="line"/>
      <point x="379" y="546" type="line"/>
      <point x="377" y="546" type="line"/>
      <point x="357" y="673"/>
      <point x="315" y="725"/>
      <point x="230" y="725" type="curve" smooth="yes"/>
      <point x="98" y="725"/>
      <point x="37" y="582"/>
      <point x="37" y="359" type="curve" smooth="yes"/>
      <point x="37" y="123"/>
      <point x="111" y="-10"/>
    </contour>
    <contour>
      <point x="245" y="5" type="curve" smooth="yes"/>
      <point x="154" y="5"/>
      <point x="114" y="143"/>
      <point x="114" y="358" type="curve" smooth="yes"/>
      <point x="114" y="588"/>
      <point x="149" y="712"/>
      <point x="249" y="712" type="curve" smooth="yes"/>
      <point x="340" y="712"/>
      <point x="381" y="588"/>
      <point x="381" y="358" type="curve" smooth="yes"/>
      <point x="381" y="141"/>
      <point x="351" y="5"/>
    </contour>
  </outline>
</glyph>
<glyph name="Mhook" format="2">
  <advance width="610"/>
  <unicode hex="2C6E"/>
  <anchor x="309" y="-240" name="bottom"/>
  <anchor x="309" y="714" name="top"/>
  <outline>
    <contour>
      <point x="371" y="-240" type="line"/>
      <point x="388" y="-240" type="line" smooth="yes"/>
      <point x="437" y="-240"/>
      <point x="535" y="-229"/>
      <point x="535" y="-30" type="curve" smooth="yes"/>
      <point x="535" y="629" type="line" smooth="yes"/>
      <point x="535" y="692"/>
      <point x="545" y="704"/>
      <point x="578" y="704" type="curve" smooth="yes"/>
      <point x="596" y="704" type="line"/>
      <point x="596" y="714" type="line"/>
      <point x="455" y="714" type="line"/>
      <point x="314" y="53" type="line"/>
      <point x="165" y="714" type="line"/>
      <point x="23" y="714" type="line"/>
      <point x="23" y="704" type="line"/>
      <point x="53" y="704" type="line" smooth="yes"/>
      <point x="89" y="704"/>
      <point x="99" y="692"/>
      <point x="99" y="628" type="curve" smooth="yes"/>
      <point x="99" y="87" type="line" smooth="yes"/>
      <point x="99" y="22"/>
      <point x="89" y="10"/>
      <point x="49" y="10" type="curve" smooth="yes"/>
      <point x="23" y="10" type="line"/>
      <point x="23" y="0" type="line"/>
      <point x="190" y="0" type="line"/>
      <point x="190" y="10" type="line"/>
      <point x="165" y="10" type="line" smooth="yes"/>
      <point x="121" y="10"/>
      <point x="109" y="19"/>
      <point x="109" y="89" type="curve" smooth="yes"/>
      <point x="109" y="679" type="line"/>
      <point x="268" y="0" type="line"/>
      <point x="315" y="0" type="line"/>
      <point x="461" y="690" type="line"/>
      <point x="461" y="-34" type="line" smooth="yes"/>
      <point x="461" y="-203"/>
      <point x="420" y="-230"/>
      <point x="371" y="-230" type="curve" smooth="yes"/>
      <point x="371" y="-230" type="line"/>
    </contour>
  </outline>
</glyph>
<glyph name="uni2DF5" format="2">
  <unicode hex="2DF5"/>
  <anchor x="0" y="536" name="_top"/>
  <anchor x="0" y="834" name="top"/>
  <anchor x="144" y="834" name="topright"/>
  <outline>
    <contour>
      <point x="-64" y="616" type="curve" smooth="yes"/>
      <point x="-21" y="616"/>
      <point x="-11" y="638"/>
      <point x="-11" y="655" type="curve" smooth="yes"/>
      <point x="-11" y="662"/>
      <point x="-13" y="668"/>
      <point x="-22" y="669" type="curve"/>
      <point x="-25" y="636"/>
      <point x="-36" y="620"/>
      <point x="-56" y="620" type="curve" smooth="yes"/>
      <point x="-87" y="620"/>
      <point x="-98" y="644"/>
      <point x="-98" y="728" type="curve" smooth="yes"/>
      <point x="-98" y="813"/>
      <point x="-82" y="831"/>
      <point x="-33" y="831" type="curve" smooth="yes"/>
      <point x="40" y="831" type="line"/>
      <point x="40" y="653" type="line" smooth="yes"/>
      <point x="40" y="627"/>
      <point x="37" y="624"/>
      <point x="15" y="624" type="curve" smooth="yes"/>
      <point x="12" y="624" type="line"/>
      <point x="12" y="620" type="line"/>
      <point x="102" y="620" type="line"/>
      <point x="102" y="624" type="line"/>
      <point x="96" y="624" type="line" smooth="yes"/>
      <point x="75" y="624"/>
      <point x="72" y="627"/>
      <point x="72" y="653" type="curve" smooth="yes"/>
      <point x="72" y="831" type="line"/>
      <point x="92" y="831" type="line" smooth="yes"/>
      <point x="121" y="831"/>
      <point x="123" y="826"/>
      <point x="126" y="786" type="curve" smooth="yes"/>
      <point x="126" y="773" type="line"/>
      <point x="131" y="773" type="line"/>
      <point x="128" y="834" type="line"/>
      <point x="-35" y="834" type="line" smooth="yes"/>
      <point x="-100" y="834"/>
      <point x="-131" y="809"/>
      <point x="-131" y="728" type="curve" smooth="yes"/>
      <point x="-131" y="640"/>
      <point x="-104" y="616"/>
    </contour>
  </outline>
</glyph>
<glyph name="leftsubstitutionbracket" format="2">
  <advance width="221"/>
  <unicode hex="2E02"/>
  <outline>
    <contour>
      <point x="47" y="246" type="line"/>
      <point x="67" y="246" type="line"/>
      <point x="67" y="583" type="line"/>
      <point x="172" y="682" type="line"/>
      <point x="160" y="697" type="line"/>
      <point x="47" y="593" type="line"/>
    </contour>
  </outline>
</glyph>
<glyph name="leftraisedomissionbracket" format="2">
  <advance width="330"/>
  <unicode hex="2E0C"/>
  <outline>
    <contour>
      <point x="268" y="318" type="line"/>
      <point x="286" y="329" type="line"/>
      <point x="61" y="698" type="line"/>
      <point x="44" y="688" type="line"/>
    </contour>
  </outline>
</glyph>
<glyph name="brackhalftopleft" format="2">
  <advance width="247"/>
  <unicode hex="2E22"/>
  <outline>
    <contour>
      <point x="63" y="317" type="line"/>
      <point x="136" y="317" type="line"/>
      <point x="136" y="661" type="line" smooth="yes"/>
      <point x="136" y="733"/>
      <point x="136" y="750"/>
      <point x="191" y="750" type="curve" smooth="yes"/>
      <point x="222" y="750" type="line"/>
      <point x="222" y="760" type="line"/>
      <point x="63" y="760" type="line"/>
    </contour>
  </outline>
</glyph>
<glyph name="brackhalfbottomright" format="2">
  <advance width="248"/>
  <unicode hex="2E25"/>
  <outline>
    <contour>
      <point x="25" y="-128" type="line"/>
      <point x="184" y="-128" type="line"/>
      <point x="184" y="316" type="line"/>
      <point x="111" y="316" type="line"/>
      <point x="111" y="-29" type="line" smooth="yes"/>
      <point x="111" y="-101"/>
      <point x="111" y="-118"/>
      <point x="56" y="-118" type="curve" smooth="yes"/>
      <point x="25" y="-118" type="line"/>
    </contour>
  </outline>
</glyph>
<glyph name="leftsidewaysubracket" format="2">
  <advance width="647"/>
  <unicode hex="2E26"/>
  <outline>
    <contour>
      <point x="306" y="207" type="curve" smooth="yes"/>
      <point x="530" y="207" type="line"/>
      <point x="530" y="227" type="line"/>
      <point x="306" y="227" type="line" smooth="yes"/>
      <point x="196" y="227"/>
      <point x="139" y="270"/>
      <point x="139" y="354" type="curve" smooth="yes"/>
      <point x="139" y="438"/>
      <point x="196" y="481"/>
      <point x="306" y="481" type="curve" smooth="yes"/>
      <point x="530" y="481" type="line"/>
      <point x="530" y="501" type="line"/>
      <point x="306" y="501" type="line" smooth="yes"/>
      <point x="181" y="501"/>
      <point x="117" y="451"/>
      <point x="117" y="354" type="curve" smooth="yes"/>
      <point x="117" y="257"/>
      <point x="181" y="207"/>
    </contour>
  </outline>
</glyph>
<glyph name="uni2E3F" format="2">
  <advance width="425"/>
  <unicode hex="2E3F"/>
  <outline>
    <contour>
      <point x="133" y="-111" type="line"/>
      <point x="234" y="-111" type="line"/>
      <point x="234" y="268" type="line"/>
      <point x="292" y="268" type="line"/>
      <point x="292" y="-111" type="line"/>
      <point x="400" y="-111" type="line"/>
      <point x="400" y="-101" type="line"/>
      <point x="395" y="-101" type="line" smooth="yes"/>
      <point x="335" y="-101"/>
      <point x="332" y="-86"/>
      <point x="332" y="-3" type="curve" smooth="yes"/>
      <point x="332" y="268" type="line"/>
      <point x="393" y="268" type="line"/>
      <point x="393" y="278" type="line"/>
      <point x="332" y="278" type="line"/>
      <point x="332" y="704" type="line"/>
      <point x="400" y="704" type="line"/>
      <point x="400" y="714" type="line"/>
      <point x="332" y="714" type="line"/>
      <point x="332" y="790" type="line"/>
      <point x="292" y="790" type="line"/>
      <point x="292" y="714" type="line"/>
      <point x="234" y="714" type="line"/>
      <point x="234" y="790" type="line"/>
      <point x="194" y="790" type="line"/>
      <point x="194" y="713" type="line"/>
      <point x="73" y="699"/>
      <point x="22" y="602"/>
      <point x="22" y="486" type="curve" smooth="yes"/>
      <point x="22" y="365"/>
      <point x="76" y="278"/>
      <point x="194" y="269" type="curve"/>
      <point x="194" y="-3" type="line" smooth="yes"/>
      <point x="194" y="-85"/>
      <point x="192" y="-101"/>
      <point x="133" y="-101" type="curve" smooth="yes"/>
      <point x="133" y="-101" type="line"/>
    </contour>
    <contour>
      <point x="194" y="281" type="line"/>
      <point x="122" y="291"/>
      <point x="98" y="364"/>
      <point x="98" y="491" type="curve" smooth="yes"/>
      <point x="98" y="602"/>
      <point x="126" y="694"/>
      <point x="194" y="702" type="curve"/>
    </contour>
    <contour>
      <point x="234" y="278" type="line"/>
      <point x="234" y="704" type="line"/>
      <point x="292" y="704" type="line"/>
      <point x="292" y="278" type="line"/>
    </contour>
  </outline>
</glyph>
<glyph name="uni2E44" format="2">
  <advance width="233"/>
  <unicode hex="2E44"/>
  <outline>
    <contour>
      <point x="48" y="523" type="line"/>
      <point x="193" y="748" type="line"/>
      <point x="146" y="772" type="line"/>
      <point x="40" y="527" type="line"/>
    </contour>
    <contour>
      <point x="48" y="-90" type="line"/>
      <point x="193" y="136" type="line"/>
      <point x="146" y="159" type="line"/>
      <point x="40" y="-86" type="line"/>
    </contour>
  </outline>
</glyph>
<glyph name="uniA64F" format="2">
  <advance width="450"/>
  <unicode hex="A64F"/>
  <outline>
    <contour>
      <point x="81" y="0" type="line"/>
      <point x="277" y="0" type="line" smooth="yes"/>
      <point x="367" y="0"/>
      <point x="424" y="49"/>
      <point x="424" y="154" type="curve" smooth="yes"/>
      <point x="424" y="272"/>
      <point x="356" y="293"/>
      <point x="268" y="293" type="curve" smooth="yes"/>
      <point x="212" y="293" type="line"/>
      <point x="212" y="413" type="line" smooth="yes"/>
      <point x="212" y="492"/>
      <point x="178" y="545"/>
      <point x="100" y="545" type="curve" smooth="yes"/>
      <point x="36" y="545"/>
      <point x="8" y="510"/>
      <point x="8" y="468" type="curve" smooth="yes"/>
      <point x="8" y="439"/>
      <point x="26" y="424"/>
      <point x="62" y="424" type="curve"/>
      <point x="62" y="502"/>
      <point x="65" y="535"/>
      <point x="97" y="535" type="curve" smooth="yes"/>
      <point x="129" y="535"/>
      <point x="140" y="507"/>
      <point x="140" y="450" type="curve" smooth="yes"/>
      <point x="140" y="82" type="line" smooth="yes"/>
      <point x="140" y="18"/>
      <point x="130" y="10"/>
      <point x="86" y="10" type="curve" smooth="yes"/>
      <point x="81" y="10" type="line"/>
    </contour>
    <contour>
      <point x="212" y="10" type="line"/>
      <point x="212" y="283" type="line"/>
      <point x="261" y="283" type="line" smooth="yes"/>
      <point x="325" y="283"/>
      <point x="350" y="252"/>
      <point x="350" y="156" type="curve" smooth="yes"/>
      <point x="350" y="52"/>
      <point x="321" y="10"/>
      <point x="275" y="10" type="curve" smooth="yes"/>
    </contour>
  </outline>
</glyph>
<glyph name="uniA663" format="2">
  <advance width="479"/>
  <unicode hex="A663"/>
  <outline>
    <contour>
      <point x="6" y="-210" type="line"/>
      <point x="16" y="-210" type="line"/>
      <point x="17" y="-180" type="line" smooth="yes"/>
      <point x="22" y="-32"/>
      <point x="48" y="0"/>
      <point x="159" y="0" type="curve" smooth="yes"/>
      <point x="241" y="0" type="line" smooth="yes"/>
      <point x="360" y="0"/>
      <point x="383" y="-38"/>
      <point x="387" y="-189" type="curve" smooth="yes"/>
      <point x="387" y="-210" type="line"/>
      <point x="397" y="-210" type="line"/>
      <point x="397" y="8" type="line"/>
      <point x="387" y="8" type="line" smooth="yes"/>
      <point x="330" y="8"/>
      <point x="326" y="15"/>
      <point x="326" y="91" type="curve" smooth="yes"/>
      <point x="326" y="526" type="line"/>
      <point x="409" y="526" type="line" smooth="yes"/>
      <point x="443" y="526"/>
      <point x="456" y="511"/>
      <point x="460" y="403" type="curve" smooth="yes"/>
      <point x="460" y="379" type="line"/>
      <point x="470" y="379" type="line"/>
      <point x="467" y="536" type="line"/>
      <point x="68" y="536" type="line"/>
      <point x="68" y="527" type="line"/>
      <point x="104" y="527" type="line" smooth="yes"/>
      <point x="141" y="527"/>
      <point x="151" y="513"/>
      <point x="151" y="468" type="curve" smooth="yes"/>
      <point x="151" y="415"/>
      <point x="139" y="317"/>
      <point x="121" y="229" type="curve" smooth="yes"/>
      <point x="105" y="146"/>
      <point x="81" y="54"/>
      <point x="63" y="15" type="curve"/>
      <point x="6" y="15" type="line"/>
    </contour>
    <contour>
      <point x="76" y="15" type="line"/>
      <point x="124" y="147"/>
      <point x="160" y="374"/>
      <point x="164" y="526" type="curve"/>
      <point x="249" y="526" type="line"/>
      <point x="249" y="15" type="line"/>
    </contour>
  </outline>
</glyph>
<glyph name="uniA664" format="2">
  <advance width="571"/>
  <unicode hex="A664"/>
  <outline>
    <contour>
      <point x="48" y="-7" type="curve" smooth="yes"/>
      <point x="84" y="-7"/>
      <point x="124" y="20"/>
      <point x="153" y="169" type="curve" smooth="yes"/>
      <point x="166" y="251"/>
      <point x="193" y="450"/>
      <point x="193" y="704" type="curve"/>
      <point x="302" y="704" type="line"/>
      <point x="302" y="90" type="line" smooth="yes"/>
      <point x="302" y="20"/>
      <point x="287" y="10"/>
      <point x="246" y="10" type="curve" smooth="yes"/>
      <point x="239" y="10" type="line"/>
      <point x="239" y="0" type="line"/>
      <point x="438" y="0" type="line"/>
      <point x="438" y="10" type="line"/>
      <point x="430" y="10" type="line" smooth="yes"/>
      <point x="390" y="10"/>
      <point x="376" y="20"/>
      <point x="376" y="92" type="curve" smooth="yes"/>
      <point x="376" y="703" type="line"/>
      <point x="462" y="704" type="line" smooth="yes"/>
      <point x="536" y="704"/>
      <point x="557" y="682"/>
      <point x="560" y="602" type="curve" smooth="yes"/>
      <point x="561" y="557" type="line"/>
      <point x="571" y="557" type="line"/>
      <point x="566" y="714" type="line"/>
      <point x="93" y="714" type="line"/>
      <point x="93" y="704" type="line"/>
      <point x="110" y="704" type="line" smooth="yes"/>
      <point x="172" y="704"/>
      <point x="182" y="689"/>
      <point x="182" y="616" type="curve" smooth="yes"/>
      <point x="182" y="560"/>
      <point x="176" y="390"/>
      <point x="158" y="261" type="curve" smooth="yes"/>
      <point x="126" y="69"/>
      <point x="75" y="47"/>
      <point x="55" y="47" type="curve" smooth="yes"/>
      <point x="31" y="47"/>
      <point x="17" y="69"/>
      <point x="21" y="91" type="curve"/>
      <point x="10" y="86"/>
      <point x="0" y="74"/>
      <point x="0" y="50" type="curve" smooth="yes"/>
      <point x="0" y="18"/>
      <point x="13" y="-7"/>
    </contour>
  </outline>
</glyph>
<glyph name="uniA665" format="2">
  <advance width="504"/>
  <unicode hex="A665"/>
  <outline>
    <contour>
      <point x="60" y="-7" type="curve" smooth="yes"/>
      <point x="106" y="-7"/>
      <point x="133" y="22"/>
      <point x="154" y="160" type="curve" smooth="yes"/>
      <point x="168" y="257"/>
      <point x="189" y="401"/>
      <point x="190" y="526" type="curve"/>
      <point x="270" y="526" type="line"/>
      <point x="270" y="83" type="line" smooth="yes"/>
      <point x="270" y="23"/>
      <point x="267" y="10"/>
      <point x="210" y="10" type="curve" smooth="yes"/>
      <point x="214" y="10" type="line"/>
      <point x="214" y="0" type="line"/>
      <point x="401" y="0" type="line"/>
      <point x="401" y="10" type="line"/>
      <point x="401" y="10" type="line" smooth="yes"/>
      <point x="344" y="10"/>
      <point x="343" y="23"/>
      <point x="343" y="83" type="curve" smooth="yes"/>
      <point x="343" y="526" type="line"/>
      <point x="428" y="526" type="line" smooth="yes"/>
      <point x="468" y="526"/>
      <point x="478" y="511"/>
      <point x="482" y="412" type="curve" smooth="yes"/>
      <point x="482" y="379" type="line"/>
      <point x="492" y="379" type="line"/>
      <point x="490" y="536" type="line"/>
      <point x="89" y="536" type="line"/>
      <point x="89" y="526" type="line"/>
      <point x="121" y="526" type="line" smooth="yes"/>
      <point x="148" y="526"/>
      <point x="176" y="523"/>
      <point x="176" y="452" type="curve" smooth="yes"/>
      <point x="176" y="405"/>
      <point x="158" y="265"/>
      <point x="146" y="203" type="curve" smooth="yes"/>
      <point x="116" y="42"/>
      <point x="86" y="42"/>
      <point x="59" y="42" type="curve" smooth="yes"/>
      <point x="37" y="42"/>
      <point x="29" y="52"/>
      <point x="26" y="83" type="curve"/>
      <point x="7" y="84"/>
      <point x="3" y="63"/>
      <point x="3" y="46" type="curve" smooth="yes"/>
      <point x="3" y="14"/>
      <point x="22" y="-7"/>
    </contour>
  </outline>
</glyph>
<glyph name="uniA66F" format="2">
  <unicode hex="A66F"/>
  <anchor x="0" y="536" name="_top"/>
  <outline>
    <contour>
      <point x="-117" y="586" type="curve" smooth="yes"/>
      <point x="-93" y="586"/>
      <point x="-87" y="603"/>
      <point x="-87" y="643" type="curve"/>
      <point x="86" y="643" type="line"/>
      <point x="86" y="603"/>
      <point x="91" y="586"/>
      <point x="116" y="586" type="curve" smooth="yes"/>
      <point x="135" y="586"/>
      <point x="146" y="599"/>
      <point x="146" y="624" type="curve" smooth="yes"/>
      <point x="146" y="650"/>
      <point x="133" y="663"/>
      <point x="111" y="663" type="curve"/>
      <point x="-112" y="663" type="line" smooth="yes"/>
      <point x="-134" y="663"/>
      <point x="-147" y="650"/>
      <point x="-147" y="624" type="curve" smooth="yes"/>
      <point x="-147" y="599"/>
      <point x="-136" y="586"/>
    </contour>
  </outline>
</glyph>
<glyph name="uniA69B" format="2">
  <advance width="410"/>
  <unicode hex="A69B"/>
  <outline>
    <contour>
      <point x="206" y="-10" type="curve" smooth="yes"/>
      <point x="309" y="-10"/>
      <point x="376" y="74"/>
      <point x="376" y="268" type="curve" smooth="yes"/>
      <point x="376" y="464"/>
      <point x="296" y="545"/>
      <point x="209" y="545" type="curve" smooth="yes"/>
      <point x="93" y="545"/>
      <point x="37" y="452"/>
      <point x="37" y="268" type="curve" smooth="yes"/>
      <point x="37" y="87"/>
      <point x="93" y="-10"/>
    </contour>
    <contour>
      <point x="199" y="1" type="line"/>
      <point x="138" y="8"/>
      <point x="107" y="87"/>
      <point x="108" y="275" type="curve"/>
      <point x="199" y="275" type="line"/>
    </contour>
    <contour>
      <point x="209" y="0" type="curve"/>
      <point x="209" y="275" type="line"/>
      <point x="305" y="275" type="line"/>
      <point x="305" y="77"/>
      <point x="265" y="4"/>
    </contour>
    <contour>
      <point x="108" y="285" type="line"/>
      <point x="111" y="451"/>
      <point x="137" y="528"/>
      <point x="199" y="534" type="curve"/>
      <point x="199" y="285" type="line"/>
    </contour>
    <contour>
      <point x="209" y="285" type="line"/>
      <point x="209" y="535" type="line"/>
      <point x="258" y="529"/>
      <point x="301" y="464"/>
      <point x="305" y="285" type="curve"/>
    </contour>
  </outline>
</glyph>
<glyph name="uniA719" format="2">
  <advance width="279"/>
  <unicode hex="A719"/>
  <outline>
    <contour>
      <point x="40" y="618" type="line"/>
      <point x="239" y="618" type="line"/>
      <point x="239" y="638" type="line"/>
      <point x="40" y="638" type="line"/>
    </contour>
    <contour>
      <point x="139" y="755" type="curve" smooth="yes"/>
      <point x="161" y="755"/>
      <point x="174" y="769"/>
      <point x="174" y="798" type="curve" smooth="yes"/>
      <point x="174" y="830"/>
      <point x="161" y="844"/>
      <point x="139" y="844" type="curve" smooth="yes"/>
      <point x="117" y="844"/>
      <point x="105" y="830"/>
      <point x="105" y="798" type="curve" smooth="yes"/>
      <point x="105" y="769"/>
      <point x="117" y="755"/>
    </contour>
  </outline>
</glyph>
<glyph name="uniA722" format="2">
  <advance width="264"/>
  <unicode hex="A722"/>
  <outline>
    <contour>
      <point x="90" y="400" type="line"/>
      <point x="160" y="400"/>
      <point x="231" y="447"/>
      <point x="231" y="567" type="curve" smooth="yes"/>
      <point x="231" y="667"/>
      <point x="175" y="726"/>
      <point x="102" y="726" type="curve" smooth="yes"/>
      <point x="59" y="726"/>
      <point x="38" y="708"/>
      <point x="38" y="677" type="curve" smooth="yes"/>
      <point x="38" y="669"/>
      <point x="40" y="662"/>
      <point x="38" y="658" type="curve"/>
      <point x="60" y="668"/>
      <point x="78" y="669"/>
      <point x="93" y="669" type="curve" smooth="yes"/>
      <point x="157" y="669"/>
      <point x="198" y="621"/>
      <point x="198" y="547" type="curve" smooth="yes"/>
      <point x="198" y="461"/>
      <point x="158" y="410"/>
      <point x="90" y="410" type="curve"/>
    </contour>
    <contour>
      <point x="90" y="-2" type="line"/>
      <point x="160" y="-2"/>
      <point x="231" y="45"/>
      <point x="231" y="165" type="curve" smooth="yes"/>
      <point x="231" y="264"/>
      <point x="175" y="323"/>
      <point x="102" y="323" type="curve" smooth="yes"/>
      <point x="59" y="323"/>
      <point x="38" y="306"/>
      <point x="38" y="274" type="curve" smooth="yes"/>
      <point x="38" y="266"/>
      <point x="40" y="260"/>
      <point x="38" y="256" type="curve"/>
      <point x="60" y="265"/>
      <point x="78" y="266"/>
      <point x="93" y="266" type="curve" smooth="yes"/>
      <point x="157" y="266"/>
      <point x="198" y="219"/>
      <point x="198" y="145" type="curve" smooth="yes"/>
      <point x="198" y="58"/>
      <point x="158" y="8"/>
      <point x="90" y="8" type="curve"/>
    </contour>
  </outline>
</glyph>
<glyph name="uniA72A" format="2">
  <advance width="389"/>
  <unicode hex="A72A"/>
  <outline>
    <contour>
      <point x="214" y="-11" type="curve" smooth="yes"/>
      <point x="326" y="-11"/>
      <point x="359" y="62"/>
      <point x="359" y="100" type="curve" smooth="yes"/>
      <point x="359" y="110"/>
      <point x="357" y="131"/>
      <point x="335" y="139" type="curve"/>
      <point x="314" y="31"/>
      <point x="275" y="0"/>
      <point x="224" y="0" type="curve" smooth="yes"/>
      <point x="146" y="0"/>
      <point x="107" y="64"/>
      <point x="107" y="193" type="curve" smooth="yes"/>
      <point x="107" y="258"/>
      <point x="119" y="311"/>
      <point x="149" y="354" type="curve"/>
      <point x="180" y="327"/>
      <point x="220" y="304"/>
      <point x="261" y="289" type="curve"/>
      <point x="261" y="299" type="line"/>
      <point x="216" y="320"/>
      <point x="183" y="350"/>
      <point x="168" y="379" type="curve"/>
      <point x="191" y="404"/>
      <point x="218" y="427"/>
      <point x="261" y="446" type="curve"/>
      <point x="261" y="458" type="line"/>
      <point x="217" y="440"/>
      <point x="183" y="422"/>
      <point x="154" y="400" type="curve"/>
      <point x="127" y="444"/>
      <point x="117" y="497"/>
      <point x="117" y="553" type="curve" smooth="yes"/>
      <point x="117" y="663"/>
      <point x="149" y="713"/>
      <point x="213" y="713" type="curve" smooth="yes"/>
      <point x="291" y="713"/>
      <point x="297" y="646"/>
      <point x="297" y="529" type="curve"/>
      <point x="328" y="529"/>
      <point x="355" y="556"/>
      <point x="355" y="598" type="curve" smooth="yes"/>
      <point x="355" y="661"/>
      <point x="307" y="723"/>
      <point x="210" y="723" type="curve" smooth="yes"/>
      <point x="129" y="723"/>
      <point x="45" y="675"/>
      <point x="45" y="538" type="curve" smooth="yes"/>
      <point x="45" y="476"/>
      <point x="73" y="421"/>
      <point x="111" y="378" type="curve"/>
      <point x="63" y="332"/>
      <point x="36" y="273"/>
      <point x="36" y="192" type="curve" smooth="yes"/>
      <point x="36" y="67"/>
      <point x="100" y="-11"/>
    </contour>
  </outline>
</glyph>
<glyph name="uniA72D" format="2">
  <advance width="334"/>
  <unicode hex="A72D"/>
  <outline>
    <contour>
      <point x="149" y="-235" type="curve" smooth="yes"/>
      <point x="225" y="-235"/>
      <point x="267" y="-165"/>
      <point x="267" y="-9" type="curve" smooth="yes"/>
      <point x="267" y="536" type="line"/>
      <point x="201" y="536" type="line"/>
      <point x="14" y="40" type="line"/>
      <point x="14" y="12" type="line"/>
      <point x="197" y="12" type="line"/>
      <point x="197" y="-67" type="line" smooth="yes"/>
      <point x="197" y="-182"/>
      <point x="186" y="-225"/>
      <point x="151" y="-225" type="curve" smooth="yes"/>
      <point x="109" y="-225"/>
      <point x="109" y="-173"/>
      <point x="109" y="-109" type="curve"/>
      <point x="69" y="-110"/>
      <point x="56" y="-136"/>
      <point x="56" y="-156" type="curve" smooth="yes"/>
      <point x="56" y="-208"/>
      <point x="92" y="-235"/>
    </contour>
    <contour>
      <point x="28" y="47" type="line"/>
      <point x="164" y="396" type="line" smooth="yes"/>
      <point x="174" y="430"/>
      <point x="181" y="460"/>
      <point x="199" y="507" type="curve"/>
      <point x="197" y="429"/>
      <point x="197" y="346"/>
      <point x="197" y="281" type="curve" smooth="yes"/>
      <point x="197" y="47" type="line"/>
    </contour>
  </outline>
</glyph>
<glyph name="uniA744" format="2">
  <advance width="466"/>
  <unicode hex="A744"/>
  <anchor x="234" y="714" name="top"/>
  <anchor x="446" y="714" name="topright"/>
  <anchor x="234" y="0" name="bottom"/>
  <outline>
    <contour>
      <point x="26" y="563" type="line"/>
      <point x="227" y="563" type="line"/>
      <point x="227" y="573" type="line"/>
      <point x="26" y="573" type="line"/>
    </contour>
    <contour>
      <point x="229" y="128" type="line"/>
      <point x="385" y="288" type="line"/>
      <point x="378" y="296" type="line"/>
      <point x="222" y="135" type="line"/>
    </contour>
    <component base="K"/>
  </outline>
</glyph>
<glyph name="uniA745" format="2">
  <advance width="391"/>
  <unicode hex="A745"/>
  <anchor x="196" y="760" name="top"/>
  <anchor x="383" y="760" name="topright"/>
  <anchor x="196" y="0" name="bottom"/>
  <outline>
    <contour>
      <point x="195" y="92" type="line"/>
      <point x="360" y="213" type="line"/>
      <point x="354" y="221" type="line"/>
      <point x="189" y="100" type="line"/>
    </contour>
    <contour>
      <point x="18" y="613" type="line"/>
      <point x="256" y="613" type="line"/>
      <point x="256" y="623" type="line"/>
      <point x="18" y="623" type="line"/>
    </contour>
    <component base="k"/>
  </outline>
</glyph>
<glyph name="uniA748" format="2">
  <advance width="619"/>
  <unicode hex="A748"/>
  <anchor x="205" y="714" name="top"/>
  <anchor x="205" y="357" name="center"/>
  <anchor x="390" y="714" name="topright"/>
  <anchor x="205" y="0" name="bottom"/>
  <outline>
    <contour>
      <point x="10" y="566" type="line"/>
      <point x="236" y="566" type="line"/>
      <point x="236" y="576" type="line"/>
      <point x="10" y="576" type="line"/>
    </contour>
    <component base="L"/>
  </outline>
</glyph>
<glyph name="uniA74C" format="2">
  <advance width="512"/>
  <unicode hex="A74C"/>
  <outline>
    <contour>
      <point x="245" y="-10" type="curve" smooth="yes"/>
      <point x="370" y="-10"/>
      <point x="455" y="126"/>
      <point x="455" y="358" type="curve" smooth="yes"/>
      <point x="455" y="411"/>
      <point x="452" y="459"/>
      <point x="447" y="501" type="curve"/>
      <point x="495" y="503"/>
      <point x="529" y="558"/>
      <point x="529" y="626" type="curve" smooth="yes"/>
      <point x="529" y="701"/>
      <point x="495" y="727"/>
      <point x="449" y="727" type="curve" smooth="yes"/>
      <point x="416" y="727"/>
      <point x="388" y="703"/>
      <point x="375" y="671" type="curve"/>
      <point x="342" y="707"/>
      <point x="297" y="725"/>
      <point x="246" y="725" type="curve" smooth="yes"/>
      <point x="104" y="725"/>
      <point x="37" y="591"/>
      <point x="37" y="359" type="curve" smooth="yes"/>
      <point x="37" y="142"/>
      <point x="104" y="-10"/>
    </contour>
    <contour>
      <point x="245" y="0" type="curve" smooth="yes"/>
      <point x="156" y="0"/>
      <point x="114" y="124"/>
      <point x="114" y="358" type="curve" smooth="yes"/>
      <point x="114" y="603"/>
      <point x="150" y="715"/>
      <point x="246" y="715" type="curve" smooth="yes"/>
      <point x="344" y="715"/>
      <point x="378" y="603"/>
      <point x="378" y="358" type="curve" smooth="yes"/>
      <point x="378" y="116"/>
      <point x="332" y="0"/>
    </contour>
    <contour>
      <point x="445" y="511" type="curve"/>
      <point x="435" y="564"/>
      <point x="418" y="609"/>
      <point x="399" y="640" type="curve"/>
      <point x="400" y="647" type="line" smooth="yes"/>
      <point x="409" y="708"/>
      <point x="429" y="717"/>
      <point x="450" y="717" type="curve" smooth="yes"/>
      <point x="492" y="717"/>
      <point x="499" y="685"/>
      <point x="499" y="624" type="curve" smooth="yes"/>
      <point x="499" y="556"/>
      <point x="482" y="515"/>
    </contour>
  </outline>
</glyph>
<glyph name="uniA750" format="2">
  <advance width="400"/>
  <unicode hex="A750"/>
  <anchor x="200" y="714" name="top"/>
  <anchor x="407" y="714" name="topright"/>
  <anchor x="119" y="0" name="bottom"/>
  <outline>
    <contour>
      <point x="23" y="159" type="line"/>
      <point x="233" y="159" type="line"/>
      <point x="233" y="169" type="line"/>
      <point x="23" y="169" type="line"/>
    </contour>
    <component base="P"/>
  </outline>
</glyph>
<glyph name="uniA763" format="2">
  <advance width="356"/>
  <unicode hex="A763"/>
  <outline>
    <contour>
      <point x="145" y="-239" type="curve" smooth="yes"/>
      <point x="253" y="-239"/>
      <point x="323" y="-173"/>
      <point x="323" y="-16" type="curve" smooth="yes"/>
      <point x="323" y="118"/>
      <point x="257" y="196"/>
      <point x="126" y="199" type="curve"/>
      <point x="319" y="453" type="line"/>
      <point x="319" y="476" type="line"/>
      <point x="174" y="476" type="line" smooth="yes"/>
      <point x="92" y="476"/>
      <point x="42" y="518"/>
      <point x="42" y="616" type="curve" smooth="yes"/>
      <point x="42" y="707"/>
      <point x="90" y="759"/>
      <point x="151" y="759" type="curve" smooth="yes"/>
      <point x="210" y="759"/>
      <point x="220" y="699"/>
      <point x="220" y="614" type="curve"/>
      <point x="254" y="614"/>
      <point x="270" y="628"/>
      <point x="270" y="663" type="curve" smooth="yes"/>
      <point x="270" y="717"/>
      <point x="238" y="771"/>
      <point x="164" y="771" type="curve" smooth="yes"/>
      <point x="85" y="771"/>
      <point x="18" y="719"/>
      <point x="18" y="606" type="curve" smooth="yes"/>
      <point x="18" y="475"/>
      <point x="101" y="429"/>
      <point x="191" y="429" type="curve" smooth="yes"/>
      <point x="287" y="429" type="line"/>
      <point x="112" y="197" type="line"/>
      <point x="112" y="193" type="line"/>
      <point x="121" y="193" type="line" smooth="yes"/>
      <point x="213" y="193"/>
      <point x="242" y="120"/>
      <point x="242" y="-16" type="curve" smooth="yes"/>
      <point x="242" y="-185"/>
      <point x="205" y="-229"/>
      <point x="144" y="-229" type="curve" smooth="yes"/>
      <point x="74" y="-229"/>
      <point x="63" y="-184"/>
      <point x="63" y="-79" type="curve"/>
      <point x="34" y="-79"/>
      <point x="19" y="-102"/>
      <point x="19" y="-132" type="curve" smooth="yes"/>
      <point x="19" y="-189"/>
      <point x="54" y="-239"/>
    </contour>
  </outline>
</glyph>
